<svg width="158" height="120" viewBox="0 0 158 120" fill="none" xmlns="http://www.w3.org/2000/svg">
<path d="M72.7281 67.0068L16.4781 117.007C15.5592 117.833 14.4861 118.469 13.3206 118.878C12.1551 119.288 10.9201 119.463 9.68658 119.394C8.45309 119.325 7.24544 119.012 6.13307 118.475C5.0207 117.937 4.02553 117.185 3.20478 116.262C2.38403 115.338 1.75388 114.262 1.35056 113.094C0.947244 111.926 0.778706 110.691 0.854639 109.457C0.930572 108.224 1.24948 107.018 1.79302 105.909C2.33657 104.8 3.09404 103.809 4.02188 102.993L52.3891 59.9998L4.02188 17.0069C2.1634 15.3551 1.03721 13.0326 0.891059 10.5505C0.744913 8.06834 1.59078 5.62979 3.24258 3.77131C4.89438 1.91283 7.21681 0.786637 9.69896 0.640491C12.1811 0.494344 14.6196 1.34021 16.4781 2.99201L72.7281 52.992C73.7177 53.8716 74.5097 54.9507 75.052 56.1585C75.5944 57.3662 75.8748 58.6751 75.8748 59.999C75.8748 61.323 75.5944 62.6319 75.052 63.8396C74.5097 65.0473 73.7177 66.1265 72.7281 67.0061V67.0068ZM147.745 100.625H72.7453C70.2589 100.625 67.8743 101.613 66.1162 103.371C64.358 105.129 63.3703 107.513 63.3703 110C63.3703 112.486 64.358 114.871 66.1162 116.629C67.8743 118.387 70.2589 119.375 72.7453 119.375H147.745C150.232 119.375 152.616 118.387 154.374 116.629C156.133 114.871 157.12 112.486 157.12 110C157.12 107.513 156.133 105.129 154.374 103.371C152.616 101.613 150.232 100.625 147.745 100.625V100.625Z" fill="#95EB28"/>
</svg>
