<svg width="226" height="226" viewBox="0 0 226 226" fill="none" xmlns="http://www.w3.org/2000/svg">
<path d="M131.993 53.3953L131.948 51.896C123.398 52.1531 114.99 54.0474 107.214 57.4651L92.7985 33.4818C105.134 27.8478 118.634 24.9342 132.309 24.9652L132.313 24.9651C140.167 24.9604 147.99 25.8991 155.599 27.7585C156.481 31.9878 158.236 36.0045 160.761 39.5694C163.477 43.4039 167.019 46.6244 171.142 49.014L171.154 49.0212L171.167 49.0281C175.346 51.3451 180.013 52.7207 184.818 53.0547C189.301 53.3664 193.799 52.764 198.02 51.2898C213.217 66.1586 222.529 85.6471 224.376 106.384H195.429C193.7 91.6115 186.456 77.9372 175.033 67.9124C163.262 57.582 147.906 51.8728 131.991 51.8953L131.993 53.3953ZM68.0876 113.252L69.5876 113.256L68.0876 113.253C68.0716 123.101 70.5 132.808 75.1676 141.567C79.6157 149.914 85.9736 157.167 93.7503 162.787L79.3324 186.358C61.5561 174.427 48.6704 156.909 42.8923 136.833C46.2942 134.041 49.0603 130.592 51.0065 126.701C53.1033 122.509 54.1935 117.913 54.1935 113.256C54.1935 108.598 53.1033 104.003 51.0065 99.8107C49.0607 95.9205 46.2955 92.472 42.8948 89.6807C48.7515 69.5567 61.7525 52.0297 79.6476 40.1465L94.065 63.7168C86.2324 69.3058 79.8157 76.5446 75.3131 84.8917C70.5875 93.6523 68.1088 103.377 68.0876 113.252ZM131.993 173.27L132.016 174.769C147.699 174.532 162.751 168.751 174.299 158.515C185.503 148.584 192.65 135.132 194.461 120.588H223.418C221.571 141.325 212.26 160.813 197.063 175.682C192.842 174.209 188.343 173.607 183.86 173.919C179.055 174.253 174.389 175.628 170.209 177.944L170.197 177.951L170.184 177.958C166.061 180.347 162.519 183.567 159.803 187.402C157.277 190.967 155.523 194.984 154.641 199.214C147.04 201.071 139.212 202.007 131.355 202.007H131.351C117.67 202.036 104.165 199.12 91.8408 193.49L106.267 169.489C114.375 172.907 123.124 174.705 131.982 174.77L131.993 173.27ZM42.2316 113.256C42.2316 118.415 40.1008 123.376 36.2875 127.043C32.4723 130.713 27.2857 132.784 21.8658 132.784C16.446 132.784 11.2593 130.713 7.44409 127.043C3.63085 123.376 1.5 118.415 1.5 113.256C1.5 108.096 3.63085 103.135 7.44409 99.4679C11.2593 95.7989 16.446 93.7278 21.8658 93.7278C27.2857 93.7278 32.4723 95.7989 36.2875 99.4679C40.1008 103.135 42.2316 108.096 42.2316 113.256ZM174.58 220.444C172.459 218.877 170.682 216.927 169.35 214.707C166.66 210.225 165.936 204.908 167.327 199.919C168.718 194.929 172.119 190.657 176.804 188.057C181.49 185.457 187.065 184.75 192.299 186.1C197.533 187.45 201.977 190.739 204.667 195.223C206 197.443 206.863 199.891 207.209 202.427C207.556 204.962 207.38 207.539 206.691 210.01C206.001 212.482 204.812 214.802 203.187 216.838C201.562 218.874 199.533 220.585 197.214 221.872C194.894 223.16 192.331 223.996 189.671 224.332C187.011 224.669 184.308 224.498 181.718 223.83C179.127 223.162 176.702 222.01 174.58 220.444ZM207.405 23.9915C206.993 26.5626 206.05 29.0311 204.627 31.2511C201.853 35.5798 197.421 38.7119 192.262 39.9613C187.102 41.2108 181.641 40.4734 177.044 37.9126C172.45 35.3528 169.092 31.1798 167.665 26.2958C166.238 21.4135 166.847 16.1876 169.369 11.7246C170.664 9.43424 172.425 7.41248 174.551 5.78098C176.677 4.14938 179.125 2.94176 181.751 2.23214C184.377 1.52251 187.126 1.32596 189.833 1.65463C192.54 1.9833 195.149 2.83019 197.506 4.14314C199.863 5.45604 201.918 7.20752 203.552 9.29136C205.186 11.3751 206.367 13.7492 207.028 16.2728C207.689 18.7963 207.817 21.4205 207.405 23.9915Z" fill="#9EFF00" stroke="black" stroke-width="3"/>
</svg>
