<svg width="1204" height="655" viewBox="0 0 1204 655" fill="none" xmlns="http://www.w3.org/2000/svg">
<rect y="24" width="1203.87" height="631" rx="6" fill="#031313" fill-opacity="0.9"/>
<rect width="1204" height="116" rx="6" fill="#2E3339"/>
<path d="M465.74 27.12C465.473 27.0533 465.16 26.9867 464.8 26.92C464.44 26.84 464.053 26.8 463.64 26.8C463.453 26.8 463.227 26.82 462.96 26.86C462.707 26.8867 462.513 26.92 462.38 26.96V35H459.4V25.04C459.933 24.8533 460.56 24.68 461.28 24.52C462.013 24.3467 462.827 24.26 463.72 24.26C463.88 24.26 464.073 24.2733 464.3 24.3C464.527 24.3133 464.753 24.34 464.98 24.38C465.207 24.4067 465.433 24.4467 465.66 24.5C465.887 24.54 466.08 24.5933 466.24 24.66L465.74 27.12ZM477.482 29.72C477.482 30.5467 477.362 31.3067 477.122 32C476.882 32.68 476.536 33.2667 476.082 33.76C475.629 34.24 475.082 34.6133 474.442 34.88C473.816 35.1467 473.109 35.28 472.322 35.28C471.549 35.28 470.842 35.1467 470.202 34.88C469.576 34.6133 469.036 34.24 468.582 33.76C468.129 33.2667 467.776 32.68 467.522 32C467.269 31.3067 467.142 30.5467 467.142 29.72C467.142 28.8933 467.269 28.14 467.522 27.46C467.789 26.78 468.149 26.2 468.602 25.72C469.069 25.24 469.616 24.8667 470.242 24.6C470.882 24.3333 471.576 24.2 472.322 24.2C473.082 24.2 473.776 24.3333 474.402 24.6C475.042 24.8667 475.589 25.24 476.042 25.72C476.496 26.2 476.849 26.78 477.102 27.46C477.356 28.14 477.482 28.8933 477.482 29.72ZM474.442 29.72C474.442 28.8 474.256 28.08 473.882 27.56C473.522 27.0267 473.002 26.76 472.322 26.76C471.642 26.76 471.116 27.0267 470.742 27.56C470.369 28.08 470.182 28.8 470.182 29.72C470.182 30.64 470.369 31.3733 470.742 31.92C471.116 32.4533 471.642 32.72 472.322 32.72C473.002 32.72 473.522 32.4533 473.882 31.92C474.256 31.3733 474.442 30.64 474.442 29.72ZM489.631 29.72C489.631 30.5467 489.511 31.3067 489.271 32C489.031 32.68 488.684 33.2667 488.231 33.76C487.777 34.24 487.231 34.6133 486.591 34.88C485.964 35.1467 485.257 35.28 484.471 35.28C483.697 35.28 482.991 35.1467 482.351 34.88C481.724 34.6133 481.184 34.24 480.731 33.76C480.277 33.2667 479.924 32.68 479.671 32C479.417 31.3067 479.291 30.5467 479.291 29.72C479.291 28.8933 479.417 28.14 479.671 27.46C479.937 26.78 480.297 26.2 480.751 25.72C481.217 25.24 481.764 24.8667 482.391 24.6C483.031 24.3333 483.724 24.2 484.471 24.2C485.231 24.2 485.924 24.3333 486.551 24.6C487.191 24.8667 487.737 25.24 488.191 25.72C488.644 26.2 488.997 26.78 489.251 27.46C489.504 28.14 489.631 28.8933 489.631 29.72ZM486.591 29.72C486.591 28.8 486.404 28.08 486.031 27.56C485.671 27.0267 485.151 26.76 484.471 26.76C483.791 26.76 483.264 27.0267 482.891 27.56C482.517 28.08 482.331 28.8 482.331 29.72C482.331 30.64 482.517 31.3733 482.891 31.92C483.264 32.4533 483.791 32.72 484.471 32.72C485.151 32.72 485.671 32.4533 486.031 31.92C486.404 31.3733 486.591 30.64 486.591 29.72ZM491.839 21.86L494.819 21.38V24.48H498.399V26.96H494.819V30.66C494.819 31.2867 494.926 31.7867 495.139 32.16C495.366 32.5333 495.812 32.72 496.479 32.72C496.799 32.72 497.126 32.6933 497.459 32.64C497.806 32.5733 498.119 32.4867 498.399 32.38L498.819 34.7C498.459 34.8467 498.059 34.9733 497.619 35.08C497.179 35.1867 496.639 35.24 495.999 35.24C495.186 35.24 494.512 35.1333 493.979 34.92C493.446 34.6933 493.019 34.3867 492.699 34C492.379 33.6 492.152 33.12 492.019 32.56C491.899 32 491.839 31.38 491.839 30.7V21.86ZM513.446 34.44C513.059 34.44 512.672 34.3933 512.286 34.3C511.899 34.2067 511.579 34.04 511.326 33.8C510.739 34.2133 509.999 34.42 509.106 34.42C508.439 34.42 507.826 34.32 507.266 34.12C506.719 33.9067 506.246 33.5933 505.846 33.18C505.459 32.7667 505.152 32.26 504.926 31.66C504.712 31.0467 504.606 30.34 504.606 29.54C504.606 28.86 504.712 28.2267 504.926 27.64C505.152 27.0533 505.479 26.5467 505.906 26.12C506.332 25.68 506.852 25.3333 507.466 25.08C508.092 24.8267 508.799 24.7 509.586 24.7C510.372 24.7 511.066 24.7733 511.666 24.92C512.279 25.0533 512.786 25.1933 513.186 25.34V31.62C513.186 31.9267 513.246 32.1333 513.366 32.24C513.499 32.3467 513.686 32.4 513.926 32.4C514.139 32.4 514.346 32.34 514.546 32.22C514.759 32.1 514.939 31.8867 515.086 31.58C515.232 31.26 515.352 30.8333 515.446 30.3C515.539 29.7533 515.586 29.0667 515.586 28.24C515.586 27.4133 515.439 26.66 515.146 25.98C514.866 25.2867 514.452 24.7 513.906 24.22C513.372 23.7267 512.712 23.3467 511.926 23.08C511.152 22.8 510.272 22.66 509.286 22.66C508.339 22.66 507.466 22.82 506.666 23.14C505.879 23.46 505.192 23.92 504.606 24.52C504.032 25.1067 503.579 25.8267 503.246 26.68C502.926 27.5333 502.766 28.4933 502.766 29.56C502.766 30.6667 502.926 31.64 503.246 32.48C503.566 33.3067 504.019 34 504.606 34.56C505.206 35.12 505.926 35.54 506.766 35.82C507.619 36.1133 508.579 36.26 509.646 36.26C510.312 36.26 510.939 36.2133 511.526 36.12C512.126 36.04 512.626 35.96 513.026 35.88L513.326 37.76C512.992 37.8667 512.486 37.98 511.806 38.1C511.126 38.22 510.406 38.28 509.646 38.28C508.366 38.28 507.166 38.1133 506.046 37.78C504.926 37.4467 503.946 36.9267 503.106 36.22C502.279 35.5133 501.626 34.6133 501.146 33.52C500.666 32.4133 500.426 31.0933 500.426 29.56C500.426 28.08 500.679 26.7867 501.186 25.68C501.692 24.56 502.359 23.6267 503.186 22.88C504.012 22.1333 504.952 21.5733 506.006 21.2C507.072 20.8267 508.166 20.64 509.286 20.64C510.512 20.64 511.652 20.8133 512.706 21.16C513.759 21.4933 514.666 21.9867 515.426 22.64C516.199 23.2933 516.806 24.1067 517.246 25.08C517.686 26.04 517.906 27.1467 517.906 28.4C517.906 29.3733 517.799 30.24 517.586 31C517.386 31.7467 517.086 32.3733 516.686 32.88C516.299 33.3867 515.832 33.7733 515.286 34.04C514.739 34.3067 514.126 34.44 513.446 34.44ZM510.626 32.06C510.599 31.9533 510.579 31.8 510.566 31.6C510.552 31.3867 510.546 31.1867 510.546 31V26.92C510.279 26.8667 509.999 26.84 509.706 26.84C509.266 26.84 508.892 26.9133 508.586 27.06C508.279 27.1933 508.032 27.38 507.846 27.62C507.659 27.86 507.519 28.1467 507.426 28.48C507.346 28.8 507.306 29.1533 507.306 29.54C507.306 29.9267 507.339 30.2867 507.406 30.62C507.472 30.94 507.586 31.22 507.746 31.46C507.919 31.7 508.146 31.8933 508.426 32.04C508.706 32.1733 509.052 32.24 509.466 32.24C509.706 32.24 509.932 32.2267 510.146 32.2C510.359 32.16 510.519 32.1133 510.626 32.06ZM523.278 28.28C523.572 27.96 523.872 27.6267 524.178 27.28C524.498 26.9333 524.805 26.5933 525.098 26.26C525.392 25.9133 525.665 25.5867 525.918 25.28C526.185 24.9733 526.412 24.7067 526.598 24.48H530.138C529.432 25.2933 528.738 26.0733 528.058 26.82C527.392 27.5533 526.658 28.3133 525.858 29.1C526.258 29.46 526.672 29.8933 527.098 30.4C527.525 30.8933 527.938 31.4067 528.338 31.94C528.738 32.4733 529.105 33.0067 529.438 33.54C529.772 34.0733 530.052 34.56 530.278 35H526.858C526.645 34.6533 526.398 34.2733 526.118 33.86C525.852 33.4333 525.565 33.0133 525.258 32.6C524.952 32.1733 524.625 31.7667 524.278 31.38C523.945 30.9933 523.612 30.6667 523.278 30.4V35H520.298V19.96L523.278 19.48V28.28ZM535.705 32.92C535.998 32.92 536.278 32.9133 536.545 32.9C536.812 32.8867 537.025 32.8667 537.185 32.84V30.58C537.065 30.5533 536.885 30.5267 536.645 30.5C536.405 30.4733 536.185 30.46 535.985 30.46C535.705 30.46 535.438 30.48 535.185 30.52C534.945 30.5467 534.732 30.6067 534.545 30.7C534.358 30.7933 534.212 30.92 534.105 31.08C533.998 31.24 533.945 31.44 533.945 31.68C533.945 32.1467 534.098 32.4733 534.405 32.66C534.725 32.8333 535.158 32.92 535.705 32.92ZM535.465 24.2C536.345 24.2 537.078 24.3 537.665 24.5C538.252 24.7 538.718 24.9867 539.065 25.36C539.425 25.7333 539.678 26.1867 539.825 26.72C539.972 27.2533 540.045 27.8467 540.045 28.5V34.7C539.618 34.7933 539.025 34.9 538.265 35.02C537.505 35.1533 536.585 35.22 535.505 35.22C534.825 35.22 534.205 35.16 533.645 35.04C533.098 34.92 532.625 34.7267 532.225 34.46C531.825 34.18 531.518 33.82 531.305 33.38C531.092 32.94 530.985 32.4 530.985 31.76C530.985 31.1467 531.105 30.6267 531.345 30.2C531.598 29.7733 531.932 29.4333 532.345 29.18C532.758 28.9267 533.232 28.7467 533.765 28.64C534.298 28.52 534.852 28.46 535.425 28.46C535.812 28.46 536.152 28.48 536.445 28.52C536.752 28.5467 536.998 28.5867 537.185 28.64V28.36C537.185 27.8533 537.032 27.4467 536.725 27.14C536.418 26.8333 535.885 26.68 535.125 26.68C534.618 26.68 534.118 26.72 533.625 26.8C533.132 26.8667 532.705 26.9667 532.345 27.1L531.965 24.7C532.138 24.6467 532.352 24.5933 532.605 24.54C532.872 24.4733 533.158 24.42 533.465 24.38C533.772 24.3267 534.092 24.2867 534.425 24.26C534.772 24.22 535.118 24.2 535.465 24.2ZM546.94 35.2C546.073 35.1867 545.367 35.0933 544.82 34.92C544.287 34.7467 543.86 34.5067 543.54 34.2C543.233 33.88 543.02 33.5 542.9 33.06C542.793 32.6067 542.74 32.1 542.74 31.54V19.96L545.72 19.48V30.94C545.72 31.2067 545.74 31.4467 545.78 31.66C545.82 31.8733 545.893 32.0533 546 32.2C546.12 32.3467 546.287 32.4667 546.5 32.56C546.713 32.6533 547 32.7133 547.36 32.74L546.94 35.2ZM552.048 35H549.068V24.48H552.048V35ZM552.328 21.44C552.328 21.9867 552.148 22.42 551.788 22.74C551.441 23.0467 551.028 23.2 550.548 23.2C550.068 23.2 549.648 23.0467 549.288 22.74C548.941 22.42 548.768 21.9867 548.768 21.44C548.768 20.8933 548.941 20.4667 549.288 20.16C549.648 19.84 550.068 19.68 550.548 19.68C551.028 19.68 551.441 19.84 551.788 20.16C552.148 20.4667 552.328 20.8933 552.328 21.44ZM557.769 26.32C557.769 26.92 557.576 27.38 557.189 27.7C556.816 28.0067 556.389 28.16 555.909 28.16C555.429 28.16 554.996 28.0067 554.609 27.7C554.236 27.38 554.049 26.92 554.049 26.32C554.049 25.72 554.236 25.2667 554.609 24.96C554.996 24.64 555.429 24.48 555.909 24.48C556.389 24.48 556.816 24.64 557.189 24.96C557.576 25.2667 557.769 25.72 557.769 26.32ZM557.769 33.42C557.769 34.02 557.576 34.48 557.189 34.8C556.816 35.1067 556.389 35.26 555.909 35.26C555.429 35.26 554.996 35.1067 554.609 34.8C554.236 34.48 554.049 34.02 554.049 33.42C554.049 32.82 554.236 32.3667 554.609 32.06C554.996 31.74 555.429 31.58 555.909 31.58C556.389 31.58 556.816 31.74 557.189 32.06C557.576 32.3667 557.769 32.82 557.769 33.42ZM570.896 31.08C570.496 31.08 570.116 31 569.756 30.84C569.409 30.68 569.069 30.5067 568.736 30.32C568.416 30.1333 568.102 29.96 567.796 29.8C567.502 29.64 567.209 29.56 566.916 29.56C566.809 29.56 566.696 29.5733 566.576 29.6C566.469 29.6267 566.362 29.6933 566.256 29.8C566.149 29.8933 566.042 30.04 565.936 30.24C565.842 30.4267 565.756 30.6867 565.676 31.02L563.636 30.46C563.702 30.0867 563.809 29.6933 563.956 29.28C564.102 28.8667 564.296 28.4867 564.536 28.14C564.789 27.7933 565.102 27.5067 565.476 27.28C565.849 27.0533 566.296 26.94 566.816 26.94C567.216 26.94 567.589 27.02 567.936 27.18C568.296 27.34 568.636 27.5133 568.956 27.7C569.289 27.8867 569.602 28.06 569.896 28.22C570.202 28.38 570.502 28.46 570.796 28.46C570.902 28.46 571.009 28.4467 571.116 28.42C571.236 28.3933 571.349 28.3333 571.456 28.24C571.562 28.1333 571.662 27.9867 571.756 27.8C571.862 27.6 571.956 27.3333 572.036 27L574.076 27.56C574.009 27.9333 573.902 28.3267 573.756 28.74C573.609 29.1533 573.409 29.5333 573.156 29.88C572.902 30.2267 572.589 30.5133 572.216 30.74C571.856 30.9667 571.416 31.08 570.896 31.08ZM577.103 38.7H574.043L580.763 19.34H583.783L577.103 38.7ZM587.993 32.46C588.14 32.4733 588.307 32.4867 588.493 32.5C588.693 32.5 588.927 32.5 589.193 32.5C590.753 32.5 591.907 32.1067 592.653 31.32C593.413 30.5333 593.793 29.4467 593.793 28.06C593.793 26.6067 593.433 25.5067 592.713 24.76C591.993 24.0133 590.853 23.64 589.293 23.64C589.08 23.64 588.86 23.6467 588.633 23.66C588.407 23.66 588.193 23.6733 587.993 23.7V32.46ZM597.013 28.06C597.013 29.26 596.827 30.3067 596.453 31.2C596.08 32.0933 595.547 32.8333 594.853 33.42C594.173 34.0067 593.34 34.4467 592.353 34.74C591.367 35.0333 590.26 35.18 589.033 35.18C588.473 35.18 587.82 35.1533 587.073 35.1C586.327 35.06 585.593 34.9667 584.873 34.82V21.32C585.593 21.1867 586.34 21.1 587.113 21.06C587.9 21.0067 588.573 20.98 589.133 20.98C590.32 20.98 591.393 21.1133 592.353 21.38C593.327 21.6467 594.16 22.0667 594.853 22.64C595.547 23.2133 596.08 23.9467 596.453 24.84C596.827 25.7333 597.013 26.8067 597.013 28.06ZM598.92 29.82C598.92 28.8867 599.06 28.0733 599.34 27.38C599.633 26.6733 600.013 26.0867 600.48 25.62C600.946 25.1533 601.48 24.8 602.08 24.56C602.693 24.32 603.32 24.2 603.96 24.2C605.453 24.2 606.633 24.66 607.5 25.58C608.366 26.4867 608.8 27.8267 608.8 29.6C608.8 29.7733 608.793 29.9667 608.78 30.18C608.766 30.38 608.753 30.56 608.74 30.72H601.98C602.046 31.3333 602.333 31.82 602.84 32.18C603.346 32.54 604.026 32.72 604.88 32.72C605.426 32.72 605.96 32.6733 606.48 32.58C607.013 32.4733 607.446 32.3467 607.78 32.2L608.18 34.62C608.02 34.7 607.806 34.78 607.54 34.86C607.273 34.94 606.973 35.0067 606.64 35.06C606.32 35.1267 605.973 35.18 605.6 35.22C605.226 35.26 604.853 35.28 604.48 35.28C603.533 35.28 602.706 35.14 602 34.86C601.306 34.58 600.726 34.2 600.26 33.72C599.806 33.2267 599.466 32.6467 599.24 31.98C599.026 31.3133 598.92 30.5933 598.92 29.82ZM605.92 28.68C605.906 28.4267 605.86 28.18 605.78 27.94C605.713 27.7 605.6 27.4867 605.44 27.3C605.293 27.1133 605.1 26.96 604.86 26.84C604.633 26.72 604.346 26.66 604 26.66C603.666 26.66 603.38 26.72 603.14 26.84C602.9 26.9467 602.7 27.0933 602.54 27.28C602.38 27.4667 602.253 27.6867 602.16 27.94C602.08 28.18 602.02 28.4267 601.98 28.68H605.92ZM614.119 32.86C614.666 32.86 615.053 32.8067 615.279 32.7C615.506 32.5933 615.619 32.3867 615.619 32.08C615.619 31.84 615.473 31.6333 615.179 31.46C614.886 31.2733 614.439 31.0667 613.839 30.84C613.373 30.6667 612.946 30.4867 612.559 30.3C612.186 30.1133 611.866 29.8933 611.599 29.64C611.333 29.3733 611.126 29.06 610.979 28.7C610.833 28.34 610.759 27.9067 610.759 27.4C610.759 26.4133 611.126 25.6333 611.859 25.06C612.593 24.4867 613.599 24.2 614.879 24.2C615.519 24.2 616.133 24.26 616.719 24.38C617.306 24.4867 617.773 24.6067 618.119 24.74L617.599 27.06C617.253 26.94 616.873 26.8333 616.459 26.74C616.059 26.6467 615.606 26.6 615.099 26.6C614.166 26.6 613.699 26.86 613.699 27.38C613.699 27.5 613.719 27.6067 613.759 27.7C613.799 27.7933 613.879 27.8867 613.999 27.98C614.119 28.06 614.279 28.1533 614.479 28.26C614.693 28.3533 614.959 28.46 615.279 28.58C615.933 28.82 616.473 29.06 616.899 29.3C617.326 29.5267 617.659 29.78 617.899 30.06C618.153 30.3267 618.326 30.6267 618.419 30.96C618.526 31.2933 618.579 31.68 618.579 32.12C618.579 33.16 618.186 33.9467 617.399 34.48C616.626 35.0133 615.526 35.28 614.099 35.28C613.166 35.28 612.386 35.2 611.759 35.04C611.146 34.88 610.719 34.7467 610.479 34.64L610.979 32.22C611.486 32.42 612.006 32.58 612.539 32.7C613.073 32.8067 613.599 32.86 614.119 32.86ZM623.786 28.28C624.08 27.96 624.38 27.6267 624.686 27.28C625.006 26.9333 625.313 26.5933 625.606 26.26C625.9 25.9133 626.173 25.5867 626.426 25.28C626.693 24.9733 626.92 24.7067 627.106 24.48H630.646C629.94 25.2933 629.246 26.0733 628.566 26.82C627.9 27.5533 627.166 28.3133 626.366 29.1C626.766 29.46 627.18 29.8933 627.606 30.4C628.033 30.8933 628.446 31.4067 628.846 31.94C629.246 32.4733 629.613 33.0067 629.946 33.54C630.28 34.0733 630.56 34.56 630.786 35H627.366C627.153 34.6533 626.906 34.2733 626.626 33.86C626.36 33.4333 626.073 33.0133 625.766 32.6C625.46 32.1733 625.133 31.7667 624.786 31.38C624.453 30.9933 624.12 30.6667 623.786 30.4V35H620.806V19.96L623.786 19.48V28.28ZM632.132 21.86L635.112 21.38V24.48H638.692V26.96H635.112V30.66C635.112 31.2867 635.219 31.7867 635.432 32.16C635.659 32.5333 636.105 32.72 636.772 32.72C637.092 32.72 637.419 32.6933 637.752 32.64C638.099 32.5733 638.412 32.4867 638.692 32.38L639.112 34.7C638.752 34.8467 638.352 34.9733 637.912 35.08C637.472 35.1867 636.932 35.24 636.292 35.24C635.479 35.24 634.805 35.1333 634.272 34.92C633.739 34.6933 633.312 34.3867 632.992 34C632.672 33.6 632.445 33.12 632.312 32.56C632.192 32 632.132 31.38 632.132 30.7V21.86ZM650.568 29.72C650.568 30.5467 650.448 31.3067 650.208 32C649.968 32.68 649.621 33.2667 649.168 33.76C648.715 34.24 648.168 34.6133 647.528 34.88C646.901 35.1467 646.195 35.28 645.408 35.28C644.635 35.28 643.928 35.1467 643.288 34.88C642.661 34.6133 642.121 34.24 641.668 33.76C641.215 33.2667 640.861 32.68 640.608 32C640.355 31.3067 640.228 30.5467 640.228 29.72C640.228 28.8933 640.355 28.14 640.608 27.46C640.875 26.78 641.235 26.2 641.688 25.72C642.155 25.24 642.701 24.8667 643.328 24.6C643.968 24.3333 644.661 24.2 645.408 24.2C646.168 24.2 646.861 24.3333 647.488 24.6C648.128 24.8667 648.675 25.24 649.128 25.72C649.581 26.2 649.935 26.78 650.188 27.46C650.441 28.14 650.568 28.8933 650.568 29.72ZM647.528 29.72C647.528 28.8 647.341 28.08 646.968 27.56C646.608 27.0267 646.088 26.76 645.408 26.76C644.728 26.76 644.201 27.0267 643.828 27.56C643.455 28.08 643.268 28.8 643.268 29.72C643.268 30.64 643.455 31.3733 643.828 31.92C644.201 32.4533 644.728 32.72 645.408 32.72C646.088 32.72 646.608 32.4533 646.968 31.92C647.341 31.3733 647.528 30.64 647.528 29.72ZM659.617 29.82C659.617 28.9 659.41 28.1667 658.997 27.62C658.583 27.06 657.97 26.78 657.157 26.78C656.89 26.78 656.643 26.7933 656.417 26.82C656.19 26.8333 656.003 26.8533 655.857 26.88V32.26C656.043 32.38 656.283 32.48 656.577 32.56C656.883 32.64 657.19 32.68 657.497 32.68C658.91 32.68 659.617 31.7267 659.617 29.82ZM662.657 29.74C662.657 30.5533 662.557 31.2933 662.357 31.96C662.157 32.6267 661.863 33.2 661.477 33.68C661.09 34.16 660.61 34.5333 660.037 34.8C659.463 35.0667 658.803 35.2 658.057 35.2C657.643 35.2 657.257 35.16 656.897 35.08C656.537 35 656.19 34.8867 655.857 34.74V38.7H652.877V24.84C653.143 24.76 653.45 24.6867 653.797 24.62C654.143 24.54 654.503 24.4733 654.877 24.42C655.263 24.3667 655.65 24.3267 656.037 24.3C656.437 24.26 656.817 24.24 657.177 24.24C658.043 24.24 658.817 24.3733 659.497 24.64C660.177 24.8933 660.75 25.26 661.217 25.74C661.683 26.2067 662.037 26.78 662.277 27.46C662.53 28.14 662.657 28.9 662.657 29.74ZM665.54 38.7H662.48L669.2 19.34H672.22L665.54 38.7ZM673.443 35V19.96L676.423 19.48V24.52C676.623 24.4533 676.876 24.3933 677.183 24.34C677.503 24.2733 677.81 24.24 678.103 24.24C678.956 24.24 679.663 24.36 680.223 24.6C680.796 24.8267 681.25 25.1533 681.583 25.58C681.93 26.0067 682.17 26.5133 682.303 27.1C682.45 27.6867 682.523 28.34 682.523 29.06V35H679.543V29.42C679.543 28.46 679.416 27.78 679.163 27.38C678.923 26.98 678.47 26.78 677.803 26.78C677.536 26.78 677.283 26.8067 677.043 26.86C676.816 26.9 676.61 26.9467 676.423 27V35H673.443ZM689.24 32.92C689.534 32.92 689.814 32.9133 690.08 32.9C690.347 32.8867 690.56 32.8667 690.72 32.84V30.58C690.6 30.5533 690.42 30.5267 690.18 30.5C689.94 30.4733 689.72 30.46 689.52 30.46C689.24 30.46 688.974 30.48 688.72 30.52C688.48 30.5467 688.267 30.6067 688.08 30.7C687.894 30.7933 687.747 30.92 687.64 31.08C687.534 31.24 687.48 31.44 687.48 31.68C687.48 32.1467 687.634 32.4733 687.94 32.66C688.26 32.8333 688.694 32.92 689.24 32.92ZM689 24.2C689.88 24.2 690.614 24.3 691.2 24.5C691.787 24.7 692.254 24.9867 692.6 25.36C692.96 25.7333 693.214 26.1867 693.36 26.72C693.507 27.2533 693.58 27.8467 693.58 28.5V34.7C693.154 34.7933 692.56 34.9 691.8 35.02C691.04 35.1533 690.12 35.22 689.04 35.22C688.36 35.22 687.74 35.16 687.18 35.04C686.634 34.92 686.16 34.7267 685.76 34.46C685.36 34.18 685.054 33.82 684.84 33.38C684.627 32.94 684.52 32.4 684.52 31.76C684.52 31.1467 684.64 30.6267 684.88 30.2C685.134 29.7733 685.467 29.4333 685.88 29.18C686.294 28.9267 686.767 28.7467 687.3 28.64C687.834 28.52 688.387 28.46 688.96 28.46C689.347 28.46 689.687 28.48 689.98 28.52C690.287 28.5467 690.534 28.5867 690.72 28.64V28.36C690.72 27.8533 690.567 27.4467 690.26 27.14C689.954 26.8333 689.42 26.68 688.66 26.68C688.154 26.68 687.654 26.72 687.16 26.8C686.667 26.8667 686.24 26.9667 685.88 27.1L685.5 24.7C685.674 24.6467 685.887 24.5933 686.14 24.54C686.407 24.4733 686.694 24.42 687 24.38C687.307 24.3267 687.627 24.2867 687.96 24.26C688.307 24.22 688.654 24.2 689 24.2ZM695.775 29.74C695.775 28.98 695.895 28.2667 696.135 27.6C696.388 26.92 696.748 26.3333 697.215 25.84C697.682 25.3333 698.248 24.9333 698.915 24.64C699.582 24.3467 700.342 24.2 701.195 24.2C701.755 24.2 702.268 24.2533 702.735 24.36C703.202 24.4533 703.655 24.5933 704.095 24.78L703.475 27.16C703.195 27.0533 702.888 26.96 702.555 26.88C702.222 26.8 701.848 26.76 701.435 26.76C700.555 26.76 699.895 27.0333 699.455 27.58C699.028 28.1267 698.815 28.8467 698.815 29.74C698.815 30.6867 699.015 31.42 699.415 31.94C699.828 32.46 700.542 32.72 701.555 32.72C701.915 32.72 702.302 32.6867 702.715 32.62C703.128 32.5533 703.508 32.4467 703.855 32.3L704.275 34.74C703.928 34.8867 703.495 35.0133 702.975 35.12C702.455 35.2267 701.882 35.28 701.255 35.28C700.295 35.28 699.468 35.14 698.775 34.86C698.082 34.5667 697.508 34.1733 697.055 33.68C696.615 33.1867 696.288 32.6067 696.075 31.94C695.875 31.26 695.775 30.5267 695.775 29.74ZM709.255 28.28C709.548 27.96 709.848 27.6267 710.155 27.28C710.475 26.9333 710.782 26.5933 711.075 26.26C711.368 25.9133 711.642 25.5867 711.895 25.28C712.162 24.9733 712.388 24.7067 712.575 24.48H716.115C715.408 25.2933 714.715 26.0733 714.035 26.82C713.368 27.5533 712.635 28.3133 711.835 29.1C712.235 29.46 712.648 29.8933 713.075 30.4C713.502 30.8933 713.915 31.4067 714.315 31.94C714.715 32.4733 715.082 33.0067 715.415 33.54C715.748 34.0733 716.028 34.56 716.255 35H712.835C712.622 34.6533 712.375 34.2733 712.095 33.86C711.828 33.4333 711.542 33.0133 711.235 32.6C710.928 32.1733 710.602 31.7667 710.255 31.38C709.922 30.9933 709.588 30.6667 709.255 30.4V35H706.275V19.96L709.255 19.48V28.28ZM721.011 33.42C721.011 34.02 720.818 34.48 720.431 34.8C720.058 35.1067 719.631 35.26 719.151 35.26C718.671 35.26 718.238 35.1067 717.851 34.8C717.478 34.48 717.291 34.02 717.291 33.42C717.291 32.82 717.478 32.3667 717.851 32.06C718.238 31.74 718.671 31.58 719.151 31.58C719.631 31.58 720.058 31.74 720.431 32.06C720.818 32.3667 721.011 32.82 721.011 33.42ZM729.753 29.82C729.753 28.9 729.547 28.1667 729.133 27.62C728.72 27.06 728.107 26.78 727.293 26.78C727.027 26.78 726.78 26.7933 726.553 26.82C726.327 26.8333 726.14 26.8533 725.993 26.88V32.26C726.18 32.38 726.42 32.48 726.713 32.56C727.02 32.64 727.327 32.68 727.633 32.68C729.047 32.68 729.753 31.7267 729.753 29.82ZM732.793 29.74C732.793 30.5533 732.693 31.2933 732.493 31.96C732.293 32.6267 732 33.2 731.613 33.68C731.227 34.16 730.747 34.5333 730.173 34.8C729.6 35.0667 728.94 35.2 728.193 35.2C727.78 35.2 727.393 35.16 727.033 35.08C726.673 35 726.327 34.8867 725.993 34.74V38.7H723.013V24.84C723.28 24.76 723.587 24.6867 723.933 24.62C724.28 24.54 724.64 24.4733 725.013 24.42C725.4 24.3667 725.787 24.3267 726.173 24.3C726.573 24.26 726.953 24.24 727.313 24.24C728.18 24.24 728.953 24.3733 729.633 24.64C730.313 24.8933 730.887 25.26 731.353 25.74C731.82 26.2067 732.173 26.78 732.413 27.46C732.667 28.14 732.793 28.9 732.793 29.74ZM744.15 24.48C743.55 26.5067 742.923 28.4067 742.27 30.18C741.617 31.9533 740.903 33.6733 740.13 35.34C739.85 35.94 739.57 36.4467 739.29 36.86C739.01 37.2867 738.703 37.6333 738.37 37.9C738.037 38.18 737.657 38.38 737.23 38.5C736.817 38.6333 736.33 38.7 735.77 38.7C735.303 38.7 734.87 38.6533 734.47 38.56C734.083 38.48 733.763 38.3867 733.51 38.28L734.03 35.9C734.337 36.0067 734.61 36.08 734.85 36.12C735.09 36.16 735.343 36.18 735.61 36.18C736.143 36.18 736.55 36.0333 736.83 35.74C737.123 35.46 737.37 35.0667 737.57 34.56C736.89 33.2267 736.21 31.7333 735.53 30.08C734.85 28.4133 734.21 26.5467 733.61 24.48H736.77C736.903 25 737.057 25.5667 737.23 26.18C737.417 26.78 737.61 27.3933 737.81 28.02C738.01 28.6333 738.21 29.2333 738.41 29.82C738.623 30.4067 738.823 30.94 739.01 31.42C739.183 30.94 739.363 30.4067 739.55 29.82C739.737 29.2333 739.917 28.6333 740.09 28.02C740.277 27.3933 740.45 26.78 740.61 26.18C740.783 25.5667 740.937 25 741.07 24.48H744.15Z" fill="white"/>
<path d="M35.6 98V84.14H44.88V86.76H38.72V89.66H44.2V92.28H38.72V98H35.6ZM49.8644 98H46.8844V87.48H49.8644V98ZM50.1444 84.44C50.1444 84.9867 49.9644 85.42 49.6044 85.74C49.2577 86.0467 48.8444 86.2 48.3644 86.2C47.8844 86.2 47.4644 86.0467 47.1044 85.74C46.7577 85.42 46.5844 84.9867 46.5844 84.44C46.5844 83.8933 46.7577 83.4667 47.1044 83.16C47.4644 82.84 47.8844 82.68 48.3644 82.68C48.8444 82.68 49.2577 82.84 49.6044 83.16C49.9644 83.4667 50.1444 83.8933 50.1444 84.44ZM56.8656 98.2C55.999 98.1867 55.2923 98.0933 54.7456 97.92C54.2123 97.7467 53.7856 97.5067 53.4656 97.2C53.159 96.88 52.9456 96.5 52.8256 96.06C52.719 95.6067 52.6656 95.1 52.6656 94.54V82.96L55.6456 82.48V93.94C55.6456 94.2067 55.6656 94.4467 55.7056 94.66C55.7456 94.8733 55.819 95.0533 55.9256 95.2C56.0456 95.3467 56.2123 95.4667 56.4256 95.56C56.639 95.6533 56.9256 95.7133 57.2856 95.74L56.8656 98.2ZM58.4938 92.82C58.4938 91.8867 58.6338 91.0733 58.9137 90.38C59.2071 89.6733 59.5871 89.0867 60.0538 88.62C60.5204 88.1533 61.0538 87.8 61.6538 87.56C62.2671 87.32 62.8938 87.2 63.5338 87.2C65.0271 87.2 66.2071 87.66 67.0738 88.58C67.9404 89.4867 68.3738 90.8267 68.3738 92.6C68.3738 92.7733 68.3671 92.9667 68.3538 93.18C68.3404 93.38 68.3271 93.56 68.3138 93.72H61.5538C61.6204 94.3333 61.9071 94.82 62.4138 95.18C62.9204 95.54 63.6004 95.72 64.4538 95.72C65.0004 95.72 65.5338 95.6733 66.0538 95.58C66.5871 95.4733 67.0204 95.3467 67.3538 95.2L67.7538 97.62C67.5938 97.7 67.3804 97.78 67.1138 97.86C66.8471 97.94 66.5471 98.0067 66.2138 98.06C65.8938 98.1267 65.5471 98.18 65.1738 98.22C64.8004 98.26 64.4271 98.28 64.0538 98.28C63.1071 98.28 62.2804 98.14 61.5738 97.86C60.8804 97.58 60.3004 97.2 59.8338 96.72C59.3804 96.2267 59.0404 95.6467 58.8138 94.98C58.6004 94.3133 58.4938 93.5933 58.4938 92.82ZM65.4938 91.68C65.4804 91.4267 65.4338 91.18 65.3538 90.94C65.2871 90.7 65.1738 90.4867 65.0138 90.3C64.8671 90.1133 64.6738 89.96 64.4338 89.84C64.2071 89.72 63.9204 89.66 63.5738 89.66C63.2404 89.66 62.9538 89.72 62.7138 89.84C62.4738 89.9467 62.2738 90.0933 62.1138 90.28C61.9538 90.4667 61.8271 90.6867 61.7338 90.94C61.6538 91.18 61.5938 91.4267 61.5538 91.68H65.4938Z" fill="white"/>
<path d="M109.6 98V84.14H118.96V86.76H112.72V89.48H118.26V92.04H112.72V95.38H119.42V98H109.6ZM123.835 92.66C123.835 93.58 124.041 94.32 124.455 94.88C124.868 95.44 125.481 95.72 126.295 95.72C126.561 95.72 126.808 95.7133 127.035 95.7C127.261 95.6733 127.448 95.6467 127.595 95.62V90.2C127.408 90.08 127.161 89.98 126.855 89.9C126.561 89.82 126.261 89.78 125.955 89.78C124.541 89.78 123.835 90.74 123.835 92.66ZM130.575 97.66C130.308 97.74 130.001 97.82 129.655 97.9C129.308 97.9667 128.941 98.0267 128.555 98.08C128.181 98.1333 127.795 98.1733 127.395 98.2C127.008 98.24 126.635 98.26 126.275 98.26C125.408 98.26 124.635 98.1333 123.955 97.88C123.275 97.6267 122.701 97.2667 122.235 96.8C121.768 96.32 121.408 95.7467 121.155 95.08C120.915 94.4 120.795 93.64 120.795 92.8C120.795 91.9467 120.901 91.18 121.115 90.5C121.328 89.8067 121.635 89.22 122.035 88.74C122.435 88.26 122.921 87.8933 123.495 87.64C124.081 87.3867 124.748 87.26 125.495 87.26C125.908 87.26 126.275 87.3 126.595 87.38C126.928 87.46 127.261 87.5733 127.595 87.72V82.96L130.575 82.48V97.66ZM136.345 98H133.365V87.48H136.345V98ZM136.625 84.44C136.625 84.9867 136.445 85.42 136.085 85.74C135.738 86.0467 135.325 86.2 134.845 86.2C134.365 86.2 133.945 86.0467 133.585 85.74C133.238 85.42 133.065 84.9867 133.065 84.44C133.065 83.8933 133.238 83.4667 133.585 83.16C133.945 82.84 134.365 82.68 134.845 82.68C135.325 82.68 135.738 82.84 136.085 83.16C136.445 83.4667 136.625 83.8933 136.625 84.44ZM139.046 84.86L142.026 84.38V87.48H145.606V89.96H142.026V93.66C142.026 94.2867 142.133 94.7867 142.346 95.16C142.573 95.5333 143.019 95.72 143.686 95.72C144.006 95.72 144.333 95.6933 144.666 95.64C145.013 95.5733 145.326 95.4867 145.606 95.38L146.026 97.7C145.666 97.8467 145.266 97.9733 144.826 98.08C144.386 98.1867 143.846 98.24 143.206 98.24C142.393 98.24 141.719 98.1333 141.186 97.92C140.653 97.6933 140.226 97.3867 139.906 97C139.586 96.6 139.359 96.12 139.226 95.56C139.106 95 139.046 94.38 139.046 93.7V84.86Z" fill="white"/>
<path d="M183.72 98C183.173 96.84 182.633 95.6333 182.1 94.38C181.567 93.1267 181.06 91.8867 180.58 90.66C180.1 89.4333 179.653 88.26 179.24 87.14C178.84 86.02 178.493 85.02 178.2 84.14H181.64C181.907 84.94 182.193 85.8067 182.5 86.74C182.82 87.66 183.14 88.58 183.46 89.5C183.793 90.42 184.113 91.3 184.42 92.14C184.727 92.98 185.013 93.7067 185.28 94.32C185.533 93.7067 185.813 92.98 186.12 92.14C186.44 91.3 186.76 90.42 187.08 89.5C187.413 88.58 187.733 87.66 188.04 86.74C188.36 85.8067 188.653 84.94 188.92 84.14H192.24C191.933 85.02 191.58 86.02 191.18 87.14C190.78 88.26 190.34 89.4333 189.86 90.66C189.38 91.8867 188.873 93.1267 188.34 94.38C187.807 95.6333 187.267 96.84 186.72 98H183.72ZM196.814 98H193.834V87.48H196.814V98ZM197.094 84.44C197.094 84.9867 196.914 85.42 196.554 85.74C196.207 86.0467 195.794 86.2 195.314 86.2C194.834 86.2 194.414 86.0467 194.054 85.74C193.707 85.42 193.534 84.9867 193.534 84.44C193.534 83.8933 193.707 83.4667 194.054 83.16C194.414 82.84 194.834 82.68 195.314 82.68C195.794 82.68 196.207 82.84 196.554 83.16C196.914 83.4667 197.094 83.8933 197.094 84.44ZM199.115 92.82C199.115 91.8867 199.255 91.0733 199.535 90.38C199.828 89.6733 200.208 89.0867 200.675 88.62C201.142 88.1533 201.675 87.8 202.275 87.56C202.888 87.32 203.515 87.2 204.155 87.2C205.648 87.2 206.828 87.66 207.695 88.58C208.562 89.4867 208.995 90.8267 208.995 92.6C208.995 92.7733 208.988 92.9667 208.975 93.18C208.962 93.38 208.948 93.56 208.935 93.72H202.175C202.242 94.3333 202.528 94.82 203.035 95.18C203.542 95.54 204.222 95.72 205.075 95.72C205.622 95.72 206.155 95.6733 206.675 95.58C207.208 95.4733 207.642 95.3467 207.975 95.2L208.375 97.62C208.215 97.7 208.002 97.78 207.735 97.86C207.468 97.94 207.168 98.0067 206.835 98.06C206.515 98.1267 206.168 98.18 205.795 98.22C205.422 98.26 205.048 98.28 204.675 98.28C203.728 98.28 202.902 98.14 202.195 97.86C201.502 97.58 200.922 97.2 200.455 96.72C200.002 96.2267 199.662 95.6467 199.435 94.98C199.222 94.3133 199.115 93.5933 199.115 92.82ZM206.115 91.68C206.102 91.4267 206.055 91.18 205.975 90.94C205.908 90.7 205.795 90.4867 205.635 90.3C205.488 90.1133 205.295 89.96 205.055 89.84C204.828 89.72 204.542 89.66 204.195 89.66C203.862 89.66 203.575 89.72 203.335 89.84C203.095 89.9467 202.895 90.0933 202.735 90.28C202.575 90.4667 202.448 90.6867 202.355 90.94C202.275 91.18 202.215 91.4267 202.175 91.68H206.115ZM217.695 91.96C217.428 92.9733 217.141 93.98 216.835 94.98C216.541 95.98 216.228 96.9867 215.895 98H213.575C213.335 97.44 213.075 96.7733 212.795 96C212.515 95.2267 212.221 94.3867 211.915 93.48C211.621 92.56 211.315 91.5933 210.995 90.58C210.688 89.5533 210.388 88.52 210.095 87.48H213.235C213.341 87.96 213.455 88.4867 213.575 89.06C213.708 89.62 213.841 90.2 213.975 90.8C214.121 91.4 214.268 92.0067 214.415 92.62C214.575 93.22 214.735 93.8 214.895 94.36C215.068 93.7733 215.235 93.1733 215.395 92.56C215.568 91.9467 215.728 91.3467 215.875 90.76C216.035 90.16 216.181 89.5867 216.315 89.04C216.461 88.48 216.588 87.96 216.695 87.48H218.855C218.961 87.96 219.081 88.48 219.215 89.04C219.348 89.5867 219.488 90.16 219.635 90.76C219.781 91.3467 219.935 91.9467 220.095 92.56C220.255 93.1733 220.421 93.7733 220.595 94.36C220.755 93.8 220.915 93.22 221.075 92.62C221.235 92.0067 221.381 91.4 221.515 90.8C221.661 90.2 221.795 89.62 221.915 89.06C222.048 88.4867 222.168 87.96 222.275 87.48H225.375C225.081 88.52 224.775 89.5533 224.455 90.58C224.148 91.5933 223.841 92.56 223.535 93.48C223.241 94.3867 222.948 95.2267 222.655 96C222.375 96.7733 222.115 97.44 221.875 98H219.555C219.221 96.9867 218.895 95.98 218.575 94.98C218.255 93.98 217.961 92.9733 217.695 91.96Z" fill="white"/>
<path d="M258.38 95.62C258.82 95.62 259.18 95.5867 259.46 95.52C259.753 95.44 259.987 95.34 260.16 95.22C260.333 95.0867 260.453 94.9333 260.52 94.76C260.587 94.5867 260.62 94.3933 260.62 94.18C260.62 93.7267 260.407 93.3533 259.98 93.06C259.553 92.7533 258.82 92.4267 257.78 92.08C257.327 91.92 256.873 91.74 256.42 91.54C255.967 91.3267 255.56 91.0667 255.2 90.76C254.84 90.44 254.547 90.06 254.32 89.62C254.093 89.1667 253.98 88.62 253.98 87.98C253.98 87.34 254.1 86.7667 254.34 86.26C254.58 85.74 254.92 85.3 255.36 84.94C255.8 84.58 256.333 84.3067 256.96 84.12C257.587 83.92 258.293 83.82 259.08 83.82C260.013 83.82 260.82 83.92 261.5 84.12C262.18 84.32 262.74 84.54 263.18 84.78L262.28 87.24C261.893 87.04 261.46 86.8667 260.98 86.72C260.513 86.56 259.947 86.48 259.28 86.48C258.533 86.48 257.993 86.5867 257.66 86.8C257.34 87 257.18 87.3133 257.18 87.74C257.18 87.9933 257.24 88.2067 257.36 88.38C257.48 88.5533 257.647 88.7133 257.86 88.86C258.087 88.9933 258.34 89.12 258.62 89.24C258.913 89.3467 259.233 89.46 259.58 89.58C260.3 89.8467 260.927 90.1133 261.46 90.38C261.993 90.6333 262.433 90.9333 262.78 91.28C263.14 91.6267 263.407 92.0333 263.58 92.5C263.753 92.9667 263.84 93.5333 263.84 94.2C263.84 95.4933 263.387 96.5 262.48 97.22C261.573 97.9267 260.207 98.28 258.38 98.28C257.767 98.28 257.213 98.24 256.72 98.16C256.227 98.0933 255.787 98.0067 255.4 97.9C255.027 97.7933 254.7 97.68 254.42 97.56C254.153 97.44 253.927 97.3267 253.74 97.22L254.62 94.74C255.033 94.9667 255.54 95.1733 256.14 95.36C256.753 95.5333 257.5 95.62 258.38 95.62ZM265.541 92.82C265.541 91.8867 265.681 91.0733 265.961 90.38C266.254 89.6733 266.634 89.0867 267.101 88.62C267.567 88.1533 268.101 87.8 268.701 87.56C269.314 87.32 269.941 87.2 270.581 87.2C272.074 87.2 273.254 87.66 274.121 88.58C274.987 89.4867 275.421 90.8267 275.421 92.6C275.421 92.7733 275.414 92.9667 275.401 93.18C275.387 93.38 275.374 93.56 275.361 93.72H268.601C268.667 94.3333 268.954 94.82 269.461 95.18C269.967 95.54 270.647 95.72 271.501 95.72C272.047 95.72 272.581 95.6733 273.101 95.58C273.634 95.4733 274.067 95.3467 274.401 95.2L274.801 97.62C274.641 97.7 274.427 97.78 274.161 97.86C273.894 97.94 273.594 98.0067 273.261 98.06C272.941 98.1267 272.594 98.18 272.221 98.22C271.847 98.26 271.474 98.28 271.101 98.28C270.154 98.28 269.327 98.14 268.621 97.86C267.927 97.58 267.347 97.2 266.881 96.72C266.427 96.2267 266.087 95.6467 265.861 94.98C265.647 94.3133 265.541 93.5933 265.541 92.82ZM272.541 91.68C272.527 91.4267 272.481 91.18 272.401 90.94C272.334 90.7 272.221 90.4867 272.061 90.3C271.914 90.1133 271.721 89.96 271.481 89.84C271.254 89.72 270.967 89.66 270.621 89.66C270.287 89.66 270.001 89.72 269.761 89.84C269.521 89.9467 269.321 90.0933 269.161 90.28C269.001 90.4667 268.874 90.6867 268.781 90.94C268.701 91.18 268.641 91.4267 268.601 91.68H272.541ZM281.74 95.92C282.034 95.92 282.314 95.9133 282.58 95.9C282.847 95.8867 283.06 95.8667 283.22 95.84V93.58C283.1 93.5533 282.92 93.5267 282.68 93.5C282.44 93.4733 282.22 93.46 282.02 93.46C281.74 93.46 281.474 93.48 281.22 93.52C280.98 93.5467 280.767 93.6067 280.58 93.7C280.394 93.7933 280.247 93.92 280.14 94.08C280.034 94.24 279.98 94.44 279.98 94.68C279.98 95.1467 280.134 95.4733 280.44 95.66C280.76 95.8333 281.194 95.92 281.74 95.92ZM281.5 87.2C282.38 87.2 283.114 87.3 283.7 87.5C284.287 87.7 284.754 87.9867 285.1 88.36C285.46 88.7333 285.714 89.1867 285.86 89.72C286.007 90.2533 286.08 90.8467 286.08 91.5V97.7C285.654 97.7933 285.06 97.9 284.3 98.02C283.54 98.1533 282.62 98.22 281.54 98.22C280.86 98.22 280.24 98.16 279.68 98.04C279.134 97.92 278.66 97.7267 278.26 97.46C277.86 97.18 277.554 96.82 277.34 96.38C277.127 95.94 277.02 95.4 277.02 94.76C277.02 94.1467 277.14 93.6267 277.38 93.2C277.634 92.7733 277.967 92.4333 278.38 92.18C278.794 91.9267 279.267 91.7467 279.8 91.64C280.334 91.52 280.887 91.46 281.46 91.46C281.847 91.46 282.187 91.48 282.48 91.52C282.787 91.5467 283.034 91.5867 283.22 91.64V91.36C283.22 90.8533 283.067 90.4467 282.76 90.14C282.454 89.8333 281.92 89.68 281.16 89.68C280.654 89.68 280.154 89.72 279.66 89.8C279.167 89.8667 278.74 89.9667 278.38 90.1L278 87.7C278.174 87.6467 278.387 87.5933 278.64 87.54C278.907 87.4733 279.194 87.42 279.5 87.38C279.807 87.3267 280.127 87.2867 280.46 87.26C280.807 87.22 281.154 87.2 281.5 87.2ZM295.115 90.12C294.848 90.0533 294.535 89.9867 294.175 89.92C293.815 89.84 293.428 89.8 293.015 89.8C292.828 89.8 292.602 89.82 292.335 89.86C292.082 89.8867 291.888 89.92 291.755 89.96V98H288.775V88.04C289.308 87.8533 289.935 87.68 290.655 87.52C291.388 87.3467 292.202 87.26 293.095 87.26C293.255 87.26 293.448 87.2733 293.675 87.3C293.902 87.3133 294.128 87.34 294.355 87.38C294.582 87.4067 294.808 87.4467 295.035 87.5C295.262 87.54 295.455 87.5933 295.615 87.66L295.115 90.12ZM296.517 92.74C296.517 91.98 296.637 91.2667 296.877 90.6C297.131 89.92 297.491 89.3333 297.957 88.84C298.424 88.3333 298.991 87.9333 299.657 87.64C300.324 87.3467 301.084 87.2 301.937 87.2C302.497 87.2 303.011 87.2533 303.477 87.36C303.944 87.4533 304.397 87.5933 304.837 87.78L304.217 90.16C303.937 90.0533 303.631 89.96 303.297 89.88C302.964 89.8 302.591 89.76 302.177 89.76C301.297 89.76 300.637 90.0333 300.197 90.58C299.771 91.1267 299.557 91.8467 299.557 92.74C299.557 93.6867 299.757 94.42 300.157 94.94C300.571 95.46 301.284 95.72 302.297 95.72C302.657 95.72 303.044 95.6867 303.457 95.62C303.871 95.5533 304.251 95.4467 304.597 95.3L305.017 97.74C304.671 97.8867 304.237 98.0133 303.717 98.12C303.197 98.2267 302.624 98.28 301.997 98.28C301.037 98.28 300.211 98.14 299.517 97.86C298.824 97.5667 298.251 97.1733 297.797 96.68C297.357 96.1867 297.031 95.6067 296.817 94.94C296.617 94.26 296.517 93.5267 296.517 92.74ZM307.017 98V82.96L309.997 82.48V87.52C310.197 87.4533 310.451 87.3933 310.757 87.34C311.077 87.2733 311.384 87.24 311.677 87.24C312.531 87.24 313.237 87.36 313.797 87.6C314.371 87.8267 314.824 88.1533 315.157 88.58C315.504 89.0067 315.744 89.5133 315.877 90.1C316.024 90.6867 316.097 91.34 316.097 92.06V98H313.117V92.42C313.117 91.46 312.991 90.78 312.737 90.38C312.497 89.98 312.044 89.78 311.377 89.78C311.111 89.78 310.857 89.8067 310.617 89.86C310.391 89.9 310.184 89.9467 309.997 90V98H307.017Z" fill="white"/>
<path d="M355.88 84.14V86.8H351.7V98H348.58V86.8H344.4V84.14H355.88ZM355.681 92.82C355.681 91.8867 355.821 91.0733 356.101 90.38C356.395 89.6733 356.775 89.0867 357.241 88.62C357.708 88.1533 358.241 87.8 358.841 87.56C359.455 87.32 360.081 87.2 360.721 87.2C362.215 87.2 363.395 87.66 364.261 88.58C365.128 89.4867 365.561 90.8267 365.561 92.6C365.561 92.7733 365.555 92.9667 365.541 93.18C365.528 93.38 365.515 93.56 365.501 93.72H358.741C358.808 94.3333 359.095 94.82 359.601 95.18C360.108 95.54 360.788 95.72 361.641 95.72C362.188 95.72 362.721 95.6733 363.241 95.58C363.775 95.4733 364.208 95.3467 364.541 95.2L364.941 97.62C364.781 97.7 364.568 97.78 364.301 97.86C364.035 97.94 363.735 98.0067 363.401 98.06C363.081 98.1267 362.735 98.18 362.361 98.22C361.988 98.26 361.615 98.28 361.241 98.28C360.295 98.28 359.468 98.14 358.761 97.86C358.068 97.58 357.488 97.2 357.021 96.72C356.568 96.2267 356.228 95.6467 356.001 94.98C355.788 94.3133 355.681 93.5933 355.681 92.82ZM362.681 91.68C362.668 91.4267 362.621 91.18 362.541 90.94C362.475 90.7 362.361 90.4867 362.201 90.3C362.055 90.1133 361.861 89.96 361.621 89.84C361.395 89.72 361.108 89.66 360.761 89.66C360.428 89.66 360.141 89.72 359.901 89.84C359.661 89.9467 359.461 90.0933 359.301 90.28C359.141 90.4667 359.015 90.6867 358.921 90.94C358.841 91.18 358.781 91.4267 358.741 91.68H362.681ZM374.201 90.12C373.934 90.0533 373.621 89.9867 373.261 89.92C372.901 89.84 372.514 89.8 372.101 89.8C371.914 89.8 371.688 89.82 371.421 89.86C371.168 89.8867 370.974 89.92 370.841 89.96V98H367.861V88.04C368.394 87.8533 369.021 87.68 369.741 87.52C370.474 87.3467 371.288 87.26 372.181 87.26C372.341 87.26 372.534 87.2733 372.761 87.3C372.988 87.3133 373.214 87.34 373.441 87.38C373.668 87.4067 373.894 87.4467 374.121 87.5C374.348 87.54 374.541 87.5933 374.701 87.66L374.201 90.12ZM382.078 92.42C382.078 91.46 381.952 90.78 381.698 90.38C381.458 89.98 381.038 89.78 380.438 89.78C380.252 89.78 380.058 89.7933 379.858 89.82C379.658 89.8333 379.465 89.8533 379.278 89.88V98H376.298V87.84C376.552 87.7733 376.845 87.7067 377.178 87.64C377.525 87.56 377.885 87.4933 378.258 87.44C378.645 87.3733 379.038 87.3267 379.438 87.3C379.838 87.26 380.232 87.24 380.618 87.24C381.378 87.24 381.992 87.34 382.458 87.54C382.938 87.7267 383.332 87.9533 383.638 88.22C384.065 87.9133 384.552 87.6733 385.098 87.5C385.658 87.3267 386.172 87.24 386.638 87.24C387.478 87.24 388.165 87.36 388.698 87.6C389.245 87.8267 389.678 88.1533 389.998 88.58C390.318 89.0067 390.538 89.5133 390.658 90.1C390.778 90.6867 390.838 91.34 390.838 92.06V98H387.858V92.42C387.858 91.46 387.732 90.78 387.478 90.38C387.238 89.98 386.818 89.78 386.218 89.78C386.058 89.78 385.832 89.82 385.538 89.9C385.258 89.98 385.025 90.08 384.838 90.2C384.932 90.5067 384.992 90.8333 385.018 91.18C385.045 91.5133 385.058 91.8733 385.058 92.26V98H382.078V92.42ZM396.525 98H393.545V87.48H396.525V98ZM396.805 84.44C396.805 84.9867 396.625 85.42 396.265 85.74C395.918 86.0467 395.505 86.2 395.025 86.2C394.545 86.2 394.125 86.0467 393.765 85.74C393.418 85.42 393.245 84.9867 393.245 84.44C393.245 83.8933 393.418 83.4667 393.765 83.16C394.125 82.84 394.545 82.68 395.025 82.68C395.505 82.68 395.918 82.84 396.265 83.16C396.625 83.4667 396.805 83.8933 396.805 84.44ZM399.326 87.84C399.832 87.6933 400.486 87.56 401.286 87.44C402.086 87.3067 402.926 87.24 403.806 87.24C404.699 87.24 405.439 87.36 406.026 87.6C406.626 87.8267 407.099 88.1533 407.446 88.58C407.792 89.0067 408.039 89.5133 408.186 90.1C408.332 90.6867 408.406 91.34 408.406 92.06V98H405.426V92.42C405.426 91.46 405.299 90.78 405.046 90.38C404.792 89.98 404.319 89.78 403.626 89.78C403.412 89.78 403.186 89.7933 402.946 89.82C402.706 89.8333 402.492 89.8533 402.306 89.88V98H399.326V87.84ZM415.123 95.92C415.416 95.92 415.696 95.9133 415.963 95.9C416.23 95.8867 416.443 95.8667 416.603 95.84V93.58C416.483 93.5533 416.303 93.5267 416.063 93.5C415.823 93.4733 415.603 93.46 415.403 93.46C415.123 93.46 414.856 93.48 414.603 93.52C414.363 93.5467 414.15 93.6067 413.963 93.7C413.776 93.7933 413.63 93.92 413.523 94.08C413.416 94.24 413.363 94.44 413.363 94.68C413.363 95.1467 413.516 95.4733 413.823 95.66C414.143 95.8333 414.576 95.92 415.123 95.92ZM414.883 87.2C415.763 87.2 416.496 87.3 417.083 87.5C417.67 87.7 418.136 87.9867 418.483 88.36C418.843 88.7333 419.096 89.1867 419.243 89.72C419.39 90.2533 419.463 90.8467 419.463 91.5V97.7C419.036 97.7933 418.443 97.9 417.683 98.02C416.923 98.1533 416.003 98.22 414.923 98.22C414.243 98.22 413.623 98.16 413.063 98.04C412.516 97.92 412.043 97.7267 411.643 97.46C411.243 97.18 410.936 96.82 410.723 96.38C410.51 95.94 410.403 95.4 410.403 94.76C410.403 94.1467 410.523 93.6267 410.763 93.2C411.016 92.7733 411.35 92.4333 411.763 92.18C412.176 91.9267 412.65 91.7467 413.183 91.64C413.716 91.52 414.27 91.46 414.843 91.46C415.23 91.46 415.57 91.48 415.863 91.52C416.17 91.5467 416.416 91.5867 416.603 91.64V91.36C416.603 90.8533 416.45 90.4467 416.143 90.14C415.836 89.8333 415.303 89.68 414.543 89.68C414.036 89.68 413.536 89.72 413.043 89.8C412.55 89.8667 412.123 89.9667 411.763 90.1L411.383 87.7C411.556 87.6467 411.77 87.5933 412.023 87.54C412.29 87.4733 412.576 87.42 412.883 87.38C413.19 87.3267 413.51 87.2867 413.843 87.26C414.19 87.22 414.536 87.2 414.883 87.2ZM426.358 98.2C425.491 98.1867 424.784 98.0933 424.238 97.92C423.704 97.7467 423.278 97.5067 422.958 97.2C422.651 96.88 422.438 96.5 422.318 96.06C422.211 95.6067 422.158 95.1 422.158 94.54V82.96L425.138 82.48V93.94C425.138 94.2067 425.158 94.4467 425.198 94.66C425.238 94.8733 425.311 95.0533 425.418 95.2C425.538 95.3467 425.704 95.4667 425.918 95.56C426.131 95.6533 426.418 95.7133 426.778 95.74L426.358 98.2Z" fill="white"/>
<path d="M468.96 84.14H472.08V98H468.96V92.12H463.72V98H460.6V84.14H463.72V89.44H468.96V84.14ZM474.588 92.82C474.588 91.8867 474.728 91.0733 475.007 90.38C475.301 89.6733 475.681 89.0867 476.148 88.62C476.614 88.1533 477.148 87.8 477.748 87.56C478.361 87.32 478.988 87.2 479.628 87.2C481.121 87.2 482.301 87.66 483.168 88.58C484.034 89.4867 484.468 90.8267 484.468 92.6C484.468 92.7733 484.461 92.9667 484.448 93.18C484.434 93.38 484.421 93.56 484.408 93.72H477.648C477.714 94.3333 478.001 94.82 478.508 95.18C479.014 95.54 479.694 95.72 480.548 95.72C481.094 95.72 481.628 95.6733 482.148 95.58C482.681 95.4733 483.114 95.3467 483.448 95.2L483.848 97.62C483.688 97.7 483.474 97.78 483.208 97.86C482.941 97.94 482.641 98.0067 482.308 98.06C481.988 98.1267 481.641 98.18 481.268 98.22C480.894 98.26 480.521 98.28 480.148 98.28C479.201 98.28 478.374 98.14 477.668 97.86C476.974 97.58 476.394 97.2 475.928 96.72C475.474 96.2267 475.134 95.6467 474.908 94.98C474.694 94.3133 474.588 93.5933 474.588 92.82ZM481.588 91.68C481.574 91.4267 481.528 91.18 481.448 90.94C481.381 90.7 481.268 90.4867 481.108 90.3C480.961 90.1133 480.768 89.96 480.528 89.84C480.301 89.72 480.014 89.66 479.668 89.66C479.334 89.66 479.048 89.72 478.808 89.84C478.568 89.9467 478.368 90.0933 478.208 90.28C478.048 90.4667 477.921 90.6867 477.828 90.94C477.748 91.18 477.688 91.4267 477.648 91.68H481.588ZM490.967 98.2C490.101 98.1867 489.394 98.0933 488.847 97.92C488.314 97.7467 487.887 97.5067 487.567 97.2C487.261 96.88 487.047 96.5 486.927 96.06C486.821 95.6067 486.767 95.1 486.767 94.54V82.96L489.747 82.48V93.94C489.747 94.2067 489.767 94.4467 489.807 94.66C489.847 94.8733 489.921 95.0533 490.027 95.2C490.147 95.3467 490.314 95.4667 490.527 95.56C490.741 95.6533 491.027 95.7133 491.387 95.74L490.967 98.2ZM499.835 92.82C499.835 91.9 499.629 91.1667 499.215 90.62C498.802 90.06 498.189 89.78 497.375 89.78C497.109 89.78 496.862 89.7933 496.635 89.82C496.409 89.8333 496.222 89.8533 496.075 89.88V95.26C496.262 95.38 496.502 95.48 496.795 95.56C497.102 95.64 497.409 95.68 497.715 95.68C499.129 95.68 499.835 94.7267 499.835 92.82ZM502.875 92.74C502.875 93.5533 502.775 94.2933 502.575 94.96C502.375 95.6267 502.082 96.2 501.695 96.68C501.309 97.16 500.829 97.5333 500.255 97.8C499.682 98.0667 499.022 98.2 498.275 98.2C497.862 98.2 497.475 98.16 497.115 98.08C496.755 98 496.409 97.8867 496.075 97.74V101.7H493.095V87.84C493.362 87.76 493.669 87.6867 494.015 87.62C494.362 87.54 494.722 87.4733 495.095 87.42C495.482 87.3667 495.869 87.3267 496.255 87.3C496.655 87.26 497.035 87.24 497.395 87.24C498.262 87.24 499.035 87.3733 499.715 87.64C500.395 87.8933 500.969 88.26 501.435 88.74C501.902 89.2067 502.255 89.78 502.495 90.46C502.749 91.14 502.875 91.9 502.875 92.74Z" fill="white"/>
<path d="M1178.7 28.0989C1178.81 28.0018 1178.89 27.8853 1178.95 27.7558C1179.01 27.6263 1179.04 27.4865 1179.05 27.3443C1179.05 27.2021 1179.03 27.0603 1178.98 26.9271C1178.93 26.7938 1178.85 26.6716 1178.76 26.5676C1178.66 26.4635 1178.54 26.3796 1178.41 26.3205C1178.28 26.2615 1178.14 26.2286 1178 26.2236C1177.86 26.2186 1177.72 26.2417 1177.58 26.2915C1177.45 26.3413 1177.33 26.4169 1177.22 26.5139L1174.05 29.4693L1171.1 26.2984C1170.9 26.0958 1170.63 25.9787 1170.35 25.9721C1170.07 25.9655 1169.79 26.0699 1169.58 26.263C1169.38 26.4561 1169.25 26.7226 1169.24 27.0053C1169.23 27.2881 1169.33 27.5647 1169.51 27.776L1172.47 30.9459L1169.3 33.9012C1169.19 33.9972 1169.1 34.1138 1169.04 34.2441C1168.98 34.3745 1168.94 34.5159 1168.94 34.66C1168.93 34.8042 1168.95 34.9483 1169 35.0838C1169.05 35.2192 1169.13 35.3434 1169.23 35.4489C1169.33 35.5544 1169.44 35.6392 1169.58 35.6983C1169.71 35.7574 1169.85 35.7896 1169.99 35.7929C1170.14 35.7963 1170.28 35.7708 1170.42 35.7179C1170.55 35.665 1170.67 35.5859 1170.78 35.485L1173.95 32.5308L1176.9 35.7006C1177 35.8103 1177.11 35.8997 1177.24 35.9635C1177.38 36.0272 1177.52 36.064 1177.66 36.0716C1177.81 36.0792 1177.95 36.0575 1178.09 36.0077C1178.23 35.958 1178.35 35.8813 1178.46 35.7821C1178.56 35.683 1178.65 35.5634 1178.71 35.4306C1178.77 35.2977 1178.8 35.1543 1178.8 35.0089C1178.81 34.8635 1178.78 34.7191 1178.72 34.5843C1178.67 34.4494 1178.59 34.3269 1178.49 34.224L1175.53 31.0542L1178.7 28.0989V28.0989Z" fill="white"/>
<path fill-rule="evenodd" clip-rule="evenodd" d="M1162.08 31C1162.08 24.4188 1167.42 19.0833 1174 19.0833C1180.58 19.0833 1185.92 24.4188 1185.92 31C1185.92 37.5813 1180.58 42.9167 1174 42.9167C1167.42 42.9167 1162.08 37.5813 1162.08 31ZM1174 40.75C1172.72 40.75 1171.45 40.4978 1170.27 40.0078C1169.09 39.5179 1168.01 38.7997 1167.11 37.8943C1166.2 36.9889 1165.48 35.9141 1164.99 34.7312C1164.5 33.5482 1164.25 32.2804 1164.25 31C1164.25 29.7196 1164.5 28.4518 1164.99 27.2688C1165.48 26.0859 1166.2 25.0111 1167.11 24.1057C1168.01 23.2003 1169.09 22.4822 1170.27 21.9922C1171.45 21.5022 1172.72 21.25 1174 21.25C1176.59 21.25 1179.07 22.2772 1180.89 24.1057C1182.72 25.9342 1183.75 28.4141 1183.75 31C1183.75 33.5859 1182.72 36.0658 1180.89 37.8943C1179.07 39.7228 1176.59 40.75 1174 40.75Z" fill="white"/>
<rect x="1184" y="117" width="20" height="538" rx="4" fill="#5B5B5B"/>
<rect x="1184" y="377" width="20" height="242" rx="2" fill="#C4C4C4" fill-opacity="0.71"/>
</svg>
