<svg width="1143" height="630" viewBox="0 0 1143 630" fill="none" xmlns="http://www.w3.org/2000/svg">
<rect y="23.0839" width="1142.87" height="606.916" rx="12" fill="#031313" fill-opacity="0.9"/>
<path d="M0 12C0 5.37258 5.37258 0 12 0H1131C1137.63 0 1143 5.37258 1143 12V111.573H0V12Z" fill="#2E3339"/>
<path d="M431.382 26.24C431.115 26.1733 430.802 26.1067 430.442 26.04C430.082 25.96 429.695 25.92 429.282 25.92C429.095 25.92 428.868 25.94 428.602 25.98C428.348 26.0067 428.155 26.04 428.022 26.08V34.12H425.042V24.16C425.575 23.9733 426.202 23.8 426.922 23.64C427.655 23.4667 428.468 23.38 429.362 23.38C429.522 23.38 429.715 23.3933 429.942 23.42C430.168 23.4333 430.395 23.46 430.622 23.5C430.848 23.5267 431.075 23.5667 431.302 23.62C431.528 23.66 431.722 23.7133 431.882 23.78L431.382 26.24ZM443.124 28.84C443.124 29.6667 443.004 30.4267 442.764 31.12C442.524 31.8 442.177 32.3867 441.724 32.88C441.271 33.36 440.724 33.7333 440.084 34C439.457 34.2667 438.751 34.4 437.964 34.4C437.191 34.4 436.484 34.2667 435.844 34C435.217 33.7333 434.677 33.36 434.224 32.88C433.771 32.3867 433.417 31.8 433.164 31.12C432.911 30.4267 432.784 29.6667 432.784 28.84C432.784 28.0133 432.911 27.26 433.164 26.58C433.431 25.9 433.791 25.32 434.244 24.84C434.711 24.36 435.257 23.9867 435.884 23.72C436.524 23.4533 437.217 23.32 437.964 23.32C438.724 23.32 439.417 23.4533 440.044 23.72C440.684 23.9867 441.231 24.36 441.684 24.84C442.137 25.32 442.491 25.9 442.744 26.58C442.997 27.26 443.124 28.0133 443.124 28.84ZM440.084 28.84C440.084 27.92 439.897 27.2 439.524 26.68C439.164 26.1467 438.644 25.88 437.964 25.88C437.284 25.88 436.757 26.1467 436.384 26.68C436.011 27.2 435.824 27.92 435.824 28.84C435.824 29.76 436.011 30.4933 436.384 31.04C436.757 31.5733 437.284 31.84 437.964 31.84C438.644 31.84 439.164 31.5733 439.524 31.04C439.897 30.4933 440.084 29.76 440.084 28.84ZM455.272 28.84C455.272 29.6667 455.152 30.4267 454.912 31.12C454.672 31.8 454.326 32.3867 453.872 32.88C453.419 33.36 452.872 33.7333 452.232 34C451.606 34.2667 450.899 34.4 450.112 34.4C449.339 34.4 448.632 34.2667 447.992 34C447.366 33.7333 446.826 33.36 446.372 32.88C445.919 32.3867 445.566 31.8 445.312 31.12C445.059 30.4267 444.932 29.6667 444.932 28.84C444.932 28.0133 445.059 27.26 445.312 26.58C445.579 25.9 445.939 25.32 446.392 24.84C446.859 24.36 447.406 23.9867 448.032 23.72C448.672 23.4533 449.366 23.32 450.112 23.32C450.872 23.32 451.566 23.4533 452.192 23.72C452.832 23.9867 453.379 24.36 453.832 24.84C454.286 25.32 454.639 25.9 454.892 26.58C455.146 27.26 455.272 28.0133 455.272 28.84ZM452.232 28.84C452.232 27.92 452.046 27.2 451.672 26.68C451.312 26.1467 450.792 25.88 450.112 25.88C449.432 25.88 448.906 26.1467 448.532 26.68C448.159 27.2 447.972 27.92 447.972 28.84C447.972 29.76 448.159 30.4933 448.532 31.04C448.906 31.5733 449.432 31.84 450.112 31.84C450.792 31.84 451.312 31.5733 451.672 31.04C452.046 30.4933 452.232 29.76 452.232 28.84ZM457.481 20.98L460.461 20.5V23.6H464.041V26.08H460.461V29.78C460.461 30.4067 460.567 30.9067 460.781 31.28C461.007 31.6533 461.454 31.84 462.121 31.84C462.441 31.84 462.767 31.8133 463.101 31.76C463.447 31.6933 463.761 31.6067 464.041 31.5L464.461 33.82C464.101 33.9667 463.701 34.0933 463.261 34.2C462.821 34.3067 462.281 34.36 461.641 34.36C460.827 34.36 460.154 34.2533 459.621 34.04C459.087 33.8133 458.661 33.5067 458.341 33.12C458.021 32.72 457.794 32.24 457.661 31.68C457.541 31.12 457.481 30.5 457.481 29.82V20.98ZM479.088 33.56C478.701 33.56 478.314 33.5133 477.928 33.42C477.541 33.3267 477.221 33.16 476.968 32.92C476.381 33.3333 475.641 33.54 474.748 33.54C474.081 33.54 473.468 33.44 472.908 33.24C472.361 33.0267 471.888 32.7133 471.488 32.3C471.101 31.8867 470.794 31.38 470.568 30.78C470.354 30.1667 470.248 29.46 470.248 28.66C470.248 27.98 470.354 27.3467 470.568 26.76C470.794 26.1733 471.121 25.6667 471.548 25.24C471.974 24.8 472.494 24.4533 473.108 24.2C473.734 23.9467 474.441 23.82 475.228 23.82C476.014 23.82 476.708 23.8933 477.308 24.04C477.921 24.1733 478.428 24.3133 478.828 24.46V30.74C478.828 31.0467 478.888 31.2533 479.008 31.36C479.141 31.4667 479.328 31.52 479.568 31.52C479.781 31.52 479.988 31.46 480.188 31.34C480.401 31.22 480.581 31.0067 480.728 30.7C480.874 30.38 480.994 29.9533 481.088 29.42C481.181 28.8733 481.228 28.1867 481.228 27.36C481.228 26.5333 481.081 25.78 480.788 25.1C480.508 24.4067 480.094 23.82 479.548 23.34C479.014 22.8467 478.354 22.4667 477.568 22.2C476.794 21.92 475.914 21.78 474.928 21.78C473.981 21.78 473.108 21.94 472.308 22.26C471.521 22.58 470.834 23.04 470.248 23.64C469.674 24.2267 469.221 24.9467 468.888 25.8C468.568 26.6533 468.408 27.6133 468.408 28.68C468.408 29.7867 468.568 30.76 468.888 31.6C469.208 32.4267 469.661 33.12 470.248 33.68C470.848 34.24 471.568 34.66 472.408 34.94C473.261 35.2333 474.221 35.38 475.288 35.38C475.954 35.38 476.581 35.3333 477.168 35.24C477.768 35.16 478.268 35.08 478.668 35L478.968 36.88C478.634 36.9867 478.128 37.1 477.448 37.22C476.768 37.34 476.048 37.4 475.288 37.4C474.008 37.4 472.808 37.2333 471.688 36.9C470.568 36.5667 469.588 36.0467 468.748 35.34C467.921 34.6333 467.268 33.7333 466.788 32.64C466.308 31.5333 466.068 30.2133 466.068 28.68C466.068 27.2 466.321 25.9067 466.828 24.8C467.334 23.68 468.001 22.7467 468.828 22C469.654 21.2533 470.594 20.6933 471.648 20.32C472.714 19.9467 473.808 19.76 474.928 19.76C476.154 19.76 477.294 19.9333 478.348 20.28C479.401 20.6133 480.308 21.1067 481.068 21.76C481.841 22.4133 482.448 23.2267 482.888 24.2C483.328 25.16 483.548 26.2667 483.548 27.52C483.548 28.4933 483.441 29.36 483.228 30.12C483.028 30.8667 482.728 31.4933 482.328 32C481.941 32.5067 481.474 32.8933 480.928 33.16C480.381 33.4267 479.768 33.56 479.088 33.56ZM476.268 31.18C476.241 31.0733 476.221 30.92 476.208 30.72C476.194 30.5067 476.188 30.3067 476.188 30.12V26.04C475.921 25.9867 475.641 25.96 475.348 25.96C474.908 25.96 474.534 26.0333 474.228 26.18C473.921 26.3133 473.674 26.5 473.488 26.74C473.301 26.98 473.161 27.2667 473.068 27.6C472.988 27.92 472.948 28.2733 472.948 28.66C472.948 29.0467 472.981 29.4067 473.048 29.74C473.114 30.06 473.228 30.34 473.388 30.58C473.561 30.82 473.788 31.0133 474.068 31.16C474.348 31.2933 474.694 31.36 475.108 31.36C475.348 31.36 475.574 31.3467 475.788 31.32C476.001 31.28 476.161 31.2333 476.268 31.18ZM488.92 27.4C489.213 27.08 489.513 26.7467 489.82 26.4C490.14 26.0533 490.447 25.7133 490.74 25.38C491.033 25.0333 491.307 24.7067 491.56 24.4C491.827 24.0933 492.053 23.8267 492.24 23.6H495.78C495.073 24.4133 494.38 25.1933 493.7 25.94C493.033 26.6733 492.3 27.4333 491.5 28.22C491.9 28.58 492.313 29.0133 492.74 29.52C493.167 30.0133 493.58 30.5267 493.98 31.06C494.38 31.5933 494.747 32.1267 495.08 32.66C495.413 33.1933 495.693 33.68 495.92 34.12H492.5C492.287 33.7733 492.04 33.3933 491.76 32.98C491.493 32.5533 491.207 32.1333 490.9 31.72C490.593 31.2933 490.267 30.8867 489.92 30.5C489.587 30.1133 489.253 29.7867 488.92 29.52V34.12H485.94V19.08L488.92 18.6V27.4ZM501.347 32.04C501.64 32.04 501.92 32.0333 502.187 32.02C502.454 32.0067 502.667 31.9867 502.827 31.96V29.7C502.707 29.6733 502.527 29.6467 502.287 29.62C502.047 29.5933 501.827 29.58 501.627 29.58C501.347 29.58 501.08 29.6 500.827 29.64C500.587 29.6667 500.374 29.7267 500.187 29.82C500 29.9133 499.854 30.04 499.747 30.2C499.64 30.36 499.587 30.56 499.587 30.8C499.587 31.2667 499.74 31.5933 500.047 31.78C500.367 31.9533 500.8 32.04 501.347 32.04ZM501.107 23.32C501.987 23.32 502.72 23.42 503.307 23.62C503.894 23.82 504.36 24.1067 504.707 24.48C505.067 24.8533 505.32 25.3067 505.467 25.84C505.614 26.3733 505.687 26.9667 505.687 27.62V33.82C505.26 33.9133 504.667 34.02 503.907 34.14C503.147 34.2733 502.227 34.34 501.147 34.34C500.467 34.34 499.847 34.28 499.287 34.16C498.74 34.04 498.267 33.8467 497.867 33.58C497.467 33.3 497.16 32.94 496.947 32.5C496.734 32.06 496.627 31.52 496.627 30.88C496.627 30.2667 496.747 29.7467 496.987 29.32C497.24 28.8933 497.574 28.5533 497.987 28.3C498.4 28.0467 498.874 27.8667 499.407 27.76C499.94 27.64 500.494 27.58 501.067 27.58C501.454 27.58 501.794 27.6 502.087 27.64C502.394 27.6667 502.64 27.7067 502.827 27.76V27.48C502.827 26.9733 502.674 26.5667 502.367 26.26C502.06 25.9533 501.527 25.8 500.767 25.8C500.26 25.8 499.76 25.84 499.267 25.92C498.774 25.9867 498.347 26.0867 497.987 26.22L497.607 23.82C497.78 23.7667 497.994 23.7133 498.247 23.66C498.514 23.5933 498.8 23.54 499.107 23.5C499.414 23.4467 499.734 23.4067 500.067 23.38C500.414 23.34 500.76 23.32 501.107 23.32ZM512.582 34.32C511.715 34.3067 511.008 34.2133 510.462 34.04C509.928 33.8667 509.502 33.6267 509.182 33.32C508.875 33 508.662 32.62 508.542 32.18C508.435 31.7267 508.382 31.22 508.382 30.66V19.08L511.362 18.6V30.06C511.362 30.3267 511.382 30.5667 511.422 30.78C511.462 30.9933 511.535 31.1733 511.642 31.32C511.762 31.4667 511.928 31.5867 512.142 31.68C512.355 31.7733 512.642 31.8333 513.002 31.86L512.582 34.32ZM517.69 34.12H514.71V23.6H517.69V34.12ZM517.97 20.56C517.97 21.1067 517.79 21.54 517.43 21.86C517.083 22.1667 516.67 22.32 516.19 22.32C515.71 22.32 515.29 22.1667 514.93 21.86C514.583 21.54 514.41 21.1067 514.41 20.56C514.41 20.0133 514.583 19.5867 514.93 19.28C515.29 18.96 515.71 18.8 516.19 18.8C516.67 18.8 517.083 18.96 517.43 19.28C517.79 19.5867 517.97 20.0133 517.97 20.56ZM523.411 25.44C523.411 26.04 523.218 26.5 522.831 26.82C522.458 27.1267 522.031 27.28 521.551 27.28C521.071 27.28 520.638 27.1267 520.251 26.82C519.878 26.5 519.691 26.04 519.691 25.44C519.691 24.84 519.878 24.3867 520.251 24.08C520.638 23.76 521.071 23.6 521.551 23.6C522.031 23.6 522.458 23.76 522.831 24.08C523.218 24.3867 523.411 24.84 523.411 25.44ZM523.411 32.54C523.411 33.14 523.218 33.6 522.831 33.92C522.458 34.2267 522.031 34.38 521.551 34.38C521.071 34.38 520.638 34.2267 520.251 33.92C519.878 33.6 519.691 33.14 519.691 32.54C519.691 31.94 519.878 31.4867 520.251 31.18C520.638 30.86 521.071 30.7 521.551 30.7C522.031 30.7 522.458 30.86 522.831 31.18C523.218 31.4867 523.411 31.94 523.411 32.54ZM536.538 30.2C536.138 30.2 535.758 30.12 535.398 29.96C535.051 29.8 534.711 29.6267 534.378 29.44C534.058 29.2533 533.744 29.08 533.438 28.92C533.144 28.76 532.851 28.68 532.558 28.68C532.451 28.68 532.338 28.6933 532.218 28.72C532.111 28.7467 532.004 28.8133 531.898 28.92C531.791 29.0133 531.684 29.16 531.578 29.36C531.484 29.5467 531.398 29.8067 531.318 30.14L529.278 29.58C529.344 29.2067 529.451 28.8133 529.598 28.4C529.744 27.9867 529.938 27.6067 530.178 27.26C530.431 26.9133 530.744 26.6267 531.118 26.4C531.491 26.1733 531.938 26.06 532.458 26.06C532.858 26.06 533.231 26.14 533.578 26.3C533.938 26.46 534.278 26.6333 534.598 26.82C534.931 27.0067 535.244 27.18 535.538 27.34C535.844 27.5 536.144 27.58 536.438 27.58C536.544 27.58 536.651 27.5667 536.758 27.54C536.878 27.5133 536.991 27.4533 537.098 27.36C537.204 27.2533 537.304 27.1067 537.398 26.92C537.504 26.72 537.598 26.4533 537.678 26.12L539.718 26.68C539.651 27.0533 539.544 27.4467 539.398 27.86C539.251 28.2733 539.051 28.6533 538.798 29C538.544 29.3467 538.231 29.6333 537.858 29.86C537.498 30.0867 537.058 30.2 536.538 30.2ZM542.745 37.82H539.685L546.405 18.46H549.425L542.745 37.82ZM553.635 31.58C553.782 31.5933 553.948 31.6067 554.135 31.62C554.335 31.62 554.568 31.62 554.835 31.62C556.395 31.62 557.548 31.2267 558.295 30.44C559.055 29.6533 559.435 28.5667 559.435 27.18C559.435 25.7267 559.075 24.6267 558.355 23.88C557.635 23.1333 556.495 22.76 554.935 22.76C554.722 22.76 554.502 22.7667 554.275 22.78C554.048 22.78 553.835 22.7933 553.635 22.82V31.58ZM562.655 27.18C562.655 28.38 562.468 29.4267 562.095 30.32C561.722 31.2133 561.188 31.9533 560.495 32.54C559.815 33.1267 558.982 33.5667 557.995 33.86C557.008 34.1533 555.902 34.3 554.675 34.3C554.115 34.3 553.462 34.2733 552.715 34.22C551.968 34.18 551.235 34.0867 550.515 33.94V20.44C551.235 20.3067 551.982 20.22 552.755 20.18C553.542 20.1267 554.215 20.1 554.775 20.1C555.962 20.1 557.035 20.2333 557.995 20.5C558.968 20.7667 559.802 21.1867 560.495 21.76C561.188 22.3333 561.722 23.0667 562.095 23.96C562.468 24.8533 562.655 25.9267 562.655 27.18ZM564.561 28.94C564.561 28.0067 564.701 27.1933 564.981 26.5C565.275 25.7933 565.655 25.2067 566.121 24.74C566.588 24.2733 567.121 23.92 567.721 23.68C568.335 23.44 568.961 23.32 569.601 23.32C571.095 23.32 572.275 23.78 573.141 24.7C574.008 25.6067 574.441 26.9467 574.441 28.72C574.441 28.8933 574.435 29.0867 574.421 29.3C574.408 29.5 574.395 29.68 574.381 29.84H567.621C567.688 30.4533 567.975 30.94 568.481 31.3C568.988 31.66 569.668 31.84 570.521 31.84C571.068 31.84 571.601 31.7933 572.121 31.7C572.655 31.5933 573.088 31.4667 573.421 31.32L573.821 33.74C573.661 33.82 573.448 33.9 573.181 33.98C572.915 34.06 572.615 34.1267 572.281 34.18C571.961 34.2467 571.615 34.3 571.241 34.34C570.868 34.38 570.495 34.4 570.121 34.4C569.175 34.4 568.348 34.26 567.641 33.98C566.948 33.7 566.368 33.32 565.901 32.84C565.448 32.3467 565.108 31.7667 564.881 31.1C564.668 30.4333 564.561 29.7133 564.561 28.94ZM571.561 27.8C571.548 27.5467 571.501 27.3 571.421 27.06C571.355 26.82 571.241 26.6067 571.081 26.42C570.935 26.2333 570.741 26.08 570.501 25.96C570.275 25.84 569.988 25.78 569.641 25.78C569.308 25.78 569.021 25.84 568.781 25.96C568.541 26.0667 568.341 26.2133 568.181 26.4C568.021 26.5867 567.895 26.8067 567.801 27.06C567.721 27.3 567.661 27.5467 567.621 27.8H571.561ZM579.761 31.98C580.308 31.98 580.694 31.9267 580.921 31.82C581.148 31.7133 581.261 31.5067 581.261 31.2C581.261 30.96 581.114 30.7533 580.821 30.58C580.528 30.3933 580.081 30.1867 579.481 29.96C579.014 29.7867 578.588 29.6067 578.201 29.42C577.828 29.2333 577.508 29.0133 577.241 28.76C576.974 28.4933 576.768 28.18 576.621 27.82C576.474 27.46 576.401 27.0267 576.401 26.52C576.401 25.5333 576.768 24.7533 577.501 24.18C578.234 23.6067 579.241 23.32 580.521 23.32C581.161 23.32 581.774 23.38 582.361 23.5C582.948 23.6067 583.414 23.7267 583.761 23.86L583.241 26.18C582.894 26.06 582.514 25.9533 582.101 25.86C581.701 25.7667 581.248 25.72 580.741 25.72C579.808 25.72 579.341 25.98 579.341 26.5C579.341 26.62 579.361 26.7267 579.401 26.82C579.441 26.9133 579.521 27.0067 579.641 27.1C579.761 27.18 579.921 27.2733 580.121 27.38C580.334 27.4733 580.601 27.58 580.921 27.7C581.574 27.94 582.114 28.18 582.541 28.42C582.968 28.6467 583.301 28.9 583.541 29.18C583.794 29.4467 583.968 29.7467 584.061 30.08C584.168 30.4133 584.221 30.8 584.221 31.24C584.221 32.28 583.828 33.0667 583.041 33.6C582.268 34.1333 581.168 34.4 579.741 34.4C578.808 34.4 578.028 34.32 577.401 34.16C576.788 34 576.361 33.8667 576.121 33.76L576.621 31.34C577.128 31.54 577.648 31.7 578.181 31.82C578.714 31.9267 579.241 31.98 579.761 31.98ZM589.428 27.4C589.721 27.08 590.021 26.7467 590.328 26.4C590.648 26.0533 590.955 25.7133 591.248 25.38C591.541 25.0333 591.815 24.7067 592.068 24.4C592.335 24.0933 592.561 23.8267 592.748 23.6H596.288C595.581 24.4133 594.888 25.1933 594.208 25.94C593.541 26.6733 592.808 27.4333 592.008 28.22C592.408 28.58 592.821 29.0133 593.248 29.52C593.675 30.0133 594.088 30.5267 594.488 31.06C594.888 31.5933 595.255 32.1267 595.588 32.66C595.921 33.1933 596.201 33.68 596.428 34.12H593.008C592.795 33.7733 592.548 33.3933 592.268 32.98C592.001 32.5533 591.715 32.1333 591.408 31.72C591.101 31.2933 590.775 30.8867 590.428 30.5C590.095 30.1133 589.761 29.7867 589.428 29.52V34.12H586.448V19.08L589.428 18.6V27.4ZM597.774 20.98L600.754 20.5V23.6H604.334V26.08H600.754V29.78C600.754 30.4067 600.86 30.9067 601.074 31.28C601.3 31.6533 601.747 31.84 602.414 31.84C602.734 31.84 603.06 31.8133 603.394 31.76C603.74 31.6933 604.054 31.6067 604.334 31.5L604.754 33.82C604.394 33.9667 603.994 34.0933 603.554 34.2C603.114 34.3067 602.574 34.36 601.934 34.36C601.12 34.36 600.447 34.2533 599.914 34.04C599.38 33.8133 598.954 33.5067 598.634 33.12C598.314 32.72 598.087 32.24 597.954 31.68C597.834 31.12 597.774 30.5 597.774 29.82V20.98ZM616.21 28.84C616.21 29.6667 616.09 30.4267 615.85 31.12C615.61 31.8 615.263 32.3867 614.81 32.88C614.357 33.36 613.81 33.7333 613.17 34C612.543 34.2667 611.837 34.4 611.05 34.4C610.277 34.4 609.57 34.2667 608.93 34C608.303 33.7333 607.763 33.36 607.31 32.88C606.857 32.3867 606.503 31.8 606.25 31.12C605.997 30.4267 605.87 29.6667 605.87 28.84C605.87 28.0133 605.997 27.26 606.25 26.58C606.517 25.9 606.877 25.32 607.33 24.84C607.797 24.36 608.343 23.9867 608.97 23.72C609.61 23.4533 610.303 23.32 611.05 23.32C611.81 23.32 612.503 23.4533 613.13 23.72C613.77 23.9867 614.317 24.36 614.77 24.84C615.223 25.32 615.577 25.9 615.83 26.58C616.083 27.26 616.21 28.0133 616.21 28.84ZM613.17 28.84C613.17 27.92 612.983 27.2 612.61 26.68C612.25 26.1467 611.73 25.88 611.05 25.88C610.37 25.88 609.843 26.1467 609.47 26.68C609.097 27.2 608.91 27.92 608.91 28.84C608.91 29.76 609.097 30.4933 609.47 31.04C609.843 31.5733 610.37 31.84 611.05 31.84C611.73 31.84 612.25 31.5733 612.61 31.04C612.983 30.4933 613.17 29.76 613.17 28.84ZM625.258 28.94C625.258 28.02 625.052 27.2867 624.638 26.74C624.225 26.18 623.612 25.9 622.798 25.9C622.532 25.9 622.285 25.9133 622.058 25.94C621.832 25.9533 621.645 25.9733 621.498 26V31.38C621.685 31.5 621.925 31.6 622.218 31.68C622.525 31.76 622.832 31.8 623.138 31.8C624.552 31.8 625.258 30.8467 625.258 28.94ZM628.298 28.86C628.298 29.6733 628.198 30.4133 627.998 31.08C627.798 31.7467 627.505 32.32 627.118 32.8C626.732 33.28 626.252 33.6533 625.678 33.92C625.105 34.1867 624.445 34.32 623.698 34.32C623.285 34.32 622.898 34.28 622.538 34.2C622.178 34.12 621.832 34.0067 621.498 33.86V37.82H618.518V23.96C618.785 23.88 619.092 23.8067 619.438 23.74C619.785 23.66 620.145 23.5933 620.518 23.54C620.905 23.4867 621.292 23.4467 621.678 23.42C622.078 23.38 622.458 23.36 622.818 23.36C623.685 23.36 624.458 23.4933 625.138 23.76C625.818 24.0133 626.392 24.38 626.858 24.86C627.325 25.3267 627.678 25.9 627.918 26.58C628.172 27.26 628.298 28.02 628.298 28.86ZM631.182 37.82H628.122L634.842 18.46H637.862L631.182 37.82ZM639.085 34.12V19.08L642.065 18.6V23.64C642.265 23.5733 642.518 23.5133 642.825 23.46C643.145 23.3933 643.451 23.36 643.745 23.36C644.598 23.36 645.305 23.48 645.865 23.72C646.438 23.9467 646.891 24.2733 647.225 24.7C647.571 25.1267 647.811 25.6333 647.945 26.22C648.091 26.8067 648.165 27.46 648.165 28.18V34.12H645.185V28.54C645.185 27.58 645.058 26.9 644.805 26.5C644.565 26.1 644.111 25.9 643.445 25.9C643.178 25.9 642.925 25.9267 642.685 25.98C642.458 26.02 642.251 26.0667 642.065 26.12V34.12H639.085ZM654.882 32.04C655.175 32.04 655.455 32.0333 655.722 32.02C655.989 32.0067 656.202 31.9867 656.362 31.96V29.7C656.242 29.6733 656.062 29.6467 655.822 29.62C655.582 29.5933 655.362 29.58 655.162 29.58C654.882 29.58 654.615 29.6 654.362 29.64C654.122 29.6667 653.909 29.7267 653.722 29.82C653.535 29.9133 653.389 30.04 653.282 30.2C653.175 30.36 653.122 30.56 653.122 30.8C653.122 31.2667 653.275 31.5933 653.582 31.78C653.902 31.9533 654.335 32.04 654.882 32.04ZM654.642 23.32C655.522 23.32 656.255 23.42 656.842 23.62C657.429 23.82 657.895 24.1067 658.242 24.48C658.602 24.8533 658.855 25.3067 659.002 25.84C659.149 26.3733 659.222 26.9667 659.222 27.62V33.82C658.795 33.9133 658.202 34.02 657.442 34.14C656.682 34.2733 655.762 34.34 654.682 34.34C654.002 34.34 653.382 34.28 652.822 34.16C652.275 34.04 651.802 33.8467 651.402 33.58C651.002 33.3 650.695 32.94 650.482 32.5C650.269 32.06 650.162 31.52 650.162 30.88C650.162 30.2667 650.282 29.7467 650.522 29.32C650.775 28.8933 651.109 28.5533 651.522 28.3C651.935 28.0467 652.409 27.8667 652.942 27.76C653.475 27.64 654.029 27.58 654.602 27.58C654.989 27.58 655.329 27.6 655.622 27.64C655.929 27.6667 656.175 27.7067 656.362 27.76V27.48C656.362 26.9733 656.209 26.5667 655.902 26.26C655.595 25.9533 655.062 25.8 654.302 25.8C653.795 25.8 653.295 25.84 652.802 25.92C652.309 25.9867 651.882 26.0867 651.522 26.22L651.142 23.82C651.315 23.7667 651.529 23.7133 651.782 23.66C652.049 23.5933 652.335 23.54 652.642 23.5C652.949 23.4467 653.269 23.4067 653.602 23.38C653.949 23.34 654.295 23.32 654.642 23.32ZM661.417 28.86C661.417 28.1 661.537 27.3867 661.777 26.72C662.03 26.04 662.39 25.4533 662.857 24.96C663.323 24.4533 663.89 24.0533 664.557 23.76C665.223 23.4667 665.983 23.32 666.837 23.32C667.397 23.32 667.91 23.3733 668.377 23.48C668.843 23.5733 669.297 23.7133 669.737 23.9L669.117 26.28C668.837 26.1733 668.53 26.08 668.197 26C667.863 25.92 667.49 25.88 667.077 25.88C666.197 25.88 665.537 26.1533 665.097 26.7C664.67 27.2467 664.457 27.9667 664.457 28.86C664.457 29.8067 664.657 30.54 665.057 31.06C665.47 31.58 666.183 31.84 667.197 31.84C667.557 31.84 667.943 31.8067 668.357 31.74C668.77 31.6733 669.15 31.5667 669.497 31.42L669.917 33.86C669.57 34.0067 669.137 34.1333 668.617 34.24C668.097 34.3467 667.523 34.4 666.897 34.4C665.937 34.4 665.11 34.26 664.417 33.98C663.723 33.6867 663.15 33.2933 662.697 32.8C662.257 32.3067 661.93 31.7267 661.717 31.06C661.517 30.38 661.417 29.6467 661.417 28.86ZM674.897 27.4C675.19 27.08 675.49 26.7467 675.797 26.4C676.117 26.0533 676.423 25.7133 676.717 25.38C677.01 25.0333 677.283 24.7067 677.537 24.4C677.803 24.0933 678.03 23.8267 678.217 23.6H681.757C681.05 24.4133 680.357 25.1933 679.677 25.94C679.01 26.6733 678.277 27.4333 677.477 28.22C677.877 28.58 678.29 29.0133 678.717 29.52C679.143 30.0133 679.557 30.5267 679.957 31.06C680.357 31.5933 680.723 32.1267 681.057 32.66C681.39 33.1933 681.67 33.68 681.897 34.12H678.477C678.263 33.7733 678.017 33.3933 677.737 32.98C677.47 32.5533 677.183 32.1333 676.877 31.72C676.57 31.2933 676.243 30.8867 675.897 30.5C675.563 30.1133 675.23 29.7867 674.897 29.52V34.12H671.917V19.08L674.897 18.6V27.4ZM686.653 32.54C686.653 33.14 686.46 33.6 686.073 33.92C685.7 34.2267 685.273 34.38 684.793 34.38C684.313 34.38 683.88 34.2267 683.493 33.92C683.12 33.6 682.933 33.14 682.933 32.54C682.933 31.94 683.12 31.4867 683.493 31.18C683.88 30.86 684.313 30.7 684.793 30.7C685.273 30.7 685.7 30.86 686.073 31.18C686.46 31.4867 686.653 31.94 686.653 32.54ZM695.395 28.94C695.395 28.02 695.188 27.2867 694.775 26.74C694.362 26.18 693.748 25.9 692.935 25.9C692.668 25.9 692.422 25.9133 692.195 25.94C691.968 25.9533 691.782 25.9733 691.635 26V31.38C691.822 31.5 692.062 31.6 692.355 31.68C692.662 31.76 692.968 31.8 693.275 31.8C694.688 31.8 695.395 30.8467 695.395 28.94ZM698.435 28.86C698.435 29.6733 698.335 30.4133 698.135 31.08C697.935 31.7467 697.642 32.32 697.255 32.8C696.868 33.28 696.388 33.6533 695.815 33.92C695.242 34.1867 694.582 34.32 693.835 34.32C693.422 34.32 693.035 34.28 692.675 34.2C692.315 34.12 691.968 34.0067 691.635 33.86V37.82H688.655V23.96C688.922 23.88 689.228 23.8067 689.575 23.74C689.922 23.66 690.282 23.5933 690.655 23.54C691.042 23.4867 691.428 23.4467 691.815 23.42C692.215 23.38 692.595 23.36 692.955 23.36C693.822 23.36 694.595 23.4933 695.275 23.76C695.955 24.0133 696.528 24.38 696.995 24.86C697.462 25.3267 697.815 25.9 698.055 26.58C698.308 27.26 698.435 28.02 698.435 28.86ZM709.792 23.6C709.192 25.6267 708.565 27.5267 707.912 29.3C707.259 31.0733 706.545 32.7933 705.772 34.46C705.492 35.06 705.212 35.5667 704.932 35.98C704.652 36.4067 704.345 36.7533 704.012 37.02C703.679 37.3 703.299 37.5 702.872 37.62C702.459 37.7533 701.972 37.82 701.412 37.82C700.945 37.82 700.512 37.7733 700.112 37.68C699.725 37.6 699.405 37.5067 699.152 37.4L699.672 35.02C699.979 35.1267 700.252 35.2 700.492 35.24C700.732 35.28 700.985 35.3 701.252 35.3C701.785 35.3 702.192 35.1533 702.472 34.86C702.765 34.58 703.012 34.1867 703.212 33.68C702.532 32.3467 701.852 30.8533 701.172 29.2C700.492 27.5333 699.852 25.6667 699.252 23.6H702.412C702.545 24.12 702.699 24.6867 702.872 25.3C703.059 25.9 703.252 26.5133 703.452 27.14C703.652 27.7533 703.852 28.3533 704.052 28.94C704.265 29.5267 704.465 30.06 704.652 30.54C704.825 30.06 705.005 29.5267 705.192 28.94C705.379 28.3533 705.559 27.7533 705.732 27.14C705.919 26.5133 706.092 25.9 706.252 25.3C706.425 24.6867 706.579 24.12 706.712 23.6H709.792Z" fill="white"/>
<path d="M1119.8 27.3285C1119.9 27.2315 1119.98 27.1149 1120.04 26.9854C1120.1 26.856 1120.14 26.7162 1120.14 26.574C1120.15 26.4318 1120.12 26.29 1120.07 26.1567C1120.02 26.0234 1119.95 25.9013 1119.85 25.7972C1119.75 25.6931 1119.64 25.6092 1119.51 25.5502C1119.38 25.4912 1119.24 25.4582 1119.1 25.4533C1118.95 25.4483 1118.81 25.4714 1118.68 25.5212C1118.55 25.571 1118.42 25.6466 1118.32 25.7436L1115.15 28.6989L1112.19 25.528C1112 25.3255 1111.73 25.2084 1111.44 25.2018C1111.16 25.1952 1110.89 25.2996 1110.68 25.4927C1110.47 25.6858 1110.35 25.9522 1110.34 26.235C1110.32 26.5177 1110.42 26.7944 1110.61 27.0057L1113.57 30.1755L1110.39 33.1308C1110.29 33.2269 1110.2 33.3435 1110.14 33.4738C1110.07 33.6041 1110.04 33.7455 1110.03 33.8897C1110.03 34.0339 1110.05 34.1779 1110.1 34.3134C1110.15 34.4489 1110.22 34.573 1110.32 34.6785C1110.42 34.7841 1110.54 34.8689 1110.67 34.928C1110.8 34.987 1110.95 35.0192 1111.09 35.0226C1111.23 35.0259 1111.38 35.0004 1111.51 34.9475C1111.65 34.8947 1111.77 34.8155 1111.87 34.7147L1115.04 31.7604L1118 34.9303C1118.09 35.04 1118.21 35.1294 1118.34 35.1931C1118.47 35.2568 1118.61 35.2936 1118.76 35.3012C1118.9 35.3088 1119.05 35.2871 1119.18 35.2374C1119.32 35.1877 1119.45 35.1109 1119.55 35.0118C1119.66 34.9126 1119.74 34.793 1119.8 34.6602C1119.86 34.5274 1119.9 34.384 1119.9 34.2386C1119.9 34.0932 1119.87 33.9488 1119.82 33.8139C1119.76 33.6791 1119.68 33.5565 1119.58 33.4537L1116.63 30.2838L1119.8 27.3285Z" fill="white"/>
<path fill-rule="evenodd" clip-rule="evenodd" d="M1103.18 30.2297C1103.18 23.6484 1108.51 18.313 1115.09 18.313C1121.68 18.313 1127.01 23.6484 1127.01 30.2297C1127.01 36.8109 1121.68 42.1463 1115.09 42.1463C1108.51 42.1463 1103.18 36.8109 1103.18 30.2297ZM1115.09 39.9797C1113.81 39.9797 1112.55 39.7275 1111.36 39.2375C1110.18 38.7475 1109.11 38.0293 1108.2 37.1239C1107.3 36.2186 1106.58 35.1437 1106.09 33.9608C1105.6 32.7779 1105.34 31.51 1105.34 30.2297C1105.34 28.9493 1105.6 27.6814 1106.09 26.4985C1106.58 25.3156 1107.3 24.2407 1108.2 23.3354C1109.11 22.43 1110.18 21.7118 1111.36 21.2218C1112.55 20.7318 1113.81 20.4797 1115.09 20.4797C1117.68 20.4797 1120.16 21.5069 1121.99 23.3354C1123.82 25.1638 1124.84 27.6438 1124.84 30.2297C1124.84 32.8155 1123.82 35.2955 1121.99 37.1239C1120.16 38.9524 1117.68 39.9797 1115.09 39.9797Z" fill="white"/>
<rect x="1124" y="112" width="19" height="515" rx="3" fill="#5B5B5B"/>
<rect x="1124.01" y="362.611" width="18.9867" height="232.763" rx="9.49335" fill="#C4C4C4" fill-opacity="0.71"/>
<path d="M35.9633 91V77.14H45.2433V79.76H39.0833V82.66H44.5633V85.28H39.0833V91H35.9633ZM50.2277 91H47.2477V80.48H50.2277V91ZM50.5077 77.44C50.5077 77.9867 50.3277 78.42 49.9677 78.74C49.621 79.0467 49.2077 79.2 48.7277 79.2C48.2477 79.2 47.8277 79.0467 47.4677 78.74C47.121 78.42 46.9477 77.9867 46.9477 77.44C46.9477 76.8933 47.121 76.4667 47.4677 76.16C47.8277 75.84 48.2477 75.68 48.7277 75.68C49.2077 75.68 49.621 75.84 49.9677 76.16C50.3277 76.4667 50.5077 76.8933 50.5077 77.44ZM57.2289 91.2C56.3622 91.1867 55.6556 91.0933 55.1089 90.92C54.5756 90.7467 54.1489 90.5067 53.8289 90.2C53.5222 89.88 53.3089 89.5 53.1889 89.06C53.0822 88.6067 53.0289 88.1 53.0289 87.54V75.96L56.0089 75.48V86.94C56.0089 87.2067 56.0289 87.4467 56.0689 87.66C56.1089 87.8733 56.1822 88.0533 56.2889 88.2C56.4089 88.3467 56.5756 88.4667 56.7889 88.56C57.0022 88.6533 57.2889 88.7133 57.6489 88.74L57.2289 91.2ZM58.857 85.82C58.857 84.8867 58.997 84.0733 59.277 83.38C59.5704 82.6733 59.9504 82.0867 60.417 81.62C60.8837 81.1533 61.417 80.8 62.017 80.56C62.6304 80.32 63.257 80.2 63.897 80.2C65.3904 80.2 66.5704 80.66 67.437 81.58C68.3037 82.4867 68.737 83.8267 68.737 85.6C68.737 85.7733 68.7304 85.9667 68.717 86.18C68.7037 86.38 68.6904 86.56 68.677 86.72H61.917C61.9837 87.3333 62.2704 87.82 62.777 88.18C63.2837 88.54 63.9637 88.72 64.817 88.72C65.3637 88.72 65.897 88.6733 66.417 88.58C66.9504 88.4733 67.3837 88.3467 67.717 88.2L68.117 90.62C67.957 90.7 67.7437 90.78 67.477 90.86C67.2104 90.94 66.9104 91.0067 66.577 91.06C66.257 91.1267 65.9104 91.18 65.537 91.22C65.1637 91.26 64.7904 91.28 64.417 91.28C63.4704 91.28 62.6437 91.14 61.937 90.86C61.2437 90.58 60.6637 90.2 60.197 89.72C59.7437 89.2267 59.4037 88.6467 59.177 87.98C58.9637 87.3133 58.857 86.5933 58.857 85.82ZM65.857 84.68C65.8437 84.4267 65.797 84.18 65.717 83.94C65.6504 83.7 65.537 83.4867 65.377 83.3C65.2304 83.1133 65.037 82.96 64.797 82.84C64.5704 82.72 64.2837 82.66 63.937 82.66C63.6037 82.66 63.317 82.72 63.077 82.84C62.837 82.9467 62.637 83.0933 62.477 83.28C62.317 83.4667 62.1904 83.6867 62.097 83.94C62.017 84.18 61.957 84.4267 61.917 84.68H65.857Z" fill="white"/>
<path d="M108.784 91V77.14H118.144V79.76H111.904V82.48H117.444V85.04H111.904V88.38H118.604V91H108.784ZM123.018 85.66C123.018 86.58 123.225 87.32 123.638 87.88C124.051 88.44 124.665 88.72 125.478 88.72C125.745 88.72 125.991 88.7133 126.218 88.7C126.445 88.6733 126.631 88.6467 126.778 88.62V83.2C126.591 83.08 126.345 82.98 126.038 82.9C125.745 82.82 125.445 82.78 125.138 82.78C123.725 82.78 123.018 83.74 123.018 85.66ZM129.758 90.66C129.491 90.74 129.185 90.82 128.838 90.9C128.491 90.9667 128.125 91.0267 127.738 91.08C127.365 91.1333 126.978 91.1733 126.578 91.2C126.191 91.24 125.818 91.26 125.458 91.26C124.591 91.26 123.818 91.1333 123.138 90.88C122.458 90.6267 121.885 90.2667 121.418 89.8C120.951 89.32 120.591 88.7467 120.338 88.08C120.098 87.4 119.978 86.64 119.978 85.8C119.978 84.9467 120.085 84.18 120.298 83.5C120.511 82.8067 120.818 82.22 121.218 81.74C121.618 81.26 122.105 80.8933 122.678 80.64C123.265 80.3867 123.931 80.26 124.678 80.26C125.091 80.26 125.458 80.3 125.778 80.38C126.111 80.46 126.445 80.5733 126.778 80.72V75.96L129.758 75.48V90.66ZM135.528 91H132.548V80.48H135.528V91ZM135.808 77.44C135.808 77.9867 135.628 78.42 135.268 78.74C134.922 79.0467 134.508 79.2 134.028 79.2C133.548 79.2 133.128 79.0467 132.768 78.74C132.422 78.42 132.248 77.9867 132.248 77.44C132.248 76.8933 132.422 76.4667 132.768 76.16C133.128 75.84 133.548 75.68 134.028 75.68C134.508 75.68 134.922 75.84 135.268 76.16C135.628 76.4667 135.808 76.8933 135.808 77.44ZM138.23 77.86L141.21 77.38V80.48H144.79V82.96H141.21V86.66C141.21 87.2867 141.316 87.7867 141.53 88.16C141.756 88.5333 142.203 88.72 142.87 88.72C143.19 88.72 143.516 88.6933 143.85 88.64C144.196 88.5733 144.51 88.4867 144.79 88.38L145.21 90.7C144.85 90.8467 144.45 90.9733 144.01 91.08C143.57 91.1867 143.03 91.24 142.39 91.24C141.576 91.24 140.903 91.1333 140.37 90.92C139.836 90.6933 139.41 90.3867 139.09 90C138.77 89.6 138.543 89.12 138.41 88.56C138.29 88 138.23 87.38 138.23 86.7V77.86Z" fill="white"/>
<path d="M188.931 91C188.384 89.84 187.844 88.6333 187.311 87.38C186.778 86.1267 186.271 84.8867 185.791 83.66C185.311 82.4333 184.864 81.26 184.451 80.14C184.051 79.02 183.704 78.02 183.411 77.14H186.851C187.118 77.94 187.404 78.8067 187.711 79.74C188.031 80.66 188.351 81.58 188.671 82.5C189.004 83.42 189.324 84.3 189.631 85.14C189.938 85.98 190.224 86.7067 190.491 87.32C190.744 86.7067 191.024 85.98 191.331 85.14C191.651 84.3 191.971 83.42 192.291 82.5C192.624 81.58 192.944 80.66 193.251 79.74C193.571 78.8067 193.864 77.94 194.131 77.14H197.451C197.144 78.02 196.791 79.02 196.391 80.14C195.991 81.26 195.551 82.4333 195.071 83.66C194.591 84.8867 194.084 86.1267 193.551 87.38C193.018 88.6333 192.478 89.84 191.931 91H188.931ZM202.025 91H199.045V80.48H202.025V91ZM202.305 77.44C202.305 77.9867 202.125 78.42 201.765 78.74C201.418 79.0467 201.005 79.2 200.525 79.2C200.045 79.2 199.625 79.0467 199.265 78.74C198.918 78.42 198.745 77.9867 198.745 77.44C198.745 76.8933 198.918 76.4667 199.265 76.16C199.625 75.84 200.045 75.68 200.525 75.68C201.005 75.68 201.418 75.84 201.765 76.16C202.125 76.4667 202.305 76.8933 202.305 77.44ZM204.326 85.82C204.326 84.8867 204.466 84.0733 204.746 83.38C205.039 82.6733 205.419 82.0867 205.886 81.62C206.352 81.1533 206.886 80.8 207.486 80.56C208.099 80.32 208.726 80.2 209.366 80.2C210.859 80.2 212.039 80.66 212.906 81.58C213.772 82.4867 214.206 83.8267 214.206 85.6C214.206 85.7733 214.199 85.9667 214.186 86.18C214.172 86.38 214.159 86.56 214.146 86.72H207.386C207.452 87.3333 207.739 87.82 208.246 88.18C208.752 88.54 209.432 88.72 210.286 88.72C210.832 88.72 211.366 88.6733 211.886 88.58C212.419 88.4733 212.852 88.3467 213.186 88.2L213.586 90.62C213.426 90.7 213.212 90.78 212.946 90.86C212.679 90.94 212.379 91.0067 212.046 91.06C211.726 91.1267 211.379 91.18 211.006 91.22C210.632 91.26 210.259 91.28 209.886 91.28C208.939 91.28 208.112 91.14 207.406 90.86C206.712 90.58 206.132 90.2 205.666 89.72C205.212 89.2267 204.872 88.6467 204.646 87.98C204.432 87.3133 204.326 86.5933 204.326 85.82ZM211.326 84.68C211.312 84.4267 211.266 84.18 211.186 83.94C211.119 83.7 211.006 83.4867 210.846 83.3C210.699 83.1133 210.506 82.96 210.266 82.84C210.039 82.72 209.752 82.66 209.406 82.66C209.072 82.66 208.786 82.72 208.546 82.84C208.306 82.9467 208.106 83.0933 207.946 83.28C207.786 83.4667 207.659 83.6867 207.566 83.94C207.486 84.18 207.426 84.4267 207.386 84.68H211.326ZM222.905 84.96C222.639 85.9733 222.352 86.98 222.045 87.98C221.752 88.98 221.439 89.9867 221.105 91H218.785C218.545 90.44 218.285 89.7733 218.005 89C217.725 88.2267 217.432 87.3867 217.125 86.48C216.832 85.56 216.525 84.5933 216.205 83.58C215.899 82.5533 215.599 81.52 215.305 80.48H218.445C218.552 80.96 218.665 81.4867 218.785 82.06C218.919 82.62 219.052 83.2 219.185 83.8C219.332 84.4 219.479 85.0067 219.625 85.62C219.785 86.22 219.945 86.8 220.105 87.36C220.279 86.7733 220.445 86.1733 220.605 85.56C220.779 84.9467 220.939 84.3467 221.085 83.76C221.245 83.16 221.392 82.5867 221.525 82.04C221.672 81.48 221.799 80.96 221.905 80.48H224.065C224.172 80.96 224.292 81.48 224.425 82.04C224.559 82.5867 224.699 83.16 224.845 83.76C224.992 84.3467 225.145 84.9467 225.305 85.56C225.465 86.1733 225.632 86.7733 225.805 87.36C225.965 86.8 226.125 86.22 226.285 85.62C226.445 85.0067 226.592 84.4 226.725 83.8C226.872 83.2 227.005 82.62 227.125 82.06C227.259 81.4867 227.379 80.96 227.485 80.48H230.585C230.292 81.52 229.985 82.5533 229.665 83.58C229.359 84.5933 229.052 85.56 228.745 86.48C228.452 87.3867 228.159 88.2267 227.865 89C227.585 89.7733 227.325 90.44 227.085 91H224.765C224.432 89.9867 224.105 88.98 223.785 87.98C223.465 86.98 223.172 85.9733 222.905 84.96Z" fill="white"/>
<path d="M273.683 88.62C274.123 88.62 274.483 88.5867 274.763 88.52C275.056 88.44 275.289 88.34 275.463 88.22C275.636 88.0867 275.756 87.9333 275.823 87.76C275.889 87.5867 275.923 87.3933 275.923 87.18C275.923 86.7267 275.709 86.3533 275.283 86.06C274.856 85.7533 274.123 85.4267 273.083 85.08C272.629 84.92 272.176 84.74 271.723 84.54C271.269 84.3267 270.863 84.0667 270.503 83.76C270.143 83.44 269.849 83.06 269.623 82.62C269.396 82.1667 269.283 81.62 269.283 80.98C269.283 80.34 269.403 79.7667 269.643 79.26C269.883 78.74 270.223 78.3 270.663 77.94C271.103 77.58 271.636 77.3067 272.263 77.12C272.889 76.92 273.596 76.82 274.383 76.82C275.316 76.82 276.123 76.92 276.803 77.12C277.483 77.32 278.043 77.54 278.483 77.78L277.583 80.24C277.196 80.04 276.763 79.8667 276.283 79.72C275.816 79.56 275.249 79.48 274.583 79.48C273.836 79.48 273.296 79.5867 272.963 79.8C272.643 80 272.483 80.3133 272.483 80.74C272.483 80.9933 272.543 81.2067 272.663 81.38C272.783 81.5533 272.949 81.7133 273.163 81.86C273.389 81.9933 273.643 82.12 273.923 82.24C274.216 82.3467 274.536 82.46 274.883 82.58C275.603 82.8467 276.229 83.1133 276.763 83.38C277.296 83.6333 277.736 83.9333 278.083 84.28C278.443 84.6267 278.709 85.0333 278.883 85.5C279.056 85.9667 279.143 86.5333 279.143 87.2C279.143 88.4933 278.689 89.5 277.783 90.22C276.876 90.9267 275.509 91.28 273.683 91.28C273.069 91.28 272.516 91.24 272.023 91.16C271.529 91.0933 271.089 91.0067 270.703 90.9C270.329 90.7933 270.003 90.68 269.723 90.56C269.456 90.44 269.229 90.3267 269.043 90.22L269.923 87.74C270.336 87.9667 270.843 88.1733 271.443 88.36C272.056 88.5333 272.803 88.62 273.683 88.62ZM280.843 85.82C280.843 84.8867 280.983 84.0733 281.263 83.38C281.557 82.6733 281.937 82.0867 282.403 81.62C282.87 81.1533 283.403 80.8 284.003 80.56C284.617 80.32 285.243 80.2 285.883 80.2C287.377 80.2 288.557 80.66 289.423 81.58C290.29 82.4867 290.723 83.8267 290.723 85.6C290.723 85.7733 290.717 85.9667 290.703 86.18C290.69 86.38 290.677 86.56 290.663 86.72H283.903C283.97 87.3333 284.257 87.82 284.763 88.18C285.27 88.54 285.95 88.72 286.803 88.72C287.35 88.72 287.883 88.6733 288.403 88.58C288.937 88.4733 289.37 88.3467 289.703 88.2L290.103 90.62C289.943 90.7 289.73 90.78 289.463 90.86C289.197 90.94 288.897 91.0067 288.563 91.06C288.243 91.1267 287.897 91.18 287.523 91.22C287.15 91.26 286.777 91.28 286.403 91.28C285.457 91.28 284.63 91.14 283.923 90.86C283.23 90.58 282.65 90.2 282.183 89.72C281.73 89.2267 281.39 88.6467 281.163 87.98C280.95 87.3133 280.843 86.5933 280.843 85.82ZM287.843 84.68C287.83 84.4267 287.783 84.18 287.703 83.94C287.637 83.7 287.523 83.4867 287.363 83.3C287.217 83.1133 287.023 82.96 286.783 82.84C286.557 82.72 286.27 82.66 285.923 82.66C285.59 82.66 285.303 82.72 285.063 82.84C284.823 82.9467 284.623 83.0933 284.463 83.28C284.303 83.4667 284.177 83.6867 284.083 83.94C284.003 84.18 283.943 84.4267 283.903 84.68H287.843ZM297.043 88.92C297.336 88.92 297.616 88.9133 297.883 88.9C298.15 88.8867 298.363 88.8667 298.523 88.84V86.58C298.403 86.5533 298.223 86.5267 297.983 86.5C297.743 86.4733 297.523 86.46 297.323 86.46C297.043 86.46 296.776 86.48 296.523 86.52C296.283 86.5467 296.07 86.6067 295.883 86.7C295.696 86.7933 295.55 86.92 295.443 87.08C295.336 87.24 295.283 87.44 295.283 87.68C295.283 88.1467 295.436 88.4733 295.743 88.66C296.063 88.8333 296.496 88.92 297.043 88.92ZM296.803 80.2C297.683 80.2 298.416 80.3 299.003 80.5C299.59 80.7 300.056 80.9867 300.403 81.36C300.763 81.7333 301.016 82.1867 301.163 82.72C301.31 83.2533 301.383 83.8467 301.383 84.5V90.7C300.956 90.7933 300.363 90.9 299.603 91.02C298.843 91.1533 297.923 91.22 296.843 91.22C296.163 91.22 295.543 91.16 294.983 91.04C294.436 90.92 293.963 90.7267 293.563 90.46C293.163 90.18 292.856 89.82 292.643 89.38C292.43 88.94 292.323 88.4 292.323 87.76C292.323 87.1467 292.443 86.6267 292.683 86.2C292.936 85.7733 293.27 85.4333 293.683 85.18C294.096 84.9267 294.57 84.7467 295.103 84.64C295.636 84.52 296.19 84.46 296.763 84.46C297.15 84.46 297.49 84.48 297.783 84.52C298.09 84.5467 298.336 84.5867 298.523 84.64V84.36C298.523 83.8533 298.37 83.4467 298.063 83.14C297.756 82.8333 297.223 82.68 296.463 82.68C295.956 82.68 295.456 82.72 294.963 82.8C294.47 82.8667 294.043 82.9667 293.683 83.1L293.303 80.7C293.476 80.6467 293.69 80.5933 293.943 80.54C294.21 80.4733 294.496 80.42 294.803 80.38C295.11 80.3267 295.43 80.2867 295.763 80.26C296.11 80.22 296.456 80.2 296.803 80.2ZM310.418 83.12C310.151 83.0533 309.838 82.9867 309.478 82.92C309.118 82.84 308.731 82.8 308.318 82.8C308.131 82.8 307.904 82.82 307.638 82.86C307.384 82.8867 307.191 82.92 307.058 82.96V91H304.078V81.04C304.611 80.8533 305.238 80.68 305.958 80.52C306.691 80.3467 307.504 80.26 308.398 80.26C308.558 80.26 308.751 80.2733 308.978 80.3C309.204 80.3133 309.431 80.34 309.658 80.38C309.884 80.4067 310.111 80.4467 310.338 80.5C310.564 80.54 310.758 80.5933 310.918 80.66L310.418 83.12ZM311.82 85.74C311.82 84.98 311.94 84.2667 312.18 83.6C312.433 82.92 312.793 82.3333 313.26 81.84C313.727 81.3333 314.293 80.9333 314.96 80.64C315.627 80.3467 316.387 80.2 317.24 80.2C317.8 80.2 318.313 80.2533 318.78 80.36C319.247 80.4533 319.7 80.5933 320.14 80.78L319.52 83.16C319.24 83.0533 318.933 82.96 318.6 82.88C318.267 82.8 317.893 82.76 317.48 82.76C316.6 82.76 315.94 83.0333 315.5 83.58C315.073 84.1267 314.86 84.8467 314.86 85.74C314.86 86.6867 315.06 87.42 315.46 87.94C315.873 88.46 316.587 88.72 317.6 88.72C317.96 88.72 318.347 88.6867 318.76 88.62C319.173 88.5533 319.553 88.4467 319.9 88.3L320.32 90.74C319.973 90.8867 319.54 91.0133 319.02 91.12C318.5 91.2267 317.927 91.28 317.3 91.28C316.34 91.28 315.513 91.14 314.82 90.86C314.127 90.5667 313.553 90.1733 313.1 89.68C312.66 89.1867 312.333 88.6067 312.12 87.94C311.92 87.26 311.82 86.5267 311.82 85.74ZM322.32 91V75.96L325.3 75.48V80.52C325.5 80.4533 325.753 80.3933 326.06 80.34C326.38 80.2733 326.687 80.24 326.98 80.24C327.833 80.24 328.54 80.36 329.1 80.6C329.673 80.8267 330.127 81.1533 330.46 81.58C330.807 82.0067 331.047 82.5133 331.18 83.1C331.327 83.6867 331.4 84.34 331.4 85.06V91H328.42V85.42C328.42 84.46 328.293 83.78 328.04 83.38C327.8 82.98 327.347 82.78 326.68 82.78C326.413 82.78 326.16 82.8067 325.92 82.86C325.693 82.9 325.487 82.9467 325.3 83V91H322.32Z" fill="white"/>
<path d="M382.337 77.14V79.8H378.157V91H375.037V79.8H370.857V77.14H382.337ZM382.138 85.82C382.138 84.8867 382.278 84.0733 382.558 83.38C382.852 82.6733 383.232 82.0867 383.698 81.62C384.165 81.1533 384.698 80.8 385.298 80.56C385.912 80.32 386.538 80.2 387.178 80.2C388.672 80.2 389.852 80.66 390.718 81.58C391.585 82.4867 392.018 83.8267 392.018 85.6C392.018 85.7733 392.012 85.9667 391.998 86.18C391.985 86.38 391.972 86.56 391.958 86.72H385.198C385.265 87.3333 385.552 87.82 386.058 88.18C386.565 88.54 387.245 88.72 388.098 88.72C388.645 88.72 389.178 88.6733 389.698 88.58C390.232 88.4733 390.665 88.3467 390.998 88.2L391.398 90.62C391.238 90.7 391.025 90.78 390.758 90.86C390.492 90.94 390.192 91.0067 389.858 91.06C389.538 91.1267 389.192 91.18 388.818 91.22C388.445 91.26 388.072 91.28 387.698 91.28C386.752 91.28 385.925 91.14 385.218 90.86C384.525 90.58 383.945 90.2 383.478 89.72C383.025 89.2267 382.685 88.6467 382.458 87.98C382.245 87.3133 382.138 86.5933 382.138 85.82ZM389.138 84.68C389.125 84.4267 389.078 84.18 388.998 83.94C388.932 83.7 388.818 83.4867 388.658 83.3C388.512 83.1133 388.318 82.96 388.078 82.84C387.852 82.72 387.565 82.66 387.218 82.66C386.885 82.66 386.598 82.72 386.358 82.84C386.118 82.9467 385.918 83.0933 385.758 83.28C385.598 83.4667 385.472 83.6867 385.378 83.94C385.298 84.18 385.238 84.4267 385.198 84.68H389.138ZM400.658 83.12C400.391 83.0533 400.078 82.9867 399.718 82.92C399.358 82.84 398.971 82.8 398.558 82.8C398.371 82.8 398.145 82.82 397.878 82.86C397.625 82.8867 397.431 82.92 397.298 82.96V91H394.318V81.04C394.851 80.8533 395.478 80.68 396.198 80.52C396.931 80.3467 397.745 80.26 398.638 80.26C398.798 80.26 398.991 80.2733 399.218 80.3C399.445 80.3133 399.671 80.34 399.898 80.38C400.125 80.4067 400.351 80.4467 400.578 80.5C400.805 80.54 400.998 80.5933 401.158 80.66L400.658 83.12ZM408.535 85.42C408.535 84.46 408.409 83.78 408.155 83.38C407.915 82.98 407.495 82.78 406.895 82.78C406.709 82.78 406.515 82.7933 406.315 82.82C406.115 82.8333 405.922 82.8533 405.735 82.88V91H402.755V80.84C403.009 80.7733 403.302 80.7067 403.635 80.64C403.982 80.56 404.342 80.4933 404.715 80.44C405.102 80.3733 405.495 80.3267 405.895 80.3C406.295 80.26 406.689 80.24 407.075 80.24C407.835 80.24 408.449 80.34 408.915 80.54C409.395 80.7267 409.789 80.9533 410.095 81.22C410.522 80.9133 411.009 80.6733 411.555 80.5C412.115 80.3267 412.629 80.24 413.095 80.24C413.935 80.24 414.622 80.36 415.155 80.6C415.702 80.8267 416.135 81.1533 416.455 81.58C416.775 82.0067 416.995 82.5133 417.115 83.1C417.235 83.6867 417.295 84.34 417.295 85.06V91H414.315V85.42C414.315 84.46 414.189 83.78 413.935 83.38C413.695 82.98 413.275 82.78 412.675 82.78C412.515 82.78 412.289 82.82 411.995 82.9C411.715 82.98 411.482 83.08 411.295 83.2C411.389 83.5067 411.449 83.8333 411.475 84.18C411.502 84.5133 411.515 84.8733 411.515 85.26V91H408.535V85.42ZM422.982 91H420.002V80.48H422.982V91ZM423.262 77.44C423.262 77.9867 423.082 78.42 422.722 78.74C422.375 79.0467 421.962 79.2 421.482 79.2C421.002 79.2 420.582 79.0467 420.222 78.74C419.875 78.42 419.702 77.9867 419.702 77.44C419.702 76.8933 419.875 76.4667 420.222 76.16C420.582 75.84 421.002 75.68 421.482 75.68C421.962 75.68 422.375 75.84 422.722 76.16C423.082 76.4667 423.262 76.8933 423.262 77.44ZM425.783 80.84C426.289 80.6933 426.943 80.56 427.743 80.44C428.543 80.3067 429.383 80.24 430.263 80.24C431.156 80.24 431.896 80.36 432.483 80.6C433.083 80.8267 433.556 81.1533 433.903 81.58C434.249 82.0067 434.496 82.5133 434.643 83.1C434.789 83.6867 434.863 84.34 434.863 85.06V91H431.883V85.42C431.883 84.46 431.756 83.78 431.503 83.38C431.249 82.98 430.776 82.78 430.083 82.78C429.869 82.78 429.643 82.7933 429.403 82.82C429.163 82.8333 428.949 82.8533 428.763 82.88V91H425.783V80.84ZM441.58 88.92C441.873 88.92 442.153 88.9133 442.42 88.9C442.687 88.8867 442.9 88.8667 443.06 88.84V86.58C442.94 86.5533 442.76 86.5267 442.52 86.5C442.28 86.4733 442.06 86.46 441.86 86.46C441.58 86.46 441.313 86.48 441.06 86.52C440.82 86.5467 440.607 86.6067 440.42 86.7C440.233 86.7933 440.087 86.92 439.98 87.08C439.873 87.24 439.82 87.44 439.82 87.68C439.82 88.1467 439.973 88.4733 440.28 88.66C440.6 88.8333 441.033 88.92 441.58 88.92ZM441.34 80.2C442.22 80.2 442.953 80.3 443.54 80.5C444.127 80.7 444.593 80.9867 444.94 81.36C445.3 81.7333 445.553 82.1867 445.7 82.72C445.847 83.2533 445.92 83.8467 445.92 84.5V90.7C445.493 90.7933 444.9 90.9 444.14 91.02C443.38 91.1533 442.46 91.22 441.38 91.22C440.7 91.22 440.08 91.16 439.52 91.04C438.973 90.92 438.5 90.7267 438.1 90.46C437.7 90.18 437.393 89.82 437.18 89.38C436.967 88.94 436.86 88.4 436.86 87.76C436.86 87.1467 436.98 86.6267 437.22 86.2C437.473 85.7733 437.807 85.4333 438.22 85.18C438.633 84.9267 439.107 84.7467 439.64 84.64C440.173 84.52 440.727 84.46 441.3 84.46C441.687 84.46 442.027 84.48 442.32 84.52C442.627 84.5467 442.873 84.5867 443.06 84.64V84.36C443.06 83.8533 442.907 83.4467 442.6 83.14C442.293 82.8333 441.76 82.68 441 82.68C440.493 82.68 439.993 82.72 439.5 82.8C439.007 82.8667 438.58 82.9667 438.22 83.1L437.84 80.7C438.013 80.6467 438.227 80.5933 438.48 80.54C438.747 80.4733 439.033 80.42 439.34 80.38C439.647 80.3267 439.967 80.2867 440.3 80.26C440.647 80.22 440.993 80.2 441.34 80.2ZM452.815 91.2C451.948 91.1867 451.242 91.0933 450.695 90.92C450.162 90.7467 449.735 90.5067 449.415 90.2C449.108 89.88 448.895 89.5 448.775 89.06C448.668 88.6067 448.615 88.1 448.615 87.54V75.96L451.595 75.48V86.94C451.595 87.2067 451.615 87.4467 451.655 87.66C451.695 87.8733 451.768 88.0533 451.875 88.2C451.995 88.3467 452.162 88.4667 452.375 88.56C452.588 88.6533 452.875 88.7133 453.235 88.74L452.815 91.2Z" fill="white"/>
<path d="M501.077 77.14H504.197V91H501.077V85.12H495.837V91H492.717V77.14H495.837V82.44H501.077V77.14ZM506.705 85.82C506.705 84.8867 506.845 84.0733 507.125 83.38C507.418 82.6733 507.798 82.0867 508.265 81.62C508.731 81.1533 509.265 80.8 509.865 80.56C510.478 80.32 511.105 80.2 511.745 80.2C513.238 80.2 514.418 80.66 515.285 81.58C516.151 82.4867 516.585 83.8267 516.585 85.6C516.585 85.7733 516.578 85.9667 516.565 86.18C516.551 86.38 516.538 86.56 516.525 86.72H509.765C509.831 87.3333 510.118 87.82 510.625 88.18C511.131 88.54 511.811 88.72 512.665 88.72C513.211 88.72 513.745 88.6733 514.265 88.58C514.798 88.4733 515.231 88.3467 515.565 88.2L515.965 90.62C515.805 90.7 515.591 90.78 515.325 90.86C515.058 90.94 514.758 91.0067 514.425 91.06C514.105 91.1267 513.758 91.18 513.385 91.22C513.011 91.26 512.638 91.28 512.265 91.28C511.318 91.28 510.491 91.14 509.785 90.86C509.091 90.58 508.511 90.2 508.045 89.72C507.591 89.2267 507.251 88.6467 507.025 87.98C506.811 87.3133 506.705 86.5933 506.705 85.82ZM513.705 84.68C513.691 84.4267 513.645 84.18 513.565 83.94C513.498 83.7 513.385 83.4867 513.225 83.3C513.078 83.1133 512.885 82.96 512.645 82.84C512.418 82.72 512.131 82.66 511.785 82.66C511.451 82.66 511.165 82.72 510.925 82.84C510.685 82.9467 510.485 83.0933 510.325 83.28C510.165 83.4667 510.038 83.6867 509.945 83.94C509.865 84.18 509.805 84.4267 509.765 84.68H513.705ZM523.084 91.2C522.218 91.1867 521.511 91.0933 520.964 90.92C520.431 90.7467 520.004 90.5067 519.684 90.2C519.378 89.88 519.164 89.5 519.044 89.06C518.938 88.6067 518.884 88.1 518.884 87.54V75.96L521.864 75.48V86.94C521.864 87.2067 521.884 87.4467 521.924 87.66C521.964 87.8733 522.038 88.0533 522.144 88.2C522.264 88.3467 522.431 88.4667 522.644 88.56C522.858 88.6533 523.144 88.7133 523.504 88.74L523.084 91.2ZM531.953 85.82C531.953 84.9 531.746 84.1667 531.333 83.62C530.919 83.06 530.306 82.78 529.493 82.78C529.226 82.78 528.979 82.7933 528.753 82.82C528.526 82.8333 528.339 82.8533 528.193 82.88V88.26C528.379 88.38 528.619 88.48 528.913 88.56C529.219 88.64 529.526 88.68 529.833 88.68C531.246 88.68 531.953 87.7267 531.953 85.82ZM534.993 85.74C534.993 86.5533 534.893 87.2933 534.693 87.96C534.493 88.6267 534.199 89.2 533.812 89.68C533.426 90.16 532.946 90.5333 532.373 90.8C531.799 91.0667 531.139 91.2 530.393 91.2C529.979 91.2 529.593 91.16 529.233 91.08C528.873 91 528.526 90.8867 528.193 90.74V94.7H525.213V80.84C525.479 80.76 525.786 80.6867 526.133 80.62C526.479 80.54 526.839 80.4733 527.213 80.42C527.599 80.3667 527.986 80.3267 528.373 80.3C528.773 80.26 529.153 80.24 529.513 80.24C530.379 80.24 531.153 80.3733 531.833 80.64C532.513 80.8933 533.086 81.26 533.553 81.74C534.019 82.2067 534.373 82.78 534.613 83.46C534.866 84.14 534.993 84.9 534.993 85.74Z" fill="white"/>
</svg>
