<svg width="762" height="118" viewBox="0 0 762 118" fill="none" xmlns="http://www.w3.org/2000/svg">
<rect width="762" height="114" fill="#DC4313" fill-opacity="0.8"/>
<path d="M33.3398 34.4659V29.7726H38.0332V34.4659H33.3398ZM33.3398 48.2472V43.5714H38.0332V48.2472H33.3398ZM44.7305 34.4659V29.7726H49.4238V34.4659H44.7305ZM44.7305 48.2472V43.5714H49.4238V48.2472H44.7305ZM138.703 25.0616L143.643 42.4816L148.529 25.0616H145.365V21.757H157.529V25.0616H154.4L159.234 42.4816L164.191 25.0616H161.062V21.757H170.783V25.0616H167.725L161.027 48.5284H157.283L151.307 27.4347L145.365 48.5284H141.656L134.889 25.0616H131.76V21.757H141.885V25.0616H138.703ZM186.41 24.9562L193.582 44.9425H196.535V48.2472H186.094V44.9425H189.557L187.5 38.9308H177.885L175.828 44.9425H179.186V48.2472H168.674V44.9425H171.873L179.01 24.9562H175.828V21.757H189.592V24.9562H186.41ZM182.789 24.9562H182.666L178.922 35.8195H186.445L182.789 24.9562ZM218.191 28.7003C218.191 30.3995 217.711 31.8292 216.75 32.9894C215.789 34.1378 214.447 34.9288 212.725 35.3624L217.4 44.9425H220.635V48.2472H214.693L208.84 35.9073H205.131V44.9425H208.506V48.2472H197.537V44.9425H201.123V25.0616H197.537V21.757H208.541C211.951 21.757 214.412 22.3136 215.924 23.4269C217.436 24.5402 218.191 26.298 218.191 28.7003ZM214.061 28.63C214.061 27.3995 213.674 26.4972 212.9 25.923C212.127 25.3488 210.902 25.0616 209.227 25.0616H205.131V32.5851H208.98C210.703 32.5851 211.98 32.2863 212.812 31.6886C213.645 31.0909 214.061 30.0714 214.061 28.63ZM242.502 25.0616H238.723V21.757H249.586V25.0616H245.701V48.5284H241.588L228.879 25.8878V44.9425H232.676V48.2472H221.83V44.9425H225.609V25.0616H221.83V21.757H230.865L242.502 42.3409V25.0616ZM258.428 25.0616V44.9425H261.311V48.2472H251.555V44.9425H254.42V25.0616H251.555V21.757H261.311V25.0616H258.428ZM283.951 25.0616H280.172V21.757H291.035V25.0616H287.15V48.5284H283.037L270.328 25.8878V44.9425H274.125V48.2472H263.279V44.9425H267.059V25.0616H263.279V21.757H272.314L283.951 42.3409V25.0616ZM316.33 24.6749V21.757H319.705V30.4581H316.33C315.557 28.7589 314.332 27.3995 312.656 26.38C310.992 25.3605 309.24 24.8507 307.4 24.8507C305.572 24.8507 303.943 25.2843 302.514 26.1515C301.084 27.007 299.971 28.1906 299.174 29.7023C298.389 31.214 297.996 32.9308 297.996 34.8527C297.996 36.8683 298.412 38.6554 299.244 40.214C300.076 41.7726 301.23 42.9855 302.707 43.8527C304.195 44.7198 305.889 45.1534 307.787 45.1534C309.229 45.1534 310.564 44.8898 311.795 44.3624C313.037 43.8351 314.062 43.0851 314.871 42.1124C315.691 41.1398 316.201 40.0265 316.4 38.7726H311.531V35.4327H321.182V36.2941C321.182 38.8136 320.607 41.0109 319.459 42.8859C318.311 44.7609 316.723 46.1964 314.695 47.1925C312.68 48.1886 310.412 48.6866 307.893 48.6866C305.021 48.6866 302.502 48.1124 300.334 46.964C298.178 45.8038 296.52 44.1866 295.359 42.1124C294.211 40.0382 293.637 37.63 293.637 34.8878C293.637 32.2745 294.211 29.9366 295.359 27.8741C296.52 25.8116 298.113 24.2062 300.141 23.0577C302.168 21.8976 304.465 21.3175 307.031 21.3175C310.664 21.3175 313.764 22.4366 316.33 24.6749ZM336.035 34.4659V29.7726H340.729V34.4659H336.035ZM336.035 48.2472V43.5714H340.729V48.2472H336.035ZM370.963 36.2941V45.0128H374.057V48.2472H367.764V45.9796C366.006 47.7023 364.049 48.5636 361.893 48.5636C360.756 48.5636 359.713 48.2999 358.764 47.7726C357.826 47.2452 357.07 46.5421 356.496 45.6632C355.934 44.7726 355.652 43.7882 355.652 42.7101C355.652 41.5499 355.963 40.5187 356.584 39.6163C357.217 38.7023 358.066 37.9991 359.133 37.507C360.199 37.0148 361.271 36.7687 362.35 36.7687C364.154 36.7687 365.836 37.296 367.395 38.3507V36.3644C367.395 34.923 367.09 33.8917 366.48 33.2706C365.871 32.6495 364.869 32.339 363.475 32.339C362.49 32.339 361.664 32.5206 360.996 32.8839C360.34 33.2355 359.795 33.7745 359.361 34.5011L355.881 33.6398C356.666 32.1749 357.727 31.0851 359.062 30.3702C360.398 29.6437 361.986 29.2804 363.826 29.2804C366.299 29.2804 368.104 29.8429 369.24 30.9679C370.389 32.0929 370.963 33.8683 370.963 36.2941ZM362.385 45.7687C364.166 45.7687 365.836 45.0245 367.395 43.5363V41.3741C365.812 40.1437 364.23 39.5284 362.648 39.5284C361.688 39.5284 360.855 39.8331 360.152 40.4425C359.461 41.0402 359.115 41.796 359.115 42.7101C359.115 43.589 359.42 44.3214 360.029 44.9073C360.639 45.4816 361.424 45.7687 362.385 45.7687ZM385.359 29.7726V33.0245H381.984V42.7101C381.984 43.7179 382.09 44.3741 382.301 44.6788C382.523 44.9718 382.898 45.1183 383.426 45.1183C384.07 45.1183 384.715 45.007 385.359 44.7843V48.0714C384.234 48.3995 383.326 48.5636 382.635 48.5636C381.111 48.5636 380.016 48.1827 379.348 47.421C378.68 46.6476 378.346 45.3292 378.346 43.4659V33.0245H375.938V29.7726H378.346V26.9777L381.984 23.6554V29.7726H385.359ZM397.102 29.7726V33.0245H393.727V42.7101C393.727 43.7179 393.832 44.3741 394.043 44.6788C394.266 44.9718 394.641 45.1183 395.168 45.1183C395.812 45.1183 396.457 45.007 397.102 44.7843V48.0714C395.977 48.3995 395.068 48.5636 394.377 48.5636C392.854 48.5636 391.758 48.1827 391.09 47.421C390.422 46.6476 390.088 45.3292 390.088 43.4659V33.0245H387.68V29.7726H390.088V26.9777L393.727 23.6554V29.7726H397.102ZM415.33 36.2941V45.0128H418.424V48.2472H412.131V45.9796C410.373 47.7023 408.416 48.5636 406.26 48.5636C405.123 48.5636 404.08 48.2999 403.131 47.7726C402.193 47.2452 401.438 46.5421 400.863 45.6632C400.301 44.7726 400.02 43.7882 400.02 42.7101C400.02 41.5499 400.33 40.5187 400.951 39.6163C401.584 38.7023 402.434 37.9991 403.5 37.507C404.566 37.0148 405.639 36.7687 406.717 36.7687C408.521 36.7687 410.203 37.296 411.762 38.3507V36.3644C411.762 34.923 411.457 33.8917 410.848 33.2706C410.238 32.6495 409.236 32.339 407.842 32.339C406.857 32.339 406.031 32.5206 405.363 32.8839C404.707 33.2355 404.162 33.7745 403.729 34.5011L400.248 33.6398C401.033 32.1749 402.094 31.0851 403.43 30.3702C404.766 29.6437 406.354 29.2804 408.193 29.2804C410.666 29.2804 412.471 29.8429 413.607 30.9679C414.756 32.0929 415.33 33.8683 415.33 36.2941ZM406.752 45.7687C408.533 45.7687 410.203 45.0245 411.762 43.5363V41.3741C410.18 40.1437 408.598 39.5284 407.016 39.5284C406.055 39.5284 405.223 39.8331 404.52 40.4425C403.828 41.0402 403.482 41.796 403.482 42.7101C403.482 43.589 403.787 44.3214 404.396 44.9073C405.006 45.4816 405.791 45.7687 406.752 45.7687ZM434.736 31.1085V29.7726H437.971V36.7687H434.736C434.596 35.421 434.057 34.3956 433.119 33.6925C432.182 32.9777 431.098 32.6202 429.867 32.6202C428.812 32.6202 427.863 32.9015 427.02 33.464C426.188 34.0265 425.543 34.7882 425.086 35.7491C424.629 36.7101 424.4 37.7589 424.4 38.8956C424.4 40.8292 424.916 42.4113 425.947 43.6417C426.979 44.8605 428.338 45.4698 430.025 45.4698C432.639 45.4698 434.484 44.257 435.562 41.8312L438.586 43.2726C436.887 46.9523 433.98 48.7921 429.867 48.7921C428.027 48.7921 426.393 48.3585 424.963 47.4913C423.533 46.6241 422.426 45.4347 421.641 43.923C420.867 42.4113 420.48 40.7355 420.48 38.8956C420.48 37.0909 420.873 35.4503 421.658 33.9738C422.455 32.4972 423.545 31.3488 424.928 30.5284C426.311 29.6964 427.852 29.2804 429.551 29.2804C431.566 29.2804 433.295 29.8898 434.736 31.1085ZM453.791 32.796H450.873V29.7726H461.104V32.796H458.256L451.348 38.5265L457.869 45.0128H461.104V48.2472H456.305L447.059 38.9308V45.0128H450.188V48.2472H440.115V45.0128H443.42V24.9562H440.115V21.757H447.059V38.4562L453.791 32.796ZM469.312 23.5499C469.312 24.1476 469.096 24.6632 468.662 25.0968C468.229 25.5304 467.713 25.7472 467.115 25.7472C466.518 25.7472 466.008 25.5304 465.586 25.0968C465.164 24.6632 464.953 24.1476 464.953 23.5499C464.953 22.9523 465.164 22.4366 465.586 22.0031C466.008 21.5695 466.518 21.3527 467.115 21.3527C467.736 21.3527 468.258 21.5636 468.68 21.9855C469.102 22.4073 469.312 22.9288 469.312 23.5499ZM471.914 45.0128V48.2472H462.58V45.0128H465.463V33.0245H462.58V29.7726H469.102V45.0128H471.914ZM491.689 35.8195V45.0128H494.783V48.2472H488.051V36.048C488.051 34.8878 487.881 34.0558 487.541 33.5519C487.213 33.048 486.668 32.796 485.906 32.796C484.289 32.796 482.473 33.5929 480.457 35.1866V45.0128H483.639V48.2472H473.619V45.0128H476.871V33.0245H473.619V29.7726H480.457V32.005C482.719 30.3527 484.846 29.5265 486.838 29.5265C488.49 29.5265 489.709 30.0363 490.494 31.0558C491.291 32.0753 491.689 33.6632 491.689 35.8195ZM512.502 32.4445V29.7726H519.445V33.0245H516.105V46.8761C516.105 50.0988 515.291 52.5831 513.662 54.3292C512.045 56.087 509.678 56.9659 506.561 56.9659C503.607 56.9659 501.088 56.1339 499.002 54.4698L501.34 51.8507C502.184 52.4718 503.027 52.9347 503.871 53.2394C504.727 53.5558 505.658 53.714 506.666 53.714C508.494 53.714 509.924 53.1456 510.955 52.0089C511.986 50.8722 512.502 49.3663 512.502 47.4913V45.7687C511.705 46.7062 510.691 47.4445 509.461 47.9835C508.242 48.5226 507.023 48.7921 505.805 48.7921C504.094 48.7921 502.553 48.3585 501.182 47.4913C499.822 46.6241 498.756 45.4757 497.982 44.046C497.221 42.6046 496.84 41.0284 496.84 39.3175C496.84 37.5714 497.238 35.9484 498.035 34.4484C498.844 32.9484 499.945 31.7531 501.34 30.8624C502.734 29.9718 504.281 29.5265 505.98 29.5265C507.199 29.5265 508.336 29.7667 509.391 30.2472C510.457 30.7277 511.494 31.4601 512.502 32.4445ZM506.49 45.5402C507.639 45.5402 508.676 45.2531 509.602 44.6788C510.527 44.1046 511.248 43.3312 511.764 42.3585C512.279 41.3859 512.537 40.337 512.537 39.212C512.537 38.1573 512.279 37.1437 511.764 36.171C511.248 35.1984 510.533 34.4132 509.619 33.8156C508.705 33.2179 507.686 32.9191 506.561 32.9191C505.459 32.9191 504.457 33.2062 503.555 33.7804C502.652 34.3546 501.949 35.1281 501.445 36.1007C500.941 37.0734 500.689 38.1222 500.689 39.2472C500.689 40.3956 500.93 41.4503 501.41 42.4113C501.891 43.3722 502.57 44.1339 503.449 44.6964C504.34 45.2589 505.354 45.5402 506.49 45.5402ZM540.293 29.7726V33.0245H536.918V42.7101C536.918 43.7179 537.023 44.3741 537.234 44.6788C537.457 44.9718 537.832 45.1183 538.359 45.1183C539.004 45.1183 539.648 45.007 540.293 44.7843V48.0714C539.168 48.3995 538.26 48.5636 537.568 48.5636C536.045 48.5636 534.949 48.1827 534.281 47.421C533.613 46.6476 533.279 45.3292 533.279 43.4659V33.0245H530.871V29.7726H533.279V26.9777L536.918 23.6554V29.7726H540.293ZM558.521 36.2941V45.0128H561.615V48.2472H555.322V45.9796C553.564 47.7023 551.607 48.5636 549.451 48.5636C548.314 48.5636 547.271 48.2999 546.322 47.7726C545.385 47.2452 544.629 46.5421 544.055 45.6632C543.492 44.7726 543.211 43.7882 543.211 42.7101C543.211 41.5499 543.521 40.5187 544.143 39.6163C544.775 38.7023 545.625 37.9991 546.691 37.507C547.758 37.0148 548.83 36.7687 549.908 36.7687C551.713 36.7687 553.395 37.296 554.953 38.3507V36.3644C554.953 34.923 554.648 33.8917 554.039 33.2706C553.43 32.6495 552.428 32.339 551.033 32.339C550.049 32.339 549.223 32.5206 548.555 32.8839C547.898 33.2355 547.354 33.7745 546.92 34.5011L543.439 33.6398C544.225 32.1749 545.285 31.0851 546.621 30.3702C547.957 29.6437 549.545 29.2804 551.385 29.2804C553.857 29.2804 555.662 29.8429 556.799 30.9679C557.947 32.0929 558.521 33.8683 558.521 36.2941ZM549.943 45.7687C551.725 45.7687 553.395 45.0245 554.953 43.5363V41.3741C553.371 40.1437 551.789 39.5284 550.207 39.5284C549.246 39.5284 548.414 39.8331 547.711 40.4425C547.02 41.0402 546.674 41.796 546.674 42.7101C546.674 43.589 546.979 44.3214 547.588 44.9073C548.197 45.4816 548.982 45.7687 549.943 45.7687ZM570.404 40.8292V45.0128H574.43V48.2472H563.092V45.0128H566.801V33.0245H563.092V29.7726H569.684V33.9562C570.422 32.3038 571.336 31.1554 572.426 30.5109C573.527 29.8546 575.098 29.5265 577.137 29.5265H577.963V33.2003H577.172C575.203 33.2003 573.738 33.4581 572.777 33.9738C571.816 34.4894 571.178 35.2687 570.861 36.3116C570.557 37.3546 570.404 38.8605 570.404 40.8292ZM593.467 32.4445V29.7726H600.41V33.0245H597.07V46.8761C597.07 50.0988 596.256 52.5831 594.627 54.3292C593.01 56.087 590.643 56.9659 587.525 56.9659C584.572 56.9659 582.053 56.1339 579.967 54.4698L582.305 51.8507C583.148 52.4718 583.992 52.9347 584.836 53.2394C585.691 53.5558 586.623 53.714 587.631 53.714C589.459 53.714 590.889 53.1456 591.92 52.0089C592.951 50.8722 593.467 49.3663 593.467 47.4913V45.7687C592.67 46.7062 591.656 47.4445 590.426 47.9835C589.207 48.5226 587.988 48.7921 586.77 48.7921C585.059 48.7921 583.518 48.3585 582.146 47.4913C580.787 46.6241 579.721 45.4757 578.947 44.046C578.186 42.6046 577.805 41.0284 577.805 39.3175C577.805 37.5714 578.203 35.9484 579 34.4484C579.809 32.9484 580.91 31.7531 582.305 30.8624C583.699 29.9718 585.246 29.5265 586.945 29.5265C588.164 29.5265 589.301 29.7667 590.355 30.2472C591.422 30.7277 592.459 31.4601 593.467 32.4445ZM587.455 45.5402C588.604 45.5402 589.641 45.2531 590.566 44.6788C591.492 44.1046 592.213 43.3312 592.729 42.3585C593.244 41.3859 593.502 40.337 593.502 39.212C593.502 38.1573 593.244 37.1437 592.729 36.171C592.213 35.1984 591.498 34.4132 590.584 33.8156C589.67 33.2179 588.65 32.9191 587.525 32.9191C586.424 32.9191 585.422 33.2062 584.52 33.7804C583.617 34.3546 582.914 35.1281 582.41 36.1007C581.906 37.0734 581.654 38.1222 581.654 39.2472C581.654 40.3956 581.895 41.4503 582.375 42.4113C582.855 43.3722 583.535 44.1339 584.414 44.6964C585.305 45.2589 586.318 45.5402 587.455 45.5402ZM621.75 39.9327H606.264C606.486 41.7023 607.172 43.1027 608.32 44.1339C609.469 45.1534 610.875 45.6632 612.539 45.6632C613.758 45.6632 614.889 45.4113 615.932 44.9073C616.975 44.4034 617.848 43.63 618.551 42.587L621.75 44.0284C620.742 45.5988 619.418 46.7882 617.777 47.5968C616.148 48.3937 614.373 48.7921 612.451 48.7921C610.459 48.7921 608.689 48.3761 607.143 47.5441C605.596 46.712 604.389 45.5519 603.521 44.0636C602.666 42.5753 602.238 40.8995 602.238 39.0363C602.238 37.1847 602.66 35.5148 603.504 34.0265C604.359 32.5382 605.525 31.3781 607.002 30.546C608.479 29.7023 610.107 29.2804 611.889 29.2804C613.834 29.2804 615.527 29.714 616.969 30.5812C618.422 31.4366 619.564 32.6671 620.396 34.2726C621.229 35.8663 621.68 37.7531 621.75 39.9327ZM611.959 32.3038C610.588 32.3038 609.387 32.7667 608.355 33.6925C607.324 34.6066 606.662 35.8195 606.369 37.3312H617.936C617.596 35.8195 616.875 34.6066 615.773 33.6925C614.672 32.7667 613.4 32.3038 611.959 32.3038ZM633.738 29.7726V33.0245H630.363V42.7101C630.363 43.7179 630.469 44.3741 630.68 44.6788C630.902 44.9718 631.277 45.1183 631.805 45.1183C632.449 45.1183 633.094 45.007 633.738 44.7843V48.0714C632.613 48.3995 631.705 48.5636 631.014 48.5636C629.49 48.5636 628.395 48.1827 627.727 47.421C627.059 46.6476 626.725 45.3292 626.725 43.4659V33.0245H624.316V29.7726H626.725V26.9777L630.363 23.6554V29.7726H633.738Z" fill="white"/>
<path d="M33.3398 76.2974V71.604H38.0332V76.2974H33.3398ZM33.3398 90.0786V85.4029H38.0332V90.0786H33.3398ZM44.7305 76.2974V71.604H49.4238V76.2974H44.7305ZM44.7305 90.0786V85.4029H49.4238V90.0786H44.7305ZM136.91 74.856L140.408 85.9829L143.924 74.856H141.955V71.604H150.832V74.856H148.793L152.361 85.9829L155.912 74.856H153.363V71.604H161.678V74.856H159.006L154.084 90.3951H150.656L146.42 77.0533L142.131 90.3951H138.738L133.781 74.856H131.549V71.604H139.318V74.856H136.91ZM169.887 65.3814C169.887 65.979 169.67 66.4947 169.236 66.9283C168.803 67.3618 168.287 67.5786 167.689 67.5786C167.092 67.5786 166.582 67.3618 166.16 66.9283C165.738 66.4947 165.527 65.979 165.527 65.3814C165.527 64.7837 165.738 64.2681 166.16 63.8345C166.582 63.4009 167.092 63.1841 167.689 63.1841C168.311 63.1841 168.832 63.3951 169.254 63.8169C169.676 64.2388 169.887 64.7603 169.887 65.3814ZM172.488 86.8443V90.0786H163.154V86.8443H166.037V74.856H163.154V71.604H169.676V86.8443H172.488ZM183.914 71.604V74.856H180.539V84.5415C180.539 85.5493 180.645 86.2056 180.855 86.5103C181.078 86.8033 181.453 86.9497 181.98 86.9497C182.625 86.9497 183.27 86.8384 183.914 86.6158V89.9029C182.789 90.231 181.881 90.3951 181.189 90.3951C179.666 90.3951 178.57 90.0142 177.902 89.2525C177.234 88.479 176.9 87.1607 176.9 85.2974V74.856H174.492V71.604H176.9V68.8091L180.539 65.4868V71.604H183.914ZM198.715 71.1118C202.148 71.1118 203.865 72.9693 203.865 76.6841V86.8443H206.994V90.0786H200.227V77.9849C200.227 76.6607 200.033 75.729 199.646 75.19C199.271 74.6509 198.686 74.3814 197.889 74.3814C196.541 74.3814 194.789 75.1724 192.633 76.7544V86.8443H195.832V90.0786H185.689V86.8443H188.994V66.7876H185.689V63.5884H192.633V73.7661C194.812 71.9966 196.84 71.1118 198.715 71.1118ZM228.422 80.8677C228.422 82.6607 227.994 84.3013 227.139 85.7896C226.283 87.2779 225.117 88.4556 223.641 89.3228C222.164 90.19 220.529 90.6236 218.736 90.6236C216.885 90.6236 215.215 90.19 213.727 89.3228C212.238 88.4556 211.078 87.2779 210.246 85.7896C209.426 84.3013 209.016 82.6607 209.016 80.8677C209.016 78.9927 209.426 77.3169 210.246 75.8404C211.078 74.3638 212.232 73.2095 213.709 72.3775C215.186 71.5337 216.861 71.1118 218.736 71.1118C220.553 71.1118 222.199 71.5572 223.676 72.4478C225.152 73.3267 226.312 74.5103 227.156 75.9986C228 77.4868 228.422 79.1099 228.422 80.8677ZM218.736 87.0904C219.814 87.0904 220.805 86.8091 221.707 86.2466C222.609 85.6841 223.312 84.9283 223.816 83.979C224.32 83.0298 224.572 81.9927 224.572 80.8677C224.572 79.7661 224.32 78.7408 223.816 77.7915C223.312 76.8423 222.609 76.0806 221.707 75.5064C220.805 74.9204 219.803 74.6275 218.701 74.6275C217.623 74.6275 216.633 74.9146 215.73 75.4888C214.828 76.0513 214.119 76.813 213.604 77.774C213.088 78.7349 212.83 79.7661 212.83 80.8677C212.83 81.9693 213.088 83.0005 213.604 83.9615C214.119 84.9224 214.834 85.6841 215.748 86.2466C216.662 86.8091 217.658 87.0904 218.736 87.0904ZM239.443 87.231C241.072 87.231 242.836 86.44 244.734 84.8579V74.856H241.465V71.604H248.373V86.8443H251.537V90.0786H244.734V87.9517C242.602 89.5806 240.574 90.3951 238.652 90.3951C236.918 90.3951 235.635 89.8794 234.803 88.8482C233.982 87.8169 233.572 86.106 233.572 83.7154V74.856H230.988V71.604H237.211V84.4712C237.211 85.4204 237.381 86.1177 237.721 86.563C238.072 87.0083 238.646 87.231 239.443 87.231ZM262.945 71.604V74.856H259.57V84.5415C259.57 85.5493 259.676 86.2056 259.887 86.5103C260.109 86.8033 260.484 86.9497 261.012 86.9497C261.656 86.9497 262.301 86.8384 262.945 86.6158V89.9029C261.82 90.231 260.912 90.3951 260.221 90.3951C258.697 90.3951 257.602 90.0142 256.934 89.2525C256.266 88.479 255.932 87.1607 255.932 85.2974V74.856H253.523V71.604H255.932V68.8091L259.57 65.4868V71.604H262.945ZM296.783 80.938C296.783 82.6607 296.385 84.272 295.588 85.772C294.791 87.272 293.701 88.4556 292.318 89.3228C290.947 90.19 289.424 90.6236 287.748 90.6236C285.275 90.6236 283.113 89.6743 281.262 87.7759V95.1236H284.865V98.3579H274.283V95.1236H277.623V74.856H274.529V71.604H281.262V74.5572C282.176 73.479 283.184 72.6763 284.285 72.149C285.387 71.6216 286.564 71.3579 287.818 71.3579C289.564 71.3579 291.117 71.7915 292.477 72.6587C293.836 73.5142 294.891 74.6743 295.641 76.1392C296.402 77.604 296.783 79.2036 296.783 80.938ZM287.695 87.3013C288.703 87.3013 289.611 87.0083 290.42 86.4224C291.229 85.8365 291.861 85.0396 292.318 84.0318C292.775 83.024 293.004 81.9576 293.004 80.8326C293.004 79.6958 292.752 78.6529 292.248 77.7036C291.744 76.7427 291.053 75.981 290.174 75.4185C289.295 74.8443 288.305 74.5572 287.203 74.5572C286.055 74.5572 285.023 74.8618 284.109 75.4712C283.195 76.0689 282.486 76.8658 281.982 77.8618C281.479 78.8579 281.227 79.9536 281.227 81.149C281.227 83.0708 281.83 84.5767 283.037 85.6665C284.256 86.7564 285.809 87.3013 287.695 87.3013ZM306.24 82.6607V86.8443H310.266V90.0786H298.928V86.8443H302.637V74.856H298.928V71.604H305.52V75.7876C306.258 74.1353 307.172 72.9868 308.262 72.3423C309.363 71.6861 310.934 71.3579 312.973 71.3579H313.799V75.0318H313.008C311.039 75.0318 309.574 75.2896 308.613 75.8052C307.652 76.3208 307.014 77.1001 306.697 78.1431C306.393 79.1861 306.24 80.6919 306.24 82.6607ZM322.078 65.3814C322.078 65.979 321.861 66.4947 321.428 66.9283C320.994 67.3618 320.479 67.5786 319.881 67.5786C319.283 67.5786 318.773 67.3618 318.352 66.9283C317.93 66.4947 317.719 65.979 317.719 65.3814C317.719 64.7837 317.93 64.2681 318.352 63.8345C318.773 63.4009 319.283 63.1841 319.881 63.1841C320.502 63.1841 321.023 63.3951 321.445 63.8169C321.867 64.2388 322.078 64.7603 322.078 65.3814ZM324.68 86.8443V90.0786H315.346V86.8443H318.229V74.856H315.346V71.604H321.867V86.8443H324.68ZM346.266 80.8677C346.266 82.6607 345.838 84.3013 344.982 85.7896C344.127 87.2779 342.961 88.4556 341.484 89.3228C340.008 90.19 338.373 90.6236 336.58 90.6236C334.729 90.6236 333.059 90.19 331.57 89.3228C330.082 88.4556 328.922 87.2779 328.09 85.7896C327.27 84.3013 326.859 82.6607 326.859 80.8677C326.859 78.9927 327.27 77.3169 328.09 75.8404C328.922 74.3638 330.076 73.2095 331.553 72.3775C333.029 71.5337 334.705 71.1118 336.58 71.1118C338.396 71.1118 340.043 71.5572 341.52 72.4478C342.996 73.3267 344.156 74.5103 345 75.9986C345.844 77.4868 346.266 79.1099 346.266 80.8677ZM336.58 87.0904C337.658 87.0904 338.648 86.8091 339.551 86.2466C340.453 85.6841 341.156 84.9283 341.66 83.979C342.164 83.0298 342.416 81.9927 342.416 80.8677C342.416 79.7661 342.164 78.7408 341.66 77.7915C341.156 76.8423 340.453 76.0806 339.551 75.5064C338.648 74.9204 337.646 74.6275 336.545 74.6275C335.467 74.6275 334.477 74.9146 333.574 75.4888C332.672 76.0513 331.963 76.813 331.447 77.774C330.932 78.7349 330.674 79.7661 330.674 80.8677C330.674 81.9693 330.932 83.0005 331.447 83.9615C331.963 84.9224 332.678 85.6841 333.592 86.2466C334.506 86.8091 335.502 87.0904 336.58 87.0904ZM355.74 82.6607V86.8443H359.766V90.0786H348.428V86.8443H352.137V74.856H348.428V71.604H355.02V75.7876C355.758 74.1353 356.672 72.9868 357.762 72.3423C358.863 71.6861 360.434 71.3579 362.473 71.3579H363.299V75.0318H362.508C360.539 75.0318 359.074 75.2896 358.113 75.8052C357.152 76.3208 356.514 77.1001 356.197 78.1431C355.893 79.1861 355.74 80.6919 355.74 82.6607ZM377.871 86.8443V74.856H374.76V71.604H381.492V73.9419C383.66 72.2193 385.787 71.3579 387.873 71.3579C390.006 71.3579 391.471 72.3189 392.268 74.2408C394.635 72.3189 396.867 71.3579 398.965 71.3579C400.453 71.3579 401.637 71.7974 402.516 72.6763C403.406 73.5552 403.852 74.9029 403.852 76.7193V86.8443H407.086V90.0786H400.248V78.3716C400.248 77.563 400.207 76.9068 400.125 76.4029C400.043 75.899 399.826 75.4712 399.475 75.1197C399.135 74.7681 398.59 74.5923 397.84 74.5923C397.172 74.5923 396.393 74.7915 395.502 75.19C394.611 75.5884 393.674 76.1861 392.689 76.9829V86.8443H395.818V90.0786H389.051V77.9146C389.051 76.731 388.869 75.8814 388.506 75.3658C388.154 74.8501 387.568 74.5923 386.748 74.5923C385.412 74.5923 383.66 75.3892 381.492 76.9829V86.8443H384.744V90.0786H374.549V86.8443H377.871ZM417.299 87.231C418.928 87.231 420.691 86.44 422.59 84.8579V74.856H419.32V71.604H426.229V86.8443H429.393V90.0786H422.59V87.9517C420.457 89.5806 418.43 90.3951 416.508 90.3951C414.773 90.3951 413.49 89.8794 412.658 88.8482C411.838 87.8169 411.428 86.106 411.428 83.7154V74.856H408.844V71.604H415.066V84.4712C415.066 85.4204 415.236 86.1177 415.576 86.563C415.928 87.0083 416.502 87.231 417.299 87.231ZM440.801 71.604V74.856H437.426V84.5415C437.426 85.5493 437.531 86.2056 437.742 86.5103C437.965 86.8033 438.34 86.9497 438.867 86.9497C439.512 86.9497 440.156 86.8384 440.801 86.6158V89.9029C439.676 90.231 438.768 90.3951 438.076 90.3951C436.553 90.3951 435.457 90.0142 434.789 89.2525C434.121 88.479 433.787 87.1607 433.787 85.2974V74.856H431.379V71.604H433.787V68.8091L437.426 65.4868V71.604H440.801ZM451.576 87.231C453.205 87.231 454.969 86.44 456.867 84.8579V74.856H453.598V71.604H460.506V86.8443H463.67V90.0786H456.867V87.9517C454.734 89.5806 452.707 90.3951 450.785 90.3951C449.051 90.3951 447.768 89.8794 446.936 88.8482C446.115 87.8169 445.705 86.106 445.705 83.7154V74.856H443.121V71.604H449.344V84.4712C449.344 85.4204 449.514 86.1177 449.854 86.563C450.205 87.0083 450.779 87.231 451.576 87.231ZM481.564 78.1255V86.8443H484.658V90.0786H478.365V87.8111C476.607 89.5337 474.65 90.3951 472.494 90.3951C471.357 90.3951 470.314 90.1314 469.365 89.604C468.428 89.0767 467.672 88.3736 467.098 87.4947C466.535 86.604 466.254 85.6197 466.254 84.5415C466.254 83.3814 466.564 82.3501 467.186 81.4478C467.818 80.5337 468.668 79.8306 469.734 79.3384C470.801 78.8462 471.873 78.6001 472.951 78.6001C474.756 78.6001 476.438 79.1275 477.996 80.1822V78.1958C477.996 76.7544 477.691 75.7232 477.082 75.1021C476.473 74.481 475.471 74.1704 474.076 74.1704C473.092 74.1704 472.266 74.3521 471.598 74.7154C470.941 75.0669 470.396 75.606 469.963 76.3326L466.482 75.4712C467.268 74.0064 468.328 72.9165 469.664 72.2017C471 71.4751 472.588 71.1118 474.428 71.1118C476.9 71.1118 478.705 71.6743 479.842 72.7993C480.99 73.9243 481.564 75.6997 481.564 78.1255ZM472.986 87.6001C474.768 87.6001 476.438 86.856 477.996 85.3677V83.2056C476.414 81.9751 474.832 81.3599 473.25 81.3599C472.289 81.3599 471.457 81.6646 470.754 82.274C470.062 82.8716 469.717 83.6275 469.717 84.5415C469.717 85.4204 470.021 86.1529 470.631 86.7388C471.24 87.313 472.025 87.6001 472.986 87.6001ZM495.75 86.8443V90.0786H486.029V86.8443H489.299V66.7876H486.029V63.5884H492.938V86.8443H495.75ZM522.311 72.94V71.604H525.545V78.6001H522.311C522.17 77.2525 521.631 76.2271 520.693 75.524C519.756 74.8091 518.672 74.4517 517.441 74.4517C516.387 74.4517 515.438 74.7329 514.594 75.2954C513.762 75.8579 513.117 76.6197 512.66 77.5806C512.203 78.5415 511.975 79.5904 511.975 80.7271C511.975 82.6607 512.49 84.2427 513.521 85.4732C514.553 86.6919 515.912 87.3013 517.6 87.3013C520.213 87.3013 522.059 86.0884 523.137 83.6626L526.16 85.104C524.461 88.7837 521.555 90.6236 517.441 90.6236C515.602 90.6236 513.967 90.19 512.537 89.3228C511.107 88.4556 510 87.2661 509.215 85.7544C508.441 84.2427 508.055 82.5669 508.055 80.7271C508.055 78.9224 508.447 77.2818 509.232 75.8052C510.029 74.3286 511.119 73.1802 512.502 72.3599C513.885 71.5279 515.426 71.1118 517.125 71.1118C519.141 71.1118 520.869 71.7212 522.311 72.94ZM547.816 80.8677C547.816 82.6607 547.389 84.3013 546.533 85.7896C545.678 87.2779 544.512 88.4556 543.035 89.3228C541.559 90.19 539.924 90.6236 538.131 90.6236C536.279 90.6236 534.609 90.19 533.121 89.3228C531.633 88.4556 530.473 87.2779 529.641 85.7896C528.82 84.3013 528.41 82.6607 528.41 80.8677C528.41 78.9927 528.82 77.3169 529.641 75.8404C530.473 74.3638 531.627 73.2095 533.104 72.3775C534.58 71.5337 536.256 71.1118 538.131 71.1118C539.947 71.1118 541.594 71.5572 543.07 72.4478C544.547 73.3267 545.707 74.5103 546.551 75.9986C547.395 77.4868 547.816 79.1099 547.816 80.8677ZM538.131 87.0904C539.209 87.0904 540.199 86.8091 541.102 86.2466C542.004 85.6841 542.707 84.9283 543.211 83.979C543.715 83.0298 543.967 81.9927 543.967 80.8677C543.967 79.7661 543.715 78.7408 543.211 77.7915C542.707 76.8423 542.004 76.0806 541.102 75.5064C540.199 74.9204 539.197 74.6275 538.096 74.6275C537.018 74.6275 536.027 74.9146 535.125 75.4888C534.223 76.0513 533.514 76.813 532.998 77.774C532.482 78.7349 532.225 79.7661 532.225 80.8677C532.225 81.9693 532.482 83.0005 532.998 83.9615C533.514 84.9224 534.229 85.6841 535.143 86.2466C536.057 86.8091 537.053 87.0904 538.131 87.0904ZM568.154 77.6509V86.8443H571.248V90.0786H564.516V77.8794C564.516 76.7193 564.346 75.8872 564.006 75.3833C563.678 74.8794 563.133 74.6275 562.371 74.6275C560.754 74.6275 558.938 75.4243 556.922 77.0181V86.8443H560.104V90.0786H550.084V86.8443H553.336V74.856H550.084V71.604H556.922V73.8365C559.184 72.1841 561.311 71.3579 563.303 71.3579C564.955 71.3579 566.174 71.8677 566.959 72.8872C567.756 73.9068 568.154 75.4947 568.154 77.6509ZM584.502 72.3951V71.604H587.666V77.7388H584.502V76.6138C583.447 75.1021 582.006 74.3462 580.178 74.3462C579.217 74.3462 578.432 74.5572 577.822 74.979C577.213 75.4009 576.908 75.9458 576.908 76.6138C576.908 77.2115 577.137 77.6802 577.594 78.0201C578.062 78.3599 579.105 78.6587 580.723 78.9165L583.166 79.3911C586.811 80.0591 588.633 81.8462 588.633 84.7525C588.633 86.4517 587.971 87.8169 586.646 88.8482C585.334 89.8794 583.588 90.3951 581.408 90.3951C580.541 90.3951 579.686 90.272 578.842 90.0259C578.01 89.7681 577.312 89.4517 576.75 89.0767V90.0786H573.516V83.7505H576.75V84.3833C576.926 85.274 577.418 85.9888 578.227 86.5279C579.047 87.0669 579.996 87.3365 581.074 87.3365C582.258 87.3365 583.189 87.1314 583.869 86.7212C584.549 86.2993 584.889 85.6783 584.889 84.8579C584.889 84.2603 584.619 83.815 584.08 83.522C583.541 83.2173 582.457 82.9068 580.828 82.5904L578.947 82.1861C577.084 81.8111 575.719 81.1665 574.852 80.2525C573.984 79.3384 573.551 78.1724 573.551 76.7544C573.551 75.606 573.867 74.6275 574.5 73.8189C575.145 72.9986 575.965 72.3833 576.961 71.9732C577.957 71.563 578.982 71.3579 580.037 71.3579C581.807 71.3579 583.295 71.7036 584.502 72.3951ZM610.887 81.7642H595.4C595.623 83.5337 596.309 84.9341 597.457 85.9654C598.605 86.9849 600.012 87.4947 601.676 87.4947C602.895 87.4947 604.025 87.2427 605.068 86.7388C606.111 86.2349 606.984 85.4615 607.688 84.4185L610.887 85.8599C609.879 87.4302 608.555 88.6197 606.914 89.4283C605.285 90.2251 603.51 90.6236 601.588 90.6236C599.596 90.6236 597.826 90.2076 596.279 89.3755C594.732 88.5435 593.525 87.3833 592.658 85.8951C591.803 84.4068 591.375 82.731 591.375 80.8677C591.375 79.0161 591.797 77.3462 592.641 75.8579C593.496 74.3697 594.662 73.2095 596.139 72.3775C597.615 71.5337 599.244 71.1118 601.025 71.1118C602.971 71.1118 604.664 71.5454 606.105 72.4126C607.559 73.2681 608.701 74.4986 609.533 76.104C610.365 77.6978 610.816 79.5845 610.887 81.7642ZM601.096 74.1353C599.725 74.1353 598.523 74.5982 597.492 75.524C596.461 76.438 595.799 77.6509 595.506 79.1626H607.072C606.732 77.6509 606.012 76.438 604.91 75.524C603.809 74.5982 602.537 74.1353 601.096 74.1353ZM631.225 77.6509V86.8443H634.318V90.0786H627.586V77.8794C627.586 76.7193 627.416 75.8872 627.076 75.3833C626.748 74.8794 626.203 74.6275 625.441 74.6275C623.824 74.6275 622.008 75.4243 619.992 77.0181V86.8443H623.174V90.0786H613.154V86.8443H616.406V74.856H613.154V71.604H619.992V73.8365C622.254 72.1841 624.381 71.3579 626.373 71.3579C628.025 71.3579 629.244 71.8677 630.029 72.8872C630.826 73.9068 631.225 75.4947 631.225 77.6509ZM645.621 71.604V74.856H642.246V84.5415C642.246 85.5493 642.352 86.2056 642.562 86.5103C642.785 86.8033 643.16 86.9497 643.688 86.9497C644.332 86.9497 644.977 86.8384 645.621 86.6158V89.9029C644.496 90.231 643.588 90.3951 642.896 90.3951C641.373 90.3951 640.277 90.0142 639.609 89.2525C638.941 88.479 638.607 87.1607 638.607 85.2974V74.856H636.199V71.604H638.607V68.8091L642.246 65.4868V71.604H645.621Z" fill="white"/>
<path d="M714.34 30.4659V25.7726H719.033V30.4659H714.34ZM714.34 44.2472V39.5714H719.033V44.2472H714.34ZM725.73 30.4659V25.7726H730.424V30.4659H725.73ZM725.73 44.2472V39.5714H730.424V44.2472H725.73Z" fill="white"/>
<path d="M714.34 75.2974V70.604H719.033V75.2974H714.34ZM714.34 89.0786V84.4029H719.033V89.0786H714.34ZM725.73 75.2974V70.604H730.424V75.2974H725.73ZM725.73 89.0786V84.4029H730.424V89.0786H725.73Z" fill="white"/>
</svg>
