<svg width="762" height="89" viewBox="0 0 762 89" fill="none" xmlns="http://www.w3.org/2000/svg">
<rect width="762" height="89" fill="#DC4313" fill-opacity="0.8"/>
<path d="M33.3398 22.2188V17.5254H38.0332V22.2188H33.3398ZM33.3398 36V31.3242H38.0332V36H33.3398ZM44.7305 22.2188V17.5254H49.4238V22.2188H44.7305ZM44.7305 36V31.3242H49.4238V36H44.7305ZM138.703 12.8145L143.643 30.2344L148.529 12.8145H145.365V9.50977H157.529V12.8145H154.4L159.234 30.2344L164.191 12.8145H161.062V9.50977H170.783V12.8145H167.725L161.027 36.2812H157.283L151.307 15.1875L145.365 36.2812H141.656L134.889 12.8145H131.76V9.50977H141.885V12.8145H138.703ZM186.41 12.709L193.582 32.6953H196.535V36H186.094V32.6953H189.557L187.5 26.6836H177.885L175.828 32.6953H179.186V36H168.674V32.6953H171.873L179.01 12.709H175.828V9.50977H189.592V12.709H186.41ZM182.789 12.709H182.666L178.922 23.5723H186.445L182.789 12.709ZM218.191 16.4531C218.191 18.1523 217.711 19.582 216.75 20.7422C215.789 21.8906 214.447 22.6816 212.725 23.1152L217.4 32.6953H220.635V36H214.693L208.84 23.6602H205.131V32.6953H208.506V36H197.537V32.6953H201.123V12.8145H197.537V9.50977H208.541C211.951 9.50977 214.412 10.0664 215.924 11.1797C217.436 12.293 218.191 14.0508 218.191 16.4531ZM214.061 16.3828C214.061 15.1523 213.674 14.25 212.9 13.6758C212.127 13.1016 210.902 12.8145 209.227 12.8145H205.131V20.3379H208.98C210.703 20.3379 211.98 20.0391 212.812 19.4414C213.645 18.8438 214.061 17.8242 214.061 16.3828ZM242.502 12.8145H238.723V9.50977H249.586V12.8145H245.701V36.2812H241.588L228.879 13.6406V32.6953H232.676V36H221.83V32.6953H225.609V12.8145H221.83V9.50977H230.865L242.502 30.0938V12.8145ZM258.428 12.8145V32.6953H261.311V36H251.555V32.6953H254.42V12.8145H251.555V9.50977H261.311V12.8145H258.428ZM283.951 12.8145H280.172V9.50977H291.035V12.8145H287.15V36.2812H283.037L270.328 13.6406V32.6953H274.125V36H263.279V32.6953H267.059V12.8145H263.279V9.50977H272.314L283.951 30.0938V12.8145ZM316.33 12.4277V9.50977H319.705V18.2109H316.33C315.557 16.5117 314.332 15.1523 312.656 14.1328C310.992 13.1133 309.24 12.6035 307.4 12.6035C305.572 12.6035 303.943 13.0371 302.514 13.9043C301.084 14.7598 299.971 15.9434 299.174 17.4551C298.389 18.9668 297.996 20.6836 297.996 22.6055C297.996 24.6211 298.412 26.4082 299.244 27.9668C300.076 29.5254 301.23 30.7383 302.707 31.6055C304.195 32.4727 305.889 32.9062 307.787 32.9062C309.229 32.9062 310.564 32.6426 311.795 32.1152C313.037 31.5879 314.062 30.8379 314.871 29.8652C315.691 28.8926 316.201 27.7793 316.4 26.5254H311.531V23.1855H321.182V24.0469C321.182 26.5664 320.607 28.7637 319.459 30.6387C318.311 32.5137 316.723 33.9492 314.695 34.9453C312.68 35.9414 310.412 36.4395 307.893 36.4395C305.021 36.4395 302.502 35.8652 300.334 34.7168C298.178 33.5566 296.52 31.9395 295.359 29.8652C294.211 27.791 293.637 25.3828 293.637 22.6406C293.637 20.0273 294.211 17.6895 295.359 15.627C296.52 13.5645 298.113 11.959 300.141 10.8105C302.168 9.65039 304.465 9.07031 307.031 9.07031C310.664 9.07031 313.764 10.1895 316.33 12.4277ZM326.262 22.2188V17.5254H330.955V22.2188H326.262ZM326.262 36V31.3242H330.955V36H326.262ZM362.402 12.709L369.574 32.6953H372.527V36H362.086V32.6953H365.549L363.492 26.6836H353.877L351.82 32.6953H355.178V36H344.666V32.6953H347.865L355.002 12.709H351.82V9.50977H365.584V12.709H362.402ZM358.781 12.709H358.658L354.914 23.5723H362.438L358.781 12.709ZM382.301 17.5254V20.7773H378.926V30.4629C378.926 31.4707 379.031 32.127 379.242 32.4316C379.465 32.7246 379.84 32.8711 380.367 32.8711C381.012 32.8711 381.656 32.7598 382.301 32.5371V35.8242C381.176 36.1523 380.268 36.3164 379.576 36.3164C378.053 36.3164 376.957 35.9355 376.289 35.1738C375.621 34.4004 375.287 33.082 375.287 31.2188V20.7773H372.879V17.5254H375.287V14.7305L378.926 11.4082V17.5254H382.301ZM394.043 17.5254V20.7773H390.668V30.4629C390.668 31.4707 390.773 32.127 390.984 32.4316C391.207 32.7246 391.582 32.8711 392.109 32.8711C392.754 32.8711 393.398 32.7598 394.043 32.5371V35.8242C392.918 36.1523 392.01 36.3164 391.318 36.3164C389.795 36.3164 388.699 35.9355 388.031 35.1738C387.363 34.4004 387.029 33.082 387.029 31.2188V20.7773H384.621V17.5254H387.029V14.7305L390.668 11.4082V17.5254H394.043ZM412.271 24.0469V32.7656H415.365V36H409.072V33.7324C407.314 35.4551 405.357 36.3164 403.201 36.3164C402.064 36.3164 401.021 36.0527 400.072 35.5254C399.135 34.998 398.379 34.2949 397.805 33.416C397.242 32.5254 396.961 31.541 396.961 30.4629C396.961 29.3027 397.271 28.2715 397.893 27.3691C398.525 26.4551 399.375 25.752 400.441 25.2598C401.508 24.7676 402.58 24.5215 403.658 24.5215C405.463 24.5215 407.145 25.0488 408.703 26.1035V24.1172C408.703 22.6758 408.398 21.6445 407.789 21.0234C407.18 20.4023 406.178 20.0918 404.783 20.0918C403.799 20.0918 402.973 20.2734 402.305 20.6367C401.648 20.9883 401.104 21.5273 400.67 22.2539L397.189 21.3926C397.975 19.9277 399.035 18.8379 400.371 18.123C401.707 17.3965 403.295 17.0332 405.135 17.0332C407.607 17.0332 409.412 17.5957 410.549 18.7207C411.697 19.8457 412.271 21.6211 412.271 24.0469ZM403.693 33.5215C405.475 33.5215 407.145 32.7773 408.703 31.2891V29.127C407.121 27.8965 405.539 27.2812 403.957 27.2812C402.996 27.2812 402.164 27.5859 401.461 28.1953C400.77 28.793 400.424 29.5488 400.424 30.4629C400.424 31.3418 400.729 32.0742 401.338 32.6602C401.947 33.2344 402.732 33.5215 403.693 33.5215ZM431.678 18.8613V17.5254H434.912V24.5215H431.678C431.537 23.1738 430.998 22.1484 430.061 21.4453C429.123 20.7305 428.039 20.373 426.809 20.373C425.754 20.373 424.805 20.6543 423.961 21.2168C423.129 21.7793 422.484 22.541 422.027 23.502C421.57 24.4629 421.342 25.5117 421.342 26.6484C421.342 28.582 421.857 30.1641 422.889 31.3945C423.92 32.6133 425.279 33.2227 426.967 33.2227C429.58 33.2227 431.426 32.0098 432.504 29.584L435.527 31.0254C433.828 34.7051 430.922 36.5449 426.809 36.5449C424.969 36.5449 423.334 36.1113 421.904 35.2441C420.475 34.377 419.367 33.1875 418.582 31.6758C417.809 30.1641 417.422 28.4883 417.422 26.6484C417.422 24.8438 417.814 23.2031 418.6 21.7266C419.396 20.25 420.486 19.1016 421.869 18.2812C423.252 17.4492 424.793 17.0332 426.492 17.0332C428.508 17.0332 430.236 17.6426 431.678 18.8613ZM450.732 20.5488H447.814V17.5254H458.045V20.5488H455.197L448.289 26.2793L454.811 32.7656H458.045V36H453.246L444 26.6836V32.7656H447.129V36H437.057V32.7656H440.361V12.709H437.057V9.50977H444V26.209L450.732 20.5488ZM466.254 11.3027C466.254 11.9004 466.037 12.416 465.604 12.8496C465.17 13.2832 464.654 13.5 464.057 13.5C463.459 13.5 462.949 13.2832 462.527 12.8496C462.105 12.416 461.895 11.9004 461.895 11.3027C461.895 10.7051 462.105 10.1895 462.527 9.75586C462.949 9.32227 463.459 9.10547 464.057 9.10547C464.678 9.10547 465.199 9.31641 465.621 9.73828C466.043 10.1602 466.254 10.6816 466.254 11.3027ZM468.855 32.7656V36H459.521V32.7656H462.404V20.7773H459.521V17.5254H466.043V32.7656H468.855ZM488.631 23.5723V32.7656H491.725V36H484.992V23.8008C484.992 22.6406 484.822 21.8086 484.482 21.3047C484.154 20.8008 483.609 20.5488 482.848 20.5488C481.23 20.5488 479.414 21.3457 477.398 22.9395V32.7656H480.58V36H470.561V32.7656H473.812V20.7773H470.561V17.5254H477.398V19.7578C479.66 18.1055 481.787 17.2793 483.779 17.2793C485.432 17.2793 486.65 17.7891 487.436 18.8086C488.232 19.8281 488.631 21.416 488.631 23.5723ZM509.443 20.1973V17.5254H516.387V20.7773H513.047V34.6289C513.047 37.8516 512.232 40.3359 510.604 42.082C508.986 43.8398 506.619 44.7188 503.502 44.7188C500.549 44.7188 498.029 43.8867 495.943 42.2227L498.281 39.6035C499.125 40.2246 499.969 40.6875 500.812 40.9922C501.668 41.3086 502.6 41.4668 503.607 41.4668C505.436 41.4668 506.865 40.8984 507.896 39.7617C508.928 38.625 509.443 37.1191 509.443 35.2441V33.5215C508.646 34.459 507.633 35.1973 506.402 35.7363C505.184 36.2754 503.965 36.5449 502.746 36.5449C501.035 36.5449 499.494 36.1113 498.123 35.2441C496.764 34.377 495.697 33.2285 494.924 31.7988C494.162 30.3574 493.781 28.7812 493.781 27.0703C493.781 25.3242 494.18 23.7012 494.977 22.2012C495.785 20.7012 496.887 19.5059 498.281 18.6152C499.676 17.7246 501.223 17.2793 502.922 17.2793C504.141 17.2793 505.277 17.5195 506.332 18C507.398 18.4805 508.436 19.2129 509.443 20.1973ZM503.432 33.293C504.58 33.293 505.617 33.0059 506.543 32.4316C507.469 31.8574 508.189 31.084 508.705 30.1113C509.221 29.1387 509.479 28.0898 509.479 26.9648C509.479 25.9102 509.221 24.8965 508.705 23.9238C508.189 22.9512 507.475 22.166 506.561 21.5684C505.646 20.9707 504.627 20.6719 503.502 20.6719C502.4 20.6719 501.398 20.959 500.496 21.5332C499.594 22.1074 498.891 22.8809 498.387 23.8535C497.883 24.8262 497.631 25.875 497.631 27C497.631 28.1484 497.871 29.2031 498.352 30.1641C498.832 31.125 499.512 31.8867 500.391 32.4492C501.281 33.0117 502.295 33.293 503.432 33.293ZM537.234 17.5254V20.7773H533.859V30.4629C533.859 31.4707 533.965 32.127 534.176 32.4316C534.398 32.7246 534.773 32.8711 535.301 32.8711C535.945 32.8711 536.59 32.7598 537.234 32.5371V35.8242C536.109 36.1523 535.201 36.3164 534.51 36.3164C532.986 36.3164 531.891 35.9355 531.223 35.1738C530.555 34.4004 530.221 33.082 530.221 31.2188V20.7773H527.812V17.5254H530.221V14.7305L533.859 11.4082V17.5254H537.234ZM555.463 24.0469V32.7656H558.557V36H552.264V33.7324C550.506 35.4551 548.549 36.3164 546.393 36.3164C545.256 36.3164 544.213 36.0527 543.264 35.5254C542.326 34.998 541.57 34.2949 540.996 33.416C540.434 32.5254 540.152 31.541 540.152 30.4629C540.152 29.3027 540.463 28.2715 541.084 27.3691C541.717 26.4551 542.566 25.752 543.633 25.2598C544.699 24.7676 545.771 24.5215 546.85 24.5215C548.654 24.5215 550.336 25.0488 551.895 26.1035V24.1172C551.895 22.6758 551.59 21.6445 550.98 21.0234C550.371 20.4023 549.369 20.0918 547.975 20.0918C546.99 20.0918 546.164 20.2734 545.496 20.6367C544.84 20.9883 544.295 21.5273 543.861 22.2539L540.381 21.3926C541.166 19.9277 542.227 18.8379 543.562 18.123C544.898 17.3965 546.486 17.0332 548.326 17.0332C550.799 17.0332 552.604 17.5957 553.74 18.7207C554.889 19.8457 555.463 21.6211 555.463 24.0469ZM546.885 33.5215C548.666 33.5215 550.336 32.7773 551.895 31.2891V29.127C550.312 27.8965 548.73 27.2812 547.148 27.2812C546.188 27.2812 545.355 27.5859 544.652 28.1953C543.961 28.793 543.615 29.5488 543.615 30.4629C543.615 31.3418 543.92 32.0742 544.529 32.6602C545.139 33.2344 545.924 33.5215 546.885 33.5215ZM567.346 28.582V32.7656H571.371V36H560.033V32.7656H563.742V20.7773H560.033V17.5254H566.625V21.709C567.363 20.0566 568.277 18.9082 569.367 18.2637C570.469 17.6074 572.039 17.2793 574.078 17.2793H574.904V20.9531H574.113C572.145 20.9531 570.68 21.2109 569.719 21.7266C568.758 22.2422 568.119 23.0215 567.803 24.0645C567.498 25.1074 567.346 26.6133 567.346 28.582ZM590.408 20.1973V17.5254H597.352V20.7773H594.012V34.6289C594.012 37.8516 593.197 40.3359 591.568 42.082C589.951 43.8398 587.584 44.7188 584.467 44.7188C581.514 44.7188 578.994 43.8867 576.908 42.2227L579.246 39.6035C580.09 40.2246 580.934 40.6875 581.777 40.9922C582.633 41.3086 583.564 41.4668 584.572 41.4668C586.4 41.4668 587.83 40.8984 588.861 39.7617C589.893 38.625 590.408 37.1191 590.408 35.2441V33.5215C589.611 34.459 588.598 35.1973 587.367 35.7363C586.148 36.2754 584.93 36.5449 583.711 36.5449C582 36.5449 580.459 36.1113 579.088 35.2441C577.729 34.377 576.662 33.2285 575.889 31.7988C575.127 30.3574 574.746 28.7812 574.746 27.0703C574.746 25.3242 575.145 23.7012 575.941 22.2012C576.75 20.7012 577.852 19.5059 579.246 18.6152C580.641 17.7246 582.188 17.2793 583.887 17.2793C585.105 17.2793 586.242 17.5195 587.297 18C588.363 18.4805 589.4 19.2129 590.408 20.1973ZM584.396 33.293C585.545 33.293 586.582 33.0059 587.508 32.4316C588.434 31.8574 589.154 31.084 589.67 30.1113C590.186 29.1387 590.443 28.0898 590.443 26.9648C590.443 25.9102 590.186 24.8965 589.67 23.9238C589.154 22.9512 588.439 22.166 587.525 21.5684C586.611 20.9707 585.592 20.6719 584.467 20.6719C583.365 20.6719 582.363 20.959 581.461 21.5332C580.559 22.1074 579.855 22.8809 579.352 23.8535C578.848 24.8262 578.596 25.875 578.596 27C578.596 28.1484 578.836 29.2031 579.316 30.1641C579.797 31.125 580.477 31.8867 581.355 32.4492C582.246 33.0117 583.26 33.293 584.396 33.293ZM618.691 27.6855H603.205C603.428 29.4551 604.113 30.8555 605.262 31.8867C606.41 32.9062 607.816 33.416 609.48 33.416C610.699 33.416 611.83 33.1641 612.873 32.6602C613.916 32.1562 614.789 31.3828 615.492 30.3398L618.691 31.7812C617.684 33.3516 616.359 34.541 614.719 35.3496C613.09 36.1465 611.314 36.5449 609.393 36.5449C607.4 36.5449 605.631 36.1289 604.084 35.2969C602.537 34.4648 601.33 33.3047 600.463 31.8164C599.607 30.3281 599.18 28.6523 599.18 26.7891C599.18 24.9375 599.602 23.2676 600.445 21.7793C601.301 20.291 602.467 19.1309 603.943 18.2988C605.42 17.4551 607.049 17.0332 608.83 17.0332C610.775 17.0332 612.469 17.4668 613.91 18.334C615.363 19.1895 616.506 20.4199 617.338 22.0254C618.17 23.6191 618.621 25.5059 618.691 27.6855ZM608.9 20.0566C607.529 20.0566 606.328 20.5195 605.297 21.4453C604.266 22.3594 603.604 23.5723 603.311 25.084H614.877C614.537 23.5723 613.816 22.3594 612.715 21.4453C611.613 20.5195 610.342 20.0566 608.9 20.0566ZM630.68 17.5254V20.7773H627.305V30.4629C627.305 31.4707 627.41 32.127 627.621 32.4316C627.844 32.7246 628.219 32.8711 628.746 32.8711C629.391 32.8711 630.035 32.7598 630.68 32.5371V35.8242C629.555 36.1523 628.646 36.3164 627.955 36.3164C626.432 36.3164 625.336 35.9355 624.668 35.1738C624 34.4004 623.666 33.082 623.666 31.2188V20.7773H621.258V17.5254H623.666V14.7305L627.305 11.4082V17.5254H630.68Z" fill="white"/>
<path d="M33.3398 57.2188V52.5254H38.0332V57.2188H33.3398ZM33.3398 71V66.3242H38.0332V71H33.3398ZM44.7305 57.2188V52.5254H49.4238V57.2188H44.7305ZM44.7305 71V66.3242H49.4238V71H44.7305ZM136.91 55.7773L140.408 66.9043L143.924 55.7773H141.955V52.5254H150.832V55.7773H148.793L152.361 66.9043L155.912 55.7773H153.363V52.5254H161.678V55.7773H159.006L154.084 71.3164H150.656L146.42 57.9746L142.131 71.3164H138.738L133.781 55.7773H131.549V52.5254H139.318V55.7773H136.91ZM169.887 46.3027C169.887 46.9004 169.67 47.416 169.236 47.8496C168.803 48.2832 168.287 48.5 167.689 48.5C167.092 48.5 166.582 48.2832 166.16 47.8496C165.738 47.416 165.527 46.9004 165.527 46.3027C165.527 45.7051 165.738 45.1895 166.16 44.7559C166.582 44.3223 167.092 44.1055 167.689 44.1055C168.311 44.1055 168.832 44.3164 169.254 44.7383C169.676 45.1602 169.887 45.6816 169.887 46.3027ZM172.488 67.7656V71H163.154V67.7656H166.037V55.7773H163.154V52.5254H169.676V67.7656H172.488ZM183.914 52.5254V55.7773H180.539V65.4629C180.539 66.4707 180.645 67.127 180.855 67.4316C181.078 67.7246 181.453 67.8711 181.98 67.8711C182.625 67.8711 183.27 67.7598 183.914 67.5371V70.8242C182.789 71.1523 181.881 71.3164 181.189 71.3164C179.666 71.3164 178.57 70.9355 177.902 70.1738C177.234 69.4004 176.9 68.082 176.9 66.2188V55.7773H174.492V52.5254H176.9V49.7305L180.539 46.4082V52.5254H183.914ZM198.715 52.0332C202.148 52.0332 203.865 53.8906 203.865 57.6055V67.7656H206.994V71H200.227V58.9062C200.227 57.582 200.033 56.6504 199.646 56.1113C199.271 55.5723 198.686 55.3027 197.889 55.3027C196.541 55.3027 194.789 56.0938 192.633 57.6758V67.7656H195.832V71H185.689V67.7656H188.994V47.709H185.689V44.5098H192.633V54.6875C194.812 52.918 196.84 52.0332 198.715 52.0332ZM228.422 61.7891C228.422 63.582 227.994 65.2227 227.139 66.7109C226.283 68.1992 225.117 69.377 223.641 70.2441C222.164 71.1113 220.529 71.5449 218.736 71.5449C216.885 71.5449 215.215 71.1113 213.727 70.2441C212.238 69.377 211.078 68.1992 210.246 66.7109C209.426 65.2227 209.016 63.582 209.016 61.7891C209.016 59.9141 209.426 58.2383 210.246 56.7617C211.078 55.2852 212.232 54.1309 213.709 53.2988C215.186 52.4551 216.861 52.0332 218.736 52.0332C220.553 52.0332 222.199 52.4785 223.676 53.3691C225.152 54.248 226.312 55.4316 227.156 56.9199C228 58.4082 228.422 60.0312 228.422 61.7891ZM218.736 68.0117C219.814 68.0117 220.805 67.7305 221.707 67.168C222.609 66.6055 223.312 65.8496 223.816 64.9004C224.32 63.9512 224.572 62.9141 224.572 61.7891C224.572 60.6875 224.32 59.6621 223.816 58.7129C223.312 57.7637 222.609 57.002 221.707 56.4277C220.805 55.8418 219.803 55.5488 218.701 55.5488C217.623 55.5488 216.633 55.8359 215.73 56.4102C214.828 56.9727 214.119 57.7344 213.604 58.6953C213.088 59.6562 212.83 60.6875 212.83 61.7891C212.83 62.8906 213.088 63.9219 213.604 64.8828C214.119 65.8438 214.834 66.6055 215.748 67.168C216.662 67.7305 217.658 68.0117 218.736 68.0117ZM239.443 68.1523C241.072 68.1523 242.836 67.3613 244.734 65.7793V55.7773H241.465V52.5254H248.373V67.7656H251.537V71H244.734V68.873C242.602 70.502 240.574 71.3164 238.652 71.3164C236.918 71.3164 235.635 70.8008 234.803 69.7695C233.982 68.7383 233.572 67.0273 233.572 64.6367V55.7773H230.988V52.5254H237.211V65.3926C237.211 66.3418 237.381 67.0391 237.721 67.4844C238.072 67.9297 238.646 68.1523 239.443 68.1523ZM262.945 52.5254V55.7773H259.57V65.4629C259.57 66.4707 259.676 67.127 259.887 67.4316C260.109 67.7246 260.484 67.8711 261.012 67.8711C261.656 67.8711 262.301 67.7598 262.945 67.5371V70.8242C261.82 71.1523 260.912 71.3164 260.221 71.3164C258.697 71.3164 257.602 70.9355 256.934 70.1738C256.266 69.4004 255.932 68.082 255.932 66.2188V55.7773H253.523V52.5254H255.932V49.7305L259.57 46.4082V52.5254H262.945ZM296.783 61.8594C296.783 63.582 296.385 65.1934 295.588 66.6934C294.791 68.1934 293.701 69.377 292.318 70.2441C290.947 71.1113 289.424 71.5449 287.748 71.5449C285.275 71.5449 283.113 70.5957 281.262 68.6973V76.0449H284.865V79.2793H274.283V76.0449H277.623V55.7773H274.529V52.5254H281.262V55.4785C282.176 54.4004 283.184 53.5977 284.285 53.0703C285.387 52.543 286.564 52.2793 287.818 52.2793C289.564 52.2793 291.117 52.7129 292.477 53.5801C293.836 54.4355 294.891 55.5957 295.641 57.0605C296.402 58.5254 296.783 60.125 296.783 61.8594ZM287.695 68.2227C288.703 68.2227 289.611 67.9297 290.42 67.3438C291.229 66.7578 291.861 65.9609 292.318 64.9531C292.775 63.9453 293.004 62.8789 293.004 61.7539C293.004 60.6172 292.752 59.5742 292.248 58.625C291.744 57.6641 291.053 56.9023 290.174 56.3398C289.295 55.7656 288.305 55.4785 287.203 55.4785C286.055 55.4785 285.023 55.7832 284.109 56.3926C283.195 56.9902 282.486 57.7871 281.982 58.7832C281.479 59.7793 281.227 60.875 281.227 62.0703C281.227 63.9922 281.83 65.498 283.037 66.5879C284.256 67.6777 285.809 68.2227 287.695 68.2227ZM306.24 63.582V67.7656H310.266V71H298.928V67.7656H302.637V55.7773H298.928V52.5254H305.52V56.709C306.258 55.0566 307.172 53.9082 308.262 53.2637C309.363 52.6074 310.934 52.2793 312.973 52.2793H313.799V55.9531H313.008C311.039 55.9531 309.574 56.2109 308.613 56.7266C307.652 57.2422 307.014 58.0215 306.697 59.0645C306.393 60.1074 306.24 61.6133 306.24 63.582ZM322.078 46.3027C322.078 46.9004 321.861 47.416 321.428 47.8496C320.994 48.2832 320.479 48.5 319.881 48.5C319.283 48.5 318.773 48.2832 318.352 47.8496C317.93 47.416 317.719 46.9004 317.719 46.3027C317.719 45.7051 317.93 45.1895 318.352 44.7559C318.773 44.3223 319.283 44.1055 319.881 44.1055C320.502 44.1055 321.023 44.3164 321.445 44.7383C321.867 45.1602 322.078 45.6816 322.078 46.3027ZM324.68 67.7656V71H315.346V67.7656H318.229V55.7773H315.346V52.5254H321.867V67.7656H324.68ZM346.266 61.7891C346.266 63.582 345.838 65.2227 344.982 66.7109C344.127 68.1992 342.961 69.377 341.484 70.2441C340.008 71.1113 338.373 71.5449 336.58 71.5449C334.729 71.5449 333.059 71.1113 331.57 70.2441C330.082 69.377 328.922 68.1992 328.09 66.7109C327.27 65.2227 326.859 63.582 326.859 61.7891C326.859 59.9141 327.27 58.2383 328.09 56.7617C328.922 55.2852 330.076 54.1309 331.553 53.2988C333.029 52.4551 334.705 52.0332 336.58 52.0332C338.396 52.0332 340.043 52.4785 341.52 53.3691C342.996 54.248 344.156 55.4316 345 56.9199C345.844 58.4082 346.266 60.0312 346.266 61.7891ZM336.58 68.0117C337.658 68.0117 338.648 67.7305 339.551 67.168C340.453 66.6055 341.156 65.8496 341.66 64.9004C342.164 63.9512 342.416 62.9141 342.416 61.7891C342.416 60.6875 342.164 59.6621 341.66 58.7129C341.156 57.7637 340.453 57.002 339.551 56.4277C338.648 55.8418 337.646 55.5488 336.545 55.5488C335.467 55.5488 334.477 55.8359 333.574 56.4102C332.672 56.9727 331.963 57.7344 331.447 58.6953C330.932 59.6562 330.674 60.6875 330.674 61.7891C330.674 62.8906 330.932 63.9219 331.447 64.8828C331.963 65.8438 332.678 66.6055 333.592 67.168C334.506 67.7305 335.502 68.0117 336.58 68.0117ZM355.74 63.582V67.7656H359.766V71H348.428V67.7656H352.137V55.7773H348.428V52.5254H355.02V56.709C355.758 55.0566 356.672 53.9082 357.762 53.2637C358.863 52.6074 360.434 52.2793 362.473 52.2793H363.299V55.9531H362.508C360.539 55.9531 359.074 56.2109 358.113 56.7266C357.152 57.2422 356.514 58.0215 356.197 59.0645C355.893 60.1074 355.74 61.6133 355.74 63.582ZM377.871 67.7656V55.7773H374.76V52.5254H381.492V54.8633C383.66 53.1406 385.787 52.2793 387.873 52.2793C390.006 52.2793 391.471 53.2402 392.268 55.1621C394.635 53.2402 396.867 52.2793 398.965 52.2793C400.453 52.2793 401.637 52.7188 402.516 53.5977C403.406 54.4766 403.852 55.8242 403.852 57.6406V67.7656H407.086V71H400.248V59.293C400.248 58.4844 400.207 57.8281 400.125 57.3242C400.043 56.8203 399.826 56.3926 399.475 56.041C399.135 55.6895 398.59 55.5137 397.84 55.5137C397.172 55.5137 396.393 55.7129 395.502 56.1113C394.611 56.5098 393.674 57.1074 392.689 57.9043V67.7656H395.818V71H389.051V58.8359C389.051 57.6523 388.869 56.8027 388.506 56.2871C388.154 55.7715 387.568 55.5137 386.748 55.5137C385.412 55.5137 383.66 56.3105 381.492 57.9043V67.7656H384.744V71H374.549V67.7656H377.871ZM417.299 68.1523C418.928 68.1523 420.691 67.3613 422.59 65.7793V55.7773H419.32V52.5254H426.229V67.7656H429.393V71H422.59V68.873C420.457 70.502 418.43 71.3164 416.508 71.3164C414.773 71.3164 413.49 70.8008 412.658 69.7695C411.838 68.7383 411.428 67.0273 411.428 64.6367V55.7773H408.844V52.5254H415.066V65.3926C415.066 66.3418 415.236 67.0391 415.576 67.4844C415.928 67.9297 416.502 68.1523 417.299 68.1523ZM440.801 52.5254V55.7773H437.426V65.4629C437.426 66.4707 437.531 67.127 437.742 67.4316C437.965 67.7246 438.34 67.8711 438.867 67.8711C439.512 67.8711 440.156 67.7598 440.801 67.5371V70.8242C439.676 71.1523 438.768 71.3164 438.076 71.3164C436.553 71.3164 435.457 70.9355 434.789 70.1738C434.121 69.4004 433.787 68.082 433.787 66.2188V55.7773H431.379V52.5254H433.787V49.7305L437.426 46.4082V52.5254H440.801ZM451.576 68.1523C453.205 68.1523 454.969 67.3613 456.867 65.7793V55.7773H453.598V52.5254H460.506V67.7656H463.67V71H456.867V68.873C454.734 70.502 452.707 71.3164 450.785 71.3164C449.051 71.3164 447.768 70.8008 446.936 69.7695C446.115 68.7383 445.705 67.0273 445.705 64.6367V55.7773H443.121V52.5254H449.344V65.3926C449.344 66.3418 449.514 67.0391 449.854 67.4844C450.205 67.9297 450.779 68.1523 451.576 68.1523ZM481.564 59.0469V67.7656H484.658V71H478.365V68.7324C476.607 70.4551 474.65 71.3164 472.494 71.3164C471.357 71.3164 470.314 71.0527 469.365 70.5254C468.428 69.998 467.672 69.2949 467.098 68.416C466.535 67.5254 466.254 66.541 466.254 65.4629C466.254 64.3027 466.564 63.2715 467.186 62.3691C467.818 61.4551 468.668 60.752 469.734 60.2598C470.801 59.7676 471.873 59.5215 472.951 59.5215C474.756 59.5215 476.438 60.0488 477.996 61.1035V59.1172C477.996 57.6758 477.691 56.6445 477.082 56.0234C476.473 55.4023 475.471 55.0918 474.076 55.0918C473.092 55.0918 472.266 55.2734 471.598 55.6367C470.941 55.9883 470.396 56.5273 469.963 57.2539L466.482 56.3926C467.268 54.9277 468.328 53.8379 469.664 53.123C471 52.3965 472.588 52.0332 474.428 52.0332C476.9 52.0332 478.705 52.5957 479.842 53.7207C480.99 54.8457 481.564 56.6211 481.564 59.0469ZM472.986 68.5215C474.768 68.5215 476.438 67.7773 477.996 66.2891V64.127C476.414 62.8965 474.832 62.2812 473.25 62.2812C472.289 62.2812 471.457 62.5859 470.754 63.1953C470.062 63.793 469.717 64.5488 469.717 65.4629C469.717 66.3418 470.021 67.0742 470.631 67.6602C471.24 68.2344 472.025 68.5215 472.986 68.5215ZM495.75 67.7656V71H486.029V67.7656H489.299V47.709H486.029V44.5098H492.938V67.7656H495.75ZM522.311 53.8613V52.5254H525.545V59.5215H522.311C522.17 58.1738 521.631 57.1484 520.693 56.4453C519.756 55.7305 518.672 55.373 517.441 55.373C516.387 55.373 515.438 55.6543 514.594 56.2168C513.762 56.7793 513.117 57.541 512.66 58.502C512.203 59.4629 511.975 60.5117 511.975 61.6484C511.975 63.582 512.49 65.1641 513.521 66.3945C514.553 67.6133 515.912 68.2227 517.6 68.2227C520.213 68.2227 522.059 67.0098 523.137 64.584L526.16 66.0254C524.461 69.7051 521.555 71.5449 517.441 71.5449C515.602 71.5449 513.967 71.1113 512.537 70.2441C511.107 69.377 510 68.1875 509.215 66.6758C508.441 65.1641 508.055 63.4883 508.055 61.6484C508.055 59.8438 508.447 58.2031 509.232 56.7266C510.029 55.25 511.119 54.1016 512.502 53.2812C513.885 52.4492 515.426 52.0332 517.125 52.0332C519.141 52.0332 520.869 52.6426 522.311 53.8613ZM547.816 61.7891C547.816 63.582 547.389 65.2227 546.533 66.7109C545.678 68.1992 544.512 69.377 543.035 70.2441C541.559 71.1113 539.924 71.5449 538.131 71.5449C536.279 71.5449 534.609 71.1113 533.121 70.2441C531.633 69.377 530.473 68.1992 529.641 66.7109C528.82 65.2227 528.41 63.582 528.41 61.7891C528.41 59.9141 528.82 58.2383 529.641 56.7617C530.473 55.2852 531.627 54.1309 533.104 53.2988C534.58 52.4551 536.256 52.0332 538.131 52.0332C539.947 52.0332 541.594 52.4785 543.07 53.3691C544.547 54.248 545.707 55.4316 546.551 56.9199C547.395 58.4082 547.816 60.0312 547.816 61.7891ZM538.131 68.0117C539.209 68.0117 540.199 67.7305 541.102 67.168C542.004 66.6055 542.707 65.8496 543.211 64.9004C543.715 63.9512 543.967 62.9141 543.967 61.7891C543.967 60.6875 543.715 59.6621 543.211 58.7129C542.707 57.7637 542.004 57.002 541.102 56.4277C540.199 55.8418 539.197 55.5488 538.096 55.5488C537.018 55.5488 536.027 55.8359 535.125 56.4102C534.223 56.9727 533.514 57.7344 532.998 58.6953C532.482 59.6562 532.225 60.6875 532.225 61.7891C532.225 62.8906 532.482 63.9219 532.998 64.8828C533.514 65.8438 534.229 66.6055 535.143 67.168C536.057 67.7305 537.053 68.0117 538.131 68.0117ZM568.154 58.5723V67.7656H571.248V71H564.516V58.8008C564.516 57.6406 564.346 56.8086 564.006 56.3047C563.678 55.8008 563.133 55.5488 562.371 55.5488C560.754 55.5488 558.938 56.3457 556.922 57.9395V67.7656H560.104V71H550.084V67.7656H553.336V55.7773H550.084V52.5254H556.922V54.7578C559.184 53.1055 561.311 52.2793 563.303 52.2793C564.955 52.2793 566.174 52.7891 566.959 53.8086C567.756 54.8281 568.154 56.416 568.154 58.5723ZM584.502 53.3164V52.5254H587.666V58.6602H584.502V57.5352C583.447 56.0234 582.006 55.2676 580.178 55.2676C579.217 55.2676 578.432 55.4785 577.822 55.9004C577.213 56.3223 576.908 56.8672 576.908 57.5352C576.908 58.1328 577.137 58.6016 577.594 58.9414C578.062 59.2812 579.105 59.5801 580.723 59.8379L583.166 60.3125C586.811 60.9805 588.633 62.7676 588.633 65.6738C588.633 67.373 587.971 68.7383 586.646 69.7695C585.334 70.8008 583.588 71.3164 581.408 71.3164C580.541 71.3164 579.686 71.1934 578.842 70.9473C578.01 70.6895 577.312 70.373 576.75 69.998V71H573.516V64.6719H576.75V65.3047C576.926 66.1953 577.418 66.9102 578.227 67.4492C579.047 67.9883 579.996 68.2578 581.074 68.2578C582.258 68.2578 583.189 68.0527 583.869 67.6426C584.549 67.2207 584.889 66.5996 584.889 65.7793C584.889 65.1816 584.619 64.7363 584.08 64.4434C583.541 64.1387 582.457 63.8281 580.828 63.5117L578.947 63.1074C577.084 62.7324 575.719 62.0879 574.852 61.1738C573.984 60.2598 573.551 59.0938 573.551 57.6758C573.551 56.5273 573.867 55.5488 574.5 54.7402C575.145 53.9199 575.965 53.3047 576.961 52.8945C577.957 52.4844 578.982 52.2793 580.037 52.2793C581.807 52.2793 583.295 52.625 584.502 53.3164ZM610.887 62.6855H595.4C595.623 64.4551 596.309 65.8555 597.457 66.8867C598.605 67.9062 600.012 68.416 601.676 68.416C602.895 68.416 604.025 68.1641 605.068 67.6602C606.111 67.1562 606.984 66.3828 607.688 65.3398L610.887 66.7812C609.879 68.3516 608.555 69.541 606.914 70.3496C605.285 71.1465 603.51 71.5449 601.588 71.5449C599.596 71.5449 597.826 71.1289 596.279 70.2969C594.732 69.4648 593.525 68.3047 592.658 66.8164C591.803 65.3281 591.375 63.6523 591.375 61.7891C591.375 59.9375 591.797 58.2676 592.641 56.7793C593.496 55.291 594.662 54.1309 596.139 53.2988C597.615 52.4551 599.244 52.0332 601.025 52.0332C602.971 52.0332 604.664 52.4668 606.105 53.334C607.559 54.1895 608.701 55.4199 609.533 57.0254C610.365 58.6191 610.816 60.5059 610.887 62.6855ZM601.096 55.0566C599.725 55.0566 598.523 55.5195 597.492 56.4453C596.461 57.3594 595.799 58.5723 595.506 60.084H607.072C606.732 58.5723 606.012 57.3594 604.91 56.4453C603.809 55.5195 602.537 55.0566 601.096 55.0566ZM631.225 58.5723V67.7656H634.318V71H627.586V58.8008C627.586 57.6406 627.416 56.8086 627.076 56.3047C626.748 55.8008 626.203 55.5488 625.441 55.5488C623.824 55.5488 622.008 56.3457 619.992 57.9395V67.7656H623.174V71H613.154V67.7656H616.406V55.7773H613.154V52.5254H619.992V54.7578C622.254 53.1055 624.381 52.2793 626.373 52.2793C628.025 52.2793 629.244 52.7891 630.029 53.8086C630.826 54.8281 631.225 56.416 631.225 58.5723ZM645.621 52.5254V55.7773H642.246V65.4629C642.246 66.4707 642.352 67.127 642.562 67.4316C642.785 67.7246 643.16 67.8711 643.688 67.8711C644.332 67.8711 644.977 67.7598 645.621 67.5371V70.8242C644.496 71.1523 643.588 71.3164 642.896 71.3164C641.373 71.3164 640.277 70.9355 639.609 70.1738C638.941 69.4004 638.607 68.082 638.607 66.2188V55.7773H636.199V52.5254H638.607V49.7305L642.246 46.4082V52.5254H645.621Z" fill="white"/>
<path d="M714.34 22.2188V17.5254H719.033V22.2188H714.34ZM714.34 36V31.3242H719.033V36H714.34ZM725.73 22.2188V17.5254H730.424V22.2188H725.73ZM725.73 36V31.3242H730.424V36H725.73Z" fill="white"/>
<path d="M714.34 57.2188V52.5254H719.033V57.2188H714.34ZM714.34 71V66.3242H719.033V71H714.34ZM725.73 57.2188V52.5254H730.424V57.2188H725.73ZM725.73 71V66.3242H730.424V71H725.73Z" fill="white"/>
</svg>
